<?xml version="1.0" encoding="UTF-8"?><svg id="Layer_1" xmlns="http://www.w3.org/2000/svg" xmlns:xlink="http://www.w3.org/1999/xlink" viewBox="0 0 2023.88 540.03"><defs><style>.cls-1{fill:url(#linear-gradient);opacity:.54;}</style><linearGradient id="linear-gradient" x1="737.51" y1="112.54" x2="737.51" y2="23.89" gradientTransform="matrix(1, 0, 0, 1, 0, 0)" gradientUnits="userSpaceOnUse"><stop offset="0" stop-color="#dceff6" stop-opacity="0"/><stop offset=".02" stop-color="#def0f6" stop-opacity=".07"/><stop offset=".09" stop-color="#e5f3f8" stop-opacity=".26"/><stop offset=".17" stop-color="#ebf5f9" stop-opacity=".44"/><stop offset=".25" stop-color="#f0f8fb" stop-opacity=".59"/><stop offset=".34" stop-color="#f5fafc" stop-opacity=".72"/><stop offset=".43" stop-color="#f8fcfd" stop-opacity=".82"/><stop offset=".53" stop-color="#fbfdfe" stop-opacity=".9"/><stop offset=".64" stop-color="#fdfefe" stop-opacity=".96"/><stop offset=".78" stop-color="#fefefe" stop-opacity=".99"/><stop offset="1" stop-color="#fff"/></linearGradient></defs><path class="cls-1" d="M973.42,112.54c-7.3-4.2-15.33-7.8-23.26-9.27-13.33-2.47-27.66,1.06-27.66,1.06-9.56-8.53-43.73-16.06-66.49,.18-6.08-17.03-30.46-23.89-44.41-12.5,4.88-23.99-13.53-50.2-37.63-53.56-24.11-3.35-48.81,16.83-50.53,41.27,.98-14.53-17.6-26.14-30.08-18.79-2.2-21.17-23-38.61-44.09-36.95-21.06,1.69-38.83,22.19-37.63,43.45-7-12.47-24.1-17.98-36.97-11.95-1.34,.63-2.59,1.37-3.79,2.2-2.91,2.05-5.4,4.67-7.35,7.67-16.15-4.77-43.1-.66-50.47,22.04-1.48,4.52-1.91,9-1.59,13.05,.14,1.73,.42,3.37,.82,4.92-4.17-.01-8.26,2.71-10.33,6.42-.14,.24-.24,.5-.36,.75h471.82Z"/></svg>