<?xml version="1.0" encoding="UTF-8"?><svg id="Layer_1" xmlns="http://www.w3.org/2000/svg" xmlns:xlink="http://www.w3.org/1999/xlink" viewBox="0 0 2023.88 540.03"><defs><style>.cls-1{fill:url(#linear-gradient);opacity:.54;}.cls-2{fill:url(#linear-gradient-2);opacity:.39;}</style><linearGradient id="linear-gradient" x1="737.51" y1="112.54" x2="737.51" y2="23.89" gradientTransform="matrix(1, 0, 0, 1, 0, 0)" gradientUnits="userSpaceOnUse"><stop offset="0" stop-color="#dceff6" stop-opacity="0"/><stop offset=".02" stop-color="#def0f6" stop-opacity=".07"/><stop offset=".09" stop-color="#e5f3f8" stop-opacity=".26"/><stop offset=".17" stop-color="#ebf5f9" stop-opacity=".44"/><stop offset=".25" stop-color="#f0f8fb" stop-opacity=".59"/><stop offset=".34" stop-color="#f5fafc" stop-opacity=".72"/><stop offset=".43" stop-color="#f8fcfd" stop-opacity=".82"/><stop offset=".53" stop-color="#fbfdfe" stop-opacity=".9"/><stop offset=".64" stop-color="#fdfefe" stop-opacity=".96"/><stop offset=".78" stop-color="#fefefe" stop-opacity=".99"/><stop offset="1" stop-color="#fff"/></linearGradient><linearGradient id="linear-gradient-2" x1="1762.79" y1="519.06" x2="1762.79" y2="406.41" xlink:href="#linear-gradient"/></defs><path class="cls-1" d="M973.42,112.54c-7.3-4.2-15.33-7.8-23.26-9.27-13.33-2.47-27.66,1.06-27.66,1.06-9.56-8.53-43.73-16.06-66.49,.18-6.08-17.03-30.46-23.89-44.41-12.5,4.88-23.99-13.53-50.2-37.63-53.56-24.11-3.35-48.81,16.83-50.53,41.27,.98-14.53-17.6-26.14-30.08-18.79-2.2-21.17-23-38.61-44.09-36.95-21.06,1.69-38.83,22.19-37.63,43.45-7-12.47-24.1-17.98-36.97-11.95-1.34,.63-2.59,1.37-3.79,2.2-2.91,2.05-5.4,4.67-7.35,7.67-16.15-4.77-43.1-.66-50.47,22.04-1.48,4.52-1.91,9-1.59,13.05,.14,1.73,.42,3.37,.82,4.92-4.17-.01-8.26,2.71-10.33,6.42-.14,.24-.24,.5-.36,.75h471.82Z"/><path class="cls-2" d="M2008.01,519.06c.19-1.58,.35-3.18,.4-4.77,.35-9.58-1.84-19.2-7.41-26.87-7.29-10.01-18.65-14.97-29.41-16.48,.36-1.65,.56-3.35,.56-5.11,0-13.23-10.72-23.95-23.95-23.95-5.35,0-10.28,1.78-14.27,4.74-8.71-24.76-29.81-40.21-57.87-40.21s-52.25,12.17-59.14,38.34c-10.75-8.5-23.86-5.6-27.81,6.95,.68-13.34-14.11-32.54-40-32.54-13.35,0-30.75,5.95-35.9,23.84-5.02-11.43-13.96-13.98-24.55-13-10.58,1-18.84,13.42-18.93,22.35-10.57-6.18-22.35-11.05-34.61-11.08-12.25-.04-22.41,3.55-30.81,12.49-9.05,9.6-9.37,25.4-4.58,37.56-12.12-2.73-21.33,5.29-18.6,17.44-14.48-6.8-23.37-6.99-38.96-3.56-9.42,2.08-18.35,6.97-25.04,13.85h490.87Z"/></svg>