<?xml version="1.0" encoding="UTF-8"?><svg id="Layer_1" xmlns="http://www.w3.org/2000/svg" xmlns:xlink="http://www.w3.org/1999/xlink" viewBox="0 0 2023.88 540.03"><defs><style>.cls-1{fill:url(#linear-gradient);}.cls-1,.cls-2{opacity:.54;}.cls-3{fill:url(#linear-gradient-2);}</style><linearGradient id="linear-gradient" x1="279.27" y1="426.31" x2="279.27" y2="296.02" gradientTransform="matrix(1, 0, 0, 1, 0, 0)" gradientUnits="userSpaceOnUse"><stop offset="0" stop-color="#dceff6" stop-opacity="0"/><stop offset=".02" stop-color="#def0f6" stop-opacity=".07"/><stop offset=".09" stop-color="#e5f3f8" stop-opacity=".26"/><stop offset=".17" stop-color="#ebf5f9" stop-opacity=".44"/><stop offset=".25" stop-color="#f0f8fb" stop-opacity=".59"/><stop offset=".34" stop-color="#f5fafc" stop-opacity=".72"/><stop offset=".43" stop-color="#f8fcfd" stop-opacity=".82"/><stop offset=".53" stop-color="#fbfdfe" stop-opacity=".9"/><stop offset=".64" stop-color="#fdfefe" stop-opacity=".96"/><stop offset=".78" stop-color="#fefefe" stop-opacity=".99"/><stop offset="1" stop-color="#fff"/></linearGradient><linearGradient id="linear-gradient-2" x1="1391.3" y1="291.64" x2="1391.3" y2="159.64" xlink:href="#linear-gradient"/></defs><path class="cls-1" d="M530.63,426.31c-.26-.72-.52-1.43-.81-2.13-4.54-10.85-12.39-19.95-21.79-27.1,.33-3.99,.01-8.04-.95-11.93-.96-3.85-2.57-7.51-4.82-10.78-8.79-12.78-26.73-18.3-41.21-12.75,5.82-18.13-8.5-39.74-27.44-41.47-18.33-1.67-35.72,15.74-34.62,33.98-.9-8.34-7.72-14.71-14.61-19.64-16.13-11.53-29.77-1.03-32.91,.23-4.63-22.41-25.78-39.57-56.78-38.66-30.98,.89-50.66,21.43-52.1,41.81-7.4-10.54-23.45-13.79-34.37-6.95-10.88,6.86-14.97,22.72-8.67,33.96-18.42-17.5-47.1-23.28-70.87-14.31-23.78,8.97-41.46,32.29-43.7,57.6-14.79-4.54-42.18,.35-57.08,18.14h502.72Z"/><g class="cls-2"><path class="cls-3" d="M1767.36,291.64c-8.59-28.05-33.67-49.3-64.71-51.46-11.34-.79-22.29,1.07-32.21,5.03-6.91-11.39-21.62-28.06-50.29-33.17-3.28-.6-6.75-.93-10.35-.98-7.47-27.79-31.87-49.11-62.19-51.23-31.68-2.21-59.84,17.24-70.08,45.7-4.11-2.31-8.87-4.02-14.3-4.81-5.26-.74-9.78-.45-13.65,.43-4.64-7.6-11.8-13.66-20.3-16.31-11.84-3.6-25.26-.32-34.7,7.59-6.76-17.32-23.03-30.12-42.82-31.5-23.81-1.66-44.85,13.75-51.18,35.82-20.87-8.64-36.98-.59-46.33,8.43-11.91,11.49-18.11,35.39-12.87,50.9-15-4.16-27.01,5.33-24.33,20.7-33.68-19.78-65.73-3.43-83.18,9.78-.24-.33-.5-.67-.77-1.01-16.88-14.44-38.91-5.58-42.14,5.94-25.24-10.07-50.27-9.33-75.73,.14h752.11Z"/></g></svg>