<?xml version="1.0" encoding="utf-8"?>
<!-- Generator: Adobe Illustrator 27.0.1, SVG Export Plug-In . SVG Version: 6.00 Build 0)  -->
<svg version="1.1" id="Layer_1" xmlns="http://www.w3.org/2000/svg" xmlns:xlink="http://www.w3.org/1999/xlink" x="0px" y="0px"
	 viewBox="0 0 169 43.1" style="enable-background:new 0 0 169 43.1;" xml:space="preserve">
<style type="text/css">
	.st0{fill:none;}
	.st1{fill:#FFFFFF;}
	.st2{fill:#13A9D2;}
</style>
<rect class="st0" width="169" height="43.1"/>
<g id="Group_18">
	<path id="Path_13" class="st1" d="M20.5,13.7l2.2-12.2h7.2L24,35h-7.2l0.3-1.7c-2.1,1.7-4.7,2.5-7.3,2.4c-3.6,0-6.3-1.3-8-4
		c-1.7-2.8-2.2-6.1-1.5-9.3c0.6-3.2,2.2-6.2,4.5-8.5c2.4-2.4,5.6-3.7,9-3.6C16.8,10.4,19.1,11.5,20.5,13.7 M12.2,28.9
		c1.6,0,3.1-0.5,4.3-1.5c1.2-1,2.1-2.5,2.4-4.1l0.1-0.5c0.3-1.4-0.1-2.9-1-4.1c-1-1-2.3-1.6-3.7-1.5c-1.6,0-3.2,0.5-4.4,1.6
		c-1.3,1.1-2.1,2.6-2.4,4.2c-0.4,1.5-0.1,3,0.8,4.2C9.3,28.4,10.7,29,12.2,28.9"/>
	<path id="Path_14" class="st1" d="M40.5,35.7c-2.5,0.1-5-0.6-7.1-2.1c-3.6-2.8-5-6.7-4-11.6c0.7-3.2,2.4-6.1,4.8-8.3
		c2.6-2.3,6-3.5,9.5-3.4c3.8,0,6.7,1.4,8.7,4.2c2,2.7,2.7,6,2,9.3c-0.6,3.3-2.3,6.2-4.8,8.4C47.2,34.5,43.9,35.7,40.5,35.7 M47.4,23
		c0.4-1.4,0.1-2.9-0.8-4.1c-0.9-1.1-2.2-1.6-3.6-1.6c-1.5,0-3,0.5-4.1,1.6c-1.2,1.1-2,2.5-2.2,4.1c-0.3,1.4-0.1,2.9,0.8,4.1
		c0.9,1.1,2.2,1.7,3.6,1.6c1.5,0,3-0.5,4.2-1.6C46.4,26.1,47.2,24.6,47.4,23"/>
	<path id="Path_15" class="st1" d="M72.7,17.9h-4.9l-1.5,8.5c-0.2,1,0.1,1.6,0.7,1.8c1.3,0.3,2.6,0.4,3.9,0.2L69.7,35
		c-4.3,0.5-7.3,0-9-1.4c-1.7-1.4-2.3-3.8-1.7-7.2l1.5-8.5h-3.8L58,11h3.8l0.8-4.6l7.6-2.2L69,11h5L72.7,17.9z"/>
	<path id="Path_16" class="st2" d="M93.9,0.8l-1.2,6.9c-3-0.2-4.7,0.9-5.1,3.4H92l-1.2,6.9h-4.5l-3,17.1h-7.2l3-17.1H76l1.2-6.9h3.2
		c0.4-3.1,1.9-6,4.3-8C87,1.3,90,0.5,93.9,0.8"/>
	<path id="Path_17" class="st2" d="M99.3,35h-7.2l2.7-15.3L98.3,0h7.2L102,20.1L99.3,35z"/>
	<path id="Path_18" class="st2" d="M155.5,23.9l5.6-12.9h7.9l-11.9,24h-6.7l-1.6-12.6L143.2,35H136l-3.5-24h7.2l1.5,12.9l5.7-12.9h7
		L155.5,23.9z"/>
	<path id="Path_19" class="st2" d="M112.2,40.7l2.3-5.2h0c0,0,0,0.1,0,0.1L112.2,40.7z"/>
	<path id="Path_20" class="st2" d="M128.9,14.5c-2-2.8-4.8-4.2-8.7-4.2c-3.5-0.1-6.9,1.1-9.5,3.4c-1.8,1.6-3.2,3.6-4.1,5.9l-3.1,7.3
		c-0.4,0.9,0,1.9,0.9,2.3c0.9,0.4,1.9,0,2.3-0.9l0.5-1.1c0.5-0.8,1.5-1.1,2.3-0.6c0.7,0.4,1,1.4,0.7,2.1l-1.6,3.6l0,0l-0.3,0.7
		c-0.4,0.9,0,1.9,0.9,2.3c0.9,0.4,1.9,0,2.3-0.9l0.1-0.3h0l0,0c0.4-0.9,1.4-1.3,2.3-0.9c0.8,0.4,1.2,1.3,0.9,2.2h0l-2.3,5.2v0
		c-0.4,0.8-0.1,1.9,0.8,2.3c0.8,0.4,1.9,0.1,2.3-0.8c0,0,0-0.1,0-0.1l2.6-5.7l0,0l1.2-2.7c0.4-0.9,1.5-1.3,2.4-0.9
		c0.9,0.4,1.3,1.4,0.9,2.3h0l-0.1,0.1c-0.4,0.9,0,1.9,0.8,2.3c0.9,0.4,1.9,0,2.3-0.8c0,0,0,0,0,0l4-8.8c0.7-1.3,1.2-2.7,1.4-4.1
		C131.6,20.6,130.8,17.2,128.9,14.5 M113,23c0.3-1.6,1-3,2.2-4.1c1.1-1,2.6-1.6,4.1-1.6c1.4-0.1,2.7,0.5,3.6,1.6
		c0.9,1.2,1.2,2.7,0.8,4.1c-0.2,1.6-1,3.1-2.3,4.1c-1.2,1-2.6,1.6-4.2,1.6c-1.4,0.1-2.7-0.5-3.6-1.6C112.9,25.9,112.7,24.4,113,23"
		/>
	<path id="Path_21" class="st2" d="M122.3,39c-1-0.4-2.1,0-2.5,1s0,2.1,1,2.5c1,0.4,2.1,0,2.5-1C123.7,40.6,123.3,39.5,122.3,39
		C122.3,39,122.3,39,122.3,39"/>
	<path id="Path_22" class="st2" d="M109.2,39.1c0.1-1-0.7-2-1.7-2.1c-1-0.1-2,0.7-2.1,1.7s0.7,2,1.7,2.1c0.8,0.1,1.6-0.4,1.9-1.1
		C109.1,39.5,109.1,39.3,109.2,39.1"/>
</g>
</svg>
