<svg xmlns="http://www.w3.org/2000/svg" xmlns:xlink="http://www.w3.org/1999/xlink" width="169" height="43.136" viewBox="0 0 169 43.136">
  <defs>
    <clipPath id="clip-path">
      <rect id="Rectangle_21" data-name="Rectangle 21" width="169" height="43.136" transform="translate(0 0)" fill="none"/>
    </clipPath>
  </defs>
  <g id="Group_18" data-name="Group 18" clip-path="url(#clip-path)">
    <path id="Path_13" data-name="Path 13" d="M20.54,25.259,22.7,13.022h7.2L24,46.613H16.8l.288-1.727a10.89,10.89,0,0,1-7.294,2.4q-5.471,0-8.014-3.983A12.444,12.444,0,0,1,.29,34.041,15.85,15.85,0,0,1,4.8,25.546a12.281,12.281,0,0,1,8.974-3.6q4.607,0,6.766,3.311M12.19,40.471a6.513,6.513,0,0,0,4.295-1.536,6.966,6.966,0,0,0,2.376-4.079l.1-.48a5.039,5.039,0,0,0-.96-4.1,4.657,4.657,0,0,0-3.743-1.511A6.557,6.557,0,0,0,9.839,30.37a7.073,7.073,0,0,0-2.351,4.247,4.986,4.986,0,0,0,.84,4.247,4.706,4.706,0,0,0,3.863,1.608" transform="translate(0.001 -11.582)" fill="#fff"/>
    <path id="Path_14" data-name="Path 14" d="M275.017,119.088a11.525,11.525,0,0,1-7.054-2.064q-5.47-4.222-3.983-11.565a14.861,14.861,0,0,1,4.847-8.3,13.86,13.86,0,0,1,9.549-3.407q5.759,0,8.686,4.175a11.575,11.575,0,0,1,2.016,9.262,14.447,14.447,0,0,1-4.847,8.4,13.419,13.419,0,0,1-9.214,3.5m6.91-12.669a4.8,4.8,0,0,0-.792-4.1,4.409,4.409,0,0,0-3.623-1.559,5.977,5.977,0,0,0-4.1,1.559,7.059,7.059,0,0,0-2.231,4.1,5.072,5.072,0,0,0,.767,4.1,4.2,4.2,0,0,0,3.551,1.56,6.239,6.239,0,0,0,4.175-1.56,6.673,6.673,0,0,0,2.255-4.1" transform="translate(-234.511 -83.385)" fill="#fff"/>
    <path id="Path_15" data-name="Path 15" d="M529,52.69h-4.942l-1.488,8.494q-.287,1.44.744,1.848a10.23,10.23,0,0,0,3.863.216l-1.151,6.526q-6.432.72-9-1.392t-1.656-7.2l1.488-8.494h-3.839l1.247-6.91h3.791l.816-4.559,7.583-2.16-1.2,6.718h4.991Z" transform="translate(-456.303 -34.742)" fill="#fff"/>
    <path id="Path_16" data-name="Path 16" d="M705,6.641l-1.2,6.91q-4.463-.336-5.087,3.359h4.463l-1.2,6.91h-4.463L694.487,40.9h-7.2l3.023-17.084H687.1l1.2-6.91h3.216a12.2,12.2,0,0,1,4.318-7.966q3.407-2.639,9.166-2.3" transform="translate(-611.13 -5.873)" fill="#fff"/>
    <path id="Path_17" data-name="Path 17" d="M840.538,35.03h-7.2l2.688-15.308L839.482,0h7.2l-3.5,20.059Z" transform="translate(-741.203 0.001)" fill="#fff"/>
    <path id="Path_18" data-name="Path 18" d="M1221.623,112.687l5.615-12.861h7.918l-11.9,23.994h-6.719l-1.583-12.621-5.615,12.621h-7.2l-3.455-23.994h7.2l1.488,12.861,5.711-12.861h6.958Z" transform="translate(-1066.156 -88.789)" fill="#fff"/>
    <path id="Path_19" data-name="Path 19" d="M1015,326.58l2.342-5.165-.018,0c-.014.037-.027.075-.044.112Z" transform="translate(-902.781 -285.876)" fill="#13a9d2"/>
    <path id="Path_20" data-name="Path 20" d="M959.324,97.925q-2.927-4.175-8.685-4.175a13.861,13.861,0,0,0-9.549,3.407,15.005,15.005,0,0,0-4.131,5.86l-3.136,7.276a1.728,1.728,0,0,0,3.15,1.421l.466-1.082a1.693,1.693,0,0,1,2.989,1.578l-1.608,3.552.006.007-.329.719a1.728,1.728,0,0,0,3.15,1.421l.119-.259.007,0,.019-.042a1.727,1.727,0,0,1,3.194,1.309l.017,0-2.342,5.165,0,.006a1.707,1.707,0,1,0,3.112,1.4l2.579-5.688h0l1.2-2.65a1.772,1.772,0,0,1,3.25,1.411l.009,0-.052.114a1.728,1.728,0,1,0,3.15,1.421l4.032-8.828a13.856,13.856,0,0,0,1.4-4.088,11.575,11.575,0,0,0-2.016-9.262m-15.883,8.494a7.058,7.058,0,0,1,2.231-4.1,5.977,5.977,0,0,1,4.1-1.559,4.409,4.409,0,0,1,3.623,1.559,4.8,4.8,0,0,1,.791,4.1,6.673,6.673,0,0,1-2.255,4.1,6.239,6.239,0,0,1-4.175,1.56,4.2,4.2,0,0,1-3.551-1.56,5.072,5.072,0,0,1-.768-4.1" transform="translate(-830.441 -83.385)" fill="#13a9d2"/>
    <path id="Path_21" data-name="Path 21" d="M1084.529,351.812a1.92,1.92,0,1,0,.961,2.54,1.92,1.92,0,0,0-.961-2.54" transform="translate(-962.211 -312.763)" fill="#13a9d2"/>
    <path id="Path_22" data-name="Path 22" d="M956.519,336.394a1.906,1.906,0,1,0-.158.585,1.92,1.92,0,0,0,.158-.585" transform="translate(-847.359 -297.311)" fill="#13a9d2"/>
  </g>
</svg>
