<?xml version="1.0" encoding="UTF-8"?><svg id="Layer_2" xmlns="http://www.w3.org/2000/svg" viewBox="0 0 24.7 24.7"><defs><style>.cls-1{fill:#f39100;}</style></defs><g id="Layer_1-2"><g><path class="cls-1" d="m10.73,19.3v-6.05h-2.42v-2.42h2.42v-2.12c0-1.72,1.33-3.17,3.02-3.33h2.72v2.42h-2.42c-.51,0-.91.39-.91.91v2.12h3.02v2.42h-3.02v6.05h-2.42Zm3.02,0v-5.44h3.02v-3.63h-3.02v-1.51c0-.18.12-.3.3-.3h3.02v-3.63h-3.36c-2.03.18-3.6,1.9-3.6,3.93v1.51h-2.42v3.63h2.42v6.05h3.63v-.6Z"/><path class="cls-1" d="m19.56,24.7H5.15c-2.84,0-5.15-2.31-5.15-5.15V5.14C0,2.31,2.31,0,5.15,0h14.41c2.84,0,5.14,2.31,5.14,5.14v14.41c0,2.84-2.31,5.15-5.14,5.15ZM5.15.62C2.65.62.62,2.65.62,5.14v14.41c0,2.5,2.03,4.53,4.53,4.53h14.41c2.5,0,4.53-2.03,4.53-4.53V5.14c0-2.5-2.03-4.53-4.53-4.53H5.15Z"/></g></g></svg>