<?xml version="1.0" encoding="UTF-8"?><svg id="Layer_2" xmlns="http://www.w3.org/2000/svg" viewBox="0 0 24.7 24.7"><defs><style>.cls-1{fill:#f39100;}</style></defs><g id="Layer_1-2"><g><path class="cls-1" d="m19.56,24.7H5.15c-2.84,0-5.15-2.31-5.15-5.15V5.14C0,2.31,2.31,0,5.15,0h14.41c2.84,0,5.14,2.31,5.14,5.14v14.41c0,2.84-2.31,5.15-5.14,5.15ZM5.15.62C2.65.62.62,2.65.62,5.14v14.41c0,2.5,2.03,4.53,4.53,4.53h14.41c2.5,0,4.53-2.03,4.53-4.53V5.14c0-2.5-2.03-4.53-4.53-4.53H5.15Z"/><g><path class="cls-1" d="m15.6,5.37h-6.5c-2.06,0-3.73,1.68-3.73,3.73v6.5c0,2.06,1.68,3.73,3.73,3.73h6.5c2.06,0,3.73-1.68,3.73-3.73v-6.5c0-2.06-1.68-3.73-3.73-3.73Zm3.1,10.23c0,1.71-1.39,3.1-3.1,3.1h-6.5c-1.71,0-3.1-1.39-3.1-3.1v-6.5c0-1.71,1.39-3.1,3.1-3.1h6.5c1.71,0,3.1,1.39,3.1,3.1v6.5Z"/><path class="cls-1" d="m12.35,8.58c-2.08,0-3.77,1.69-3.77,3.77s1.69,3.77,3.77,3.77,3.77-1.69,3.77-3.77-1.69-3.77-3.77-3.77Zm0,6.92c-1.73,0-3.14-1.41-3.14-3.14s1.41-3.14,3.14-3.14,3.14,1.41,3.14,3.14-1.41,3.14-3.14,3.14Z"/><path class="cls-1" d="m16.32,7.2c-.58,0-1.04.47-1.04,1.04s.47,1.04,1.04,1.04,1.04-.47,1.04-1.04-.47-1.04-1.04-1.04Zm0,1.46c-.23,0-.41-.19-.41-.41s.19-.41.41-.41.41.19.41.41-.19.41-.41.41Z"/></g></g></g></svg>