<?xml version="1.0" encoding="UTF-8"?><svg id="Layer_2" xmlns="http://www.w3.org/2000/svg" viewBox="0 0 24.7 24.7"><defs><style>.cls-1{fill:#f39100;}</style></defs><g id="Layer_1-2"><g><path class="cls-1" d="m12.35,4.44c-3.34,0-7.91,2.53-7.91,7.91s4.39,7.91,7.91,7.91c6.03,0,7.91-5.28,7.91-7.91,0-3.87-2.96-7.91-7.91-7.91Zm-1.83.74c-.83.7-1.51,1.87-1.95,3.31-.57-.34-1.1-.76-1.57-1.25.97-1.01,2.19-1.72,3.52-2.06Zm-3.86,2.44c.52.54,1.12,1.01,1.77,1.38-.24.94-.39,1.99-.4,3.09h-3.06c.06-1.64.65-3.21,1.7-4.47Zm0,9.44c-1.05-1.26-1.64-2.82-1.7-4.47h3.06c.02,1.1.16,2.15.4,3.09-.64.37-1.24.83-1.77,1.38Zm.34.38c.47-.49.99-.91,1.57-1.25.44,1.44,1.13,2.61,1.95,3.31-1.33-.35-2.55-1.06-3.52-2.06Zm5.1,2.28c-1.33-.17-2.47-1.65-3.09-3.77.95-.48,2.01-.75,3.09-.79v4.57h0Zm0-5.08c-1.13.04-2.22.31-3.22.8-.21-.87-.33-1.83-.35-2.85h3.57v2.05h0Zm0-2.56h-3.57c.02-1.02.14-1.98.35-2.85,1,.49,2.09.76,3.22.8v2.05Zm0-2.56c-1.08-.04-2.13-.31-3.09-.79.62-2.13,1.76-3.61,3.09-3.77v4.57Zm5.95-1.91c1.05,1.26,1.64,2.82,1.7,4.47h-3.06c-.02-1.1-.16-2.15-.4-3.09.64-.37,1.24-.83,1.76-1.38Zm-.34-.38c-.47.49-.99.91-1.57,1.25-.44-1.44-1.13-2.61-1.95-3.31,1.33.35,2.55,1.06,3.52,2.06Zm-5.1-2.28c1.33.17,2.47,1.65,3.09,3.77-.95.48-2,.75-3.09.79v-4.57Zm0,5.08c1.13-.04,2.22-.31,3.22-.8.21.87.33,1.83.35,2.85h-3.57v-2.05Zm0,2.56h3.57c-.02,1.02-.14,1.98-.35,2.85-.99-.49-2.09-.77-3.22-.8v-2.05Zm0,7.12v-4.57c1.08.04,2.13.31,3.09.79-.62,2.13-1.76,3.61-3.09,3.77Zm1.58-.21c.83-.7,1.51-1.87,1.95-3.31.57.34,1.1.76,1.57,1.25-.97,1.01-2.19,1.72-3.52,2.06Zm3.86-2.44c-.52-.54-1.12-1.01-1.76-1.38.24-.94.39-1.99.4-3.09h3.06c-.06,1.64-.65,3.21-1.7,4.47Z"/><path class="cls-1" d="m19.56,24.7H5.14c-2.84,0-5.14-2.31-5.14-5.15V5.14C0,2.31,2.31,0,5.14,0h14.41c2.84,0,5.15,2.31,5.15,5.14v14.41c0,2.84-2.31,5.15-5.15,5.15ZM5.14.62C2.65.62.62,2.65.62,5.14v14.41c0,2.5,2.03,4.53,4.53,4.53h14.41c2.5,0,4.53-2.03,4.53-4.53V5.14c0-2.5-2.03-4.53-4.53-4.53H5.14Z"/></g></g></svg>