<?xml version="1.0" encoding="UTF-8"?><svg id="Layer_2" xmlns="http://www.w3.org/2000/svg" viewBox="0 0 24.7 24.7"><defs><style>.cls-1{fill:#f39100;}</style></defs><g id="Layer_1-2"><g><path class="cls-1" d="m19.56,24.7H5.15c-2.84,0-5.15-2.31-5.15-5.15V5.14C0,2.31,2.31,0,5.15,0h14.41c2.84,0,5.14,2.31,5.14,5.14v14.41c0,2.84-2.31,5.15-5.14,5.15ZM5.15.62C2.65.62.62,2.65.62,5.14v14.41c0,2.5,2.03,4.53,4.53,4.53h14.41c2.5,0,4.53-2.03,4.53-4.53V5.14c0-2.5-2.03-4.53-4.53-4.53H5.15Z"/><g><path class="cls-1" d="m12.35,4.93c-3.16,0-5.73,2.57-5.73,5.73,0,1.04.47,2.16.49,2.21.15.36.45.91.66,1.24l3.93,5.95c.16.24.4.38.65.38s.49-.14.65-.38l3.93-5.95c.21-.33.51-.88.66-1.24.02-.05.49-1.17.49-2.21,0-3.16-2.57-5.73-5.73-5.73Zm4.62,7.67c-.13.32-.41.84-.6,1.13l-3.93,5.95c-.08.12-.1.12-.18,0l-3.93-5.95c-.19-.29-.47-.81-.6-1.13,0-.01-.43-1.04-.43-1.94,0-2.79,2.27-5.05,5.05-5.05s5.05,2.27,5.05,5.05c0,.9-.43,1.93-.43,1.94Z"/><path class="cls-1" d="m12.35,7.62c-1.67,0-3.03,1.36-3.03,3.03s1.36,3.03,3.03,3.03,3.03-1.36,3.03-3.03c0-1.67-1.36-3.03-3.03-3.03Zm0,5.39c-1.3,0-2.36-1.06-2.36-2.36s1.06-2.36,2.36-2.36,2.36,1.06,2.36,2.36-1.06,2.36-2.36,2.36Z"/></g></g></g></svg>