<?xml version="1.0" encoding="utf-8"?>
<!-- Generator: Adobe Illustrator 26.3.1, SVG Export Plug-In . SVG Version: 6.00 Build 0)  -->
<svg version="1.1" id="Layer_1" xmlns="http://www.w3.org/2000/svg" xmlns:xlink="http://www.w3.org/1999/xlink" x="0px" y="0px"
	 viewBox="0 0 3350.6 696.3" style="enable-background:new 0 0 3350.6 696.3;" xml:space="preserve">
<style type="text/css">
	.st0{fill:#1C4457;}
	.st1{fill:#173847;}
	.st2{fill:#265B75;}
	.st3{fill:#507F96;}
	.st4{fill:#D3E7E9;}
	.st5{fill:#327899;}
	.st6{fill:#499ABF;}
	.st7{fill:#FFFFFF;}
	.st8{fill:#2C6A87;}
	.st9{fill:#5CB7E0;}
	.st10{fill:#53A4C9;}
	.st11{fill-rule:evenodd;clip-rule:evenodd;fill:#28C382;}
	.st12{fill-rule:evenodd;clip-rule:evenodd;fill:#24B271;}
	.st13{fill:#0C9E77;}
	.st14{fill-rule:evenodd;clip-rule:evenodd;fill:#0C9E77;}
	.st15{fill-rule:evenodd;clip-rule:evenodd;fill:#076048;}
</style>
<g>
	<g>
		<polygon class="st0" points="1712.8,465.6 2056.9,140.1 2514.2,465.6 		"/>
		<polygon class="st1" points="2056.9,140.1 2149.4,432.6 2321.7,328.8 		"/>
		<polygon class="st2" points="1838.4,432 1976.3,245.4 2004,249 2022.6,197.9 2035.5,203.1 2056.9,140.1 1840.8,344.5 		"/>
		<polygon class="st3" points="2056.9,140.1 2082.6,221.9 2094.2,191.9 2126.6,189.7 		"/>
		<polygon class="st4" points="1994.1,199.6 2036.2,186.7 2082.6,221.9 2056.9,140.1 		"/>
	</g>
	<g>
		<polygon class="st0" points="-107.8,465.6 342.2,40.1 940.1,465.6 		"/>
		<polygon class="st1" points="342.2,40.1 463.1,422.4 688.4,286.8 		"/>
		<polygon class="st2" points="56.5,421.6 236.7,177.7 273.1,182.4 297.4,115.6 314.2,122.4 342.2,40.1 59.6,307.3 		"/>
		<polygon class="st3" points="342.2,40.1 375.8,146.9 390.9,107.8 433.3,104.9 		"/>
		<polygon class="st4" points="260,117.8 315.1,101 375.8,146.9 342.2,40.1 		"/>
	</g>
	<g>
		<polygon class="st0" points="2641,465.6 2985.1,140.1 3442.4,465.6 		"/>
		<polygon class="st1" points="2985.1,140.1 3077.6,432.6 3249.9,328.8 		"/>
		<polygon class="st2" points="2766.6,432 2904.5,245.4 2932.2,249 2950.8,197.9 2963.7,203.1 2985.1,140.1 2769,344.5 		"/>
		<polygon class="st3" points="2985.1,140.1 3010.8,221.9 3022.4,191.9 3054.8,189.7 		"/>
		<polygon class="st4" points="2922.3,199.6 2964.4,186.7 3010.8,221.9 2985.1,140.1 		"/>
	</g>
	<g>
		<polygon class="st5" points="1910.7,381.4 2016.1,290 2097.5,335.7 2406,68.3 2502.1,184.5 2565.6,261.8 2565.6,465.6 
			1773.7,465.6 		"/>
		<polygon class="st2" points="2016.1,290 2088.2,465.6 2331,465.6 		"/>
		<polygon class="st6" points="1773.7,465.6 1939.8,385.5 1936.2,372.3 1988.1,356.1 2016.1,290 1910.7,381.4 		"/>
		<polygon class="st2" points="2406,68.3 2454.2,465.6 2565.6,465.6 2565.6,261.8 		"/>
		<polygon class="st6" points="2097.5,335.7 2141.5,359.9 2291.6,254.9 2240.2,245.4 2313.3,206.3 2406,68.3 		"/>
		<polygon class="st7" points="2406,68.3 2240.2,212 2345.2,181 2426.9,245.4 		"/>
		<polygon class="st4" points="2406,68.3 2542.5,234.1 2480.7,191.9 2426.9,245.4 		"/>
		<polygon class="st7" points="2016.1,290 1954.9,343.1 1994.1,338.1 2043.4,358.3 		"/>
		<polygon class="st4" points="2016.1,290 2073.1,322 2052,324.2 2043.4,358.3 		"/>
	</g>
	<g>
		<polygon class="st5" points="213.9,356.7 309.6,273.8 383.5,315.3 663.5,72.5 750.8,178 808.5,248.1 808.5,433.2 89.5,433.2 		"/>
		<polygon class="st2" points="309.6,273.8 375,433.2 595.5,433.2 		"/>
		<polygon class="st6" points="89.5,433.2 240.3,360.5 237.1,348.5 284.2,333.8 309.6,273.8 213.9,356.7 		"/>
		<polygon class="st2" points="663.5,72.5 707.4,433.2 808.5,433.2 808.5,248.1 		"/>
		<polygon class="st6" points="383.5,315.3 423.4,337.2 559.7,241.9 513,233.3 579.4,197.8 663.5,72.5 		"/>
		<polygon class="st7" points="663.5,72.5 513,203 608.3,174.8 682.5,233.3 		"/>
		<polygon class="st4" points="663.5,72.5 787.5,223 731.4,184.7 682.5,233.3 		"/>
		<polygon class="st7" points="309.6,273.8 254,322 289.6,317.5 334.4,335.7 		"/>
		<polygon class="st4" points="309.6,273.8 361.3,302.8 342.2,304.8 334.4,335.7 		"/>
	</g>
	<g>
		<polygon class="st5" points="2988.6,405.5 3061.1,421.5 3125.1,372.1 3350.5,176.7 3420.7,261.7 3467.1,318.1 3467.1,467 
			2888.5,467 		"/>
		<polygon class="st2" points="3350.5,176.7 3385.7,467 3467.1,467 3589,465.8 		"/>
		<polygon class="st6" points="3125.1,372.1 3157.2,389.8 3266.9,313.1 3229.3,306.2 3282.7,277.6 3350.5,176.7 		"/>
		<polygon class="st7" points="3350.5,176.7 3229.3,281.8 3306,259.1 3365.8,306.2 		"/>
		<polygon class="st4" points="3350.5,176.7 3450.2,297.9 3405.1,267.1 3365.8,306.2 		"/>
	</g>
	<g>
		<polygon class="st5" points="-361.7,405.5 -284.7,338.8 -225.2,372.1 0.2,176.7 70.4,261.7 116.8,318.1 116.8,467 -461.8,467 		
			"/>
		<polygon class="st2" points="-284.7,338.8 -232,467 -54.6,467 		"/>
		<polygon class="st6" points="-461.8,467 -340.5,408.5 -343.1,398.9 -305.2,387.1 -284.7,338.8 -361.7,405.5 		"/>
		<polygon class="st2" points="0.2,176.7 35.4,467 116.8,467 238.7,465.8 		"/>
		<polygon class="st6" points="-225.2,372.1 -193.1,389.8 -83.4,313.1 -121,306.2 -67.6,277.6 0.2,176.7 		"/>
		<polygon class="st7" points="0.2,176.7 -121,281.8 -44.3,259.1 15.5,306.2 		"/>
		<polygon class="st4" points="0.2,176.7 99.9,297.9 54.8,267.1 15.5,306.2 		"/>
		<polygon class="st7" points="-284.7,338.8 -329.5,377.6 -300.8,373.9 -264.8,388.6 		"/>
		<polygon class="st4" points="-284.7,338.8 -243.1,362.1 -258.5,363.7 -264.8,388.6 		"/>
	</g>
	<g>
		<polygon class="st2" points="742.3,318.3 984.1,116.2 1183.5,267.5 1333,374 1558.7,463.9 1059.5,463.9 		"/>
		<polygon class="st4" points="984.1,116.2 913.3,175.3 959.1,162.2 991.4,183.3 		"/>
		<polygon class="st3" points="984.1,116.2 991.4,183.3 1010,157.8 1038.9,157.8 		"/>
	</g>
	<polygon class="st5" points="941.7,342.5 1146,171.6 1314.6,299.6 1416.2,282.4 1631.7,465.6 1209.8,465.6 	"/>
	<polygon class="st8" points="1146,171.6 1185.4,302.9 1229.8,325 1216.1,351.6 1290.6,465.6 1314.6,299.6 	"/>
	<polygon class="st7" points="1146,171.6 1080.6,226.4 1119.3,215.7 1172.2,258.8 	"/>
	<polygon class="st4" points="1229.8,235.2 1187.1,223.7 1172.2,258.8 1146,171.6 	"/>
	<polygon class="st8" points="1416.2,282.4 1345.5,465.6 1631.7,465.6 	"/>
	<polygon class="st7" points="1314.6,299.6 1416.2,282.4 1390.9,347.1 1371.8,311.4 	"/>
	<polygon class="st4" points="1416.2,282.4 1465.3,324.2 1422.4,318.6 1390.9,347.1 	"/>
	<g>
		<polygon class="st9" points="707.2,258.2 816,178.2 932.6,278.9 997.5,245.3 1245.8,465.6 707.2,465.6 		"/>
		<polygon class="st10" points="997.5,245.3 1021.9,367.9 1054,392 1035.8,402.9 1097.3,465.6 1245.8,465.6 		"/>
		<polygon class="st10" points="816,178.2 992.2,329.4 937.6,342.2 1029.3,465.6 736.2,465.6 		"/>
		<polygon class="st7" points="816,178.2 741,233.3 778.5,233.3 788.1,278.5 		"/>
		<polygon class="st4" points="816,178.2 873.5,227.8 827.7,228.3 788.1,278.5 		"/>
		<polygon class="st7" points="997.5,245.3 932.6,278.9 954,296.6 978.7,289.2 1009.5,307.2 		"/>
		<polygon class="st4" points="997.5,245.3 1046.3,288.6 1021.9,282.4 1009.5,307.2 		"/>
	</g>
	<g>
		<polygon class="st9" points="2532.1,258.2 2641,178.2 2757.5,278.9 2822.5,245.3 3070.8,465.6 2532.1,465.6 2273.8,464.8 		"/>
		<polygon class="st10" points="2822.5,245.3 2846.8,367.9 2878.9,392 2860.8,402.9 2922.2,465.6 3070.8,465.6 		"/>
		<polygon class="st10" points="2641,178.2 2817.2,329.4 2762.5,342.2 2854.3,465.6 2561.1,465.6 		"/>
		<polygon class="st7" points="2641,178.2 2566,233.3 2603.5,233.3 2613.1,278.5 		"/>
		<polygon class="st4" points="2641,178.2 2698.4,227.8 2652.7,228.3 2613.1,278.5 		"/>
		<polygon class="st7" points="2822.5,245.3 2757.5,278.9 2778.9,296.6 2803.7,289.2 2834.4,307.2 		"/>
		<polygon class="st4" points="2822.5,245.3 2871.2,288.6 2846.8,282.4 2834.4,307.2 		"/>
	</g>
	<g>
		<polygon class="st9" points="707.3,258.2 816.1,178.2 932.7,278.9 997.6,245.3 1245.9,465.6 707.3,465.6 449,464.8 		"/>
		<polygon class="st10" points="997.6,245.3 1022,367.9 1054.1,392 1035.9,402.9 1097.4,465.6 1245.9,465.6 		"/>
		<polygon class="st10" points="816.1,178.2 992.3,329.4 937.7,342.2 1029.5,465.6 736.3,465.6 		"/>
		<polygon class="st7" points="816.1,178.2 741.2,233.3 778.6,233.3 788.2,278.5 		"/>
		<polygon class="st4" points="816.1,178.2 873.6,227.8 827.9,228.3 788.2,278.5 		"/>
		<polygon class="st7" points="997.6,245.3 932.7,278.9 954.1,296.6 978.8,289.2 1009.6,307.2 		"/>
		<polygon class="st4" points="997.6,245.3 1046.4,288.6 1022,282.4 1009.6,307.2 		"/>
	</g>
</g>
<g>
	<g id="hills_00000003079608493092096000000016877026008257309570_">
		<g id="hill_00000132788529735465162680000011421371923657952676_">
			<path class="st11" d="M887.7,544H0.3l0-189.1c0,0,57.9,2.4,110.8,58.4c51.5,54.5,130.4-1.2,160.4-13s51.7-26.5,81.8-14.1
				c30.1,12.4,79.2,69,110.5,33.6c49.3-55.8,73.3-101.6,117.3-67.4S684.7,459,802.5,357c39.3-34,139.2,32.3,139.2,102.7"/>
			<path class="st12" d="M542.7,342c0,0,2.1,33.7,7.9,45.1c5.7,11.4,15.9,15.1,13.3,38.1c-2.6,23,41.6,33.3,52.7,42.9
				c11.1,9.5-44.8,26.7-76.7,21.4c-31.9-5.3-123.2,20.4-110.8-8.2C478.1,368.2,542.7,342,542.7,342z M341.7,383.2
				c0,0,13.9,10.7,2.8,38.6s-2.3,66.1,24.5,76.4c26.8,10.3,34.7,55,34.7,55L197,553.3c0,0-64.6-115.4-47.9-118.6
				C231.8,419,311.5,372.9,341.7,383.2z M12.6,356.7c0,0,12.7,15.9,7,43.1C14,427,28,462.1,41.4,470.3s26.8,79,26.8,79l-68,0.3
				V353.9L12.6,356.7z"/>
		</g>
	</g>
	<g>
		<path class="st13" d="M598.3,358.7l-7.9,21.7c-0.6,1.6,0.6,3.2,2.2,3.3l0,0c4.8,1.3,9.8,1.5,14.7,0.6l0.2,0
			c1.7,0.1,2.9-1.6,2.4-3.2l-7.1-22.2C602.2,356.5,599.1,356.5,598.3,358.7z"/>
		<path class="st13" d="M539.1,369.3l-7.9,21.7c-0.6,1.6,0.6,3.2,2.2,3.3l0,0c4.8,1.3,9.8,1.5,14.7,0.6l0.2,0
			c1.7,0.1,2.9-1.6,2.4-3.2l-7.1-22.2C543,367.1,539.9,367.1,539.1,369.3z"/>
		<path class="st13" d="M541.8,423.8l-7.9,21.7c-0.6,1.6,0.6,3.2,2.2,3.3l0,0c4.8,1.3,9.8,1.5,14.7,0.6l0.2,0
			c1.7,0.1,2.9-1.6,2.4-3.2l-7.1-22.2C545.7,421.7,542.6,421.6,541.8,423.8z"/>
		<path class="st13" d="M574.5,395.6l-7.9,21.7c-0.6,1.6,0.6,3.2,2.2,3.3l0,0c4.8,1.3,9.8,1.5,14.7,0.6l0.2,0
			c1.7,0.1,2.9-1.6,2.4-3.2l-7.1-22.2C578.4,393.5,575.3,393.4,574.5,395.6z"/>
		<path class="st13" d="M499.4,415.6l-7.9,21.7c-0.6,1.6,0.6,3.2,2.2,3.3l0,0c4.8,1.3,9.8,1.5,14.7,0.6l0.2,0
			c1.7,0.1,2.9-1.6,2.4-3.2l-7.1-22.2C503.3,413.5,500.2,413.4,499.4,415.6z"/>
		<path class="st13" d="M499.4,363.7l-7.9,21.7c-0.6,1.6,0.6,3.2,2.2,3.3l0,0c4.8,1.3,9.8,1.5,14.7,0.6l0.2,0
			c1.7,0.1,2.9-1.6,2.4-3.2l-7.1-22.2C503.3,361.6,500.2,361.5,499.4,363.7z"/>
		<path class="st13" d="M608.2,400l-7.9,21.7c-0.6,1.6,0.6,3.2,2.2,3.3l0,0c4.8,1.3,9.8,1.5,14.7,0.6l0.2,0c1.7,0.1,2.9-1.6,2.4-3.2
			l-7.1-22.2C612.1,397.8,609,397.8,608.2,400z"/>
		<path class="st13" d="M656.9,408.2l-7.9,21.7c-0.6,1.6,0.6,3.2,2.2,3.3l0,0c4.8,1.3,9.8,1.5,14.7,0.6l0.2,0
			c1.7,0.1,2.9-1.6,2.4-3.2l-7.1-22.2C660.9,406.1,657.7,406,656.9,408.2z"/>
		<path class="st13" d="M686.5,441.5l-7.9,21.7c-0.6,1.6,0.6,3.2,2.2,3.3l0,0c4.8,1.3,9.8,1.5,14.7,0.6l0.2,0
			c1.7,0.1,2.9-1.6,2.4-3.2l-7.1-22.2C690.4,439.4,687.3,439.3,686.5,441.5z"/>
		<path class="st13" d="M708.8,407l-7.9,21.7c-0.6,1.6,0.6,3.2,2.2,3.3l0,0c4.8,1.3,9.8,1.5,14.7,0.6l0.2,0c1.7,0.1,2.9-1.6,2.4-3.2
			l-7.1-22.2C712.7,404.9,709.6,404.9,708.8,407z"/>
		<path class="st13" d="M761.3,426.2l-7.9,21.7c-0.6,1.6,0.6,3.2,2.2,3.3l0,0c4.8,1.3,9.8,1.5,14.7,0.6l0.2,0
			c1.7,0.1,2.9-1.6,2.4-3.2l-7.1-22.2C765.2,424.1,762.1,424,761.3,426.2z"/>
		<path class="st13" d="M432.1,428l-7.9,21.7c-0.6,1.6,0.6,3.2,2.2,3.3l0,0c4.8,1.3,9.8,1.5,14.7,0.6l0.2,0c1.7,0.1,2.9-1.6,2.4-3.2
			l-7.1-22.2C436,425.9,432.8,425.8,432.1,428z"/>
		<path class="st13" d="M399.1,406.3l-7.9,21.7c-0.6,1.6,0.6,3.2,2.2,3.3l0,0c4.8,1.3,9.8,1.5,14.7,0.6l0.2,0
			c1.7,0.1,2.9-1.6,2.4-3.2l-7.1-22.2C403,404.2,399.8,404.1,399.1,406.3z"/>
		<path class="st13" d="M282.6,387.6l-7.9,21.7c-0.6,1.6,0.6,3.2,2.2,3.3l0,0c4.8,1.3,9.8,1.5,14.7,0.6l0.2,0
			c1.7,0.1,2.9-1.6,2.4-3.2l-7.1-22.2C286.5,385.5,283.4,385.4,282.6,387.6z"/>
		<path class="st13" d="M362,441.5l-7.9,21.7c-0.6,1.6,0.6,3.2,2.2,3.3l0,0c4.8,1.3,9.8,1.5,14.7,0.6l0.2,0c1.7,0.1,2.9-1.6,2.4-3.2
			l-7.1-22.2C365.9,439.4,362.8,439.3,362,441.5z"/>
		<path class="st13" d="M391.9,474.4l-7.9,21.7c-0.6,1.6,0.6,3.2,2.2,3.3l0,0c4.8,1.3,9.8,1.5,14.7,0.6l0.2,0
			c1.7,0.1,2.9-1.6,2.4-3.2l-7.1-22.2C395.8,472.2,392.7,472.2,391.9,474.4z"/>
		<path class="st13" d="M348.5,395.7l-7.9,21.7c-0.6,1.6,0.6,3.2,2.2,3.3l0,0c4.8,1.3,9.8,1.5,14.7,0.6l0.2,0
			c1.7,0.1,2.9-1.6,2.4-3.2l-7.1-22.2C352.4,393.6,349.3,393.5,348.5,395.7z"/>
		<path class="st13" d="M325.2,447.5l-7.9,21.7c-0.6,1.6,0.6,3.2,2.2,3.3l0,0c4.8,1.3,9.8,1.5,14.7,0.6l0.2,0
			c1.7,0.1,2.9-1.6,2.4-3.2l-7.1-22.2C329.1,445.4,326,445.3,325.2,447.5z"/>
		<path class="st13" d="M325.2,416l-7.9,21.7c-0.6,1.6,0.6,3.2,2.2,3.3l0,0c4.8,1.3,9.8,1.5,14.7,0.6l0.2,0c1.7,0.1,2.9-1.6,2.4-3.2
			l-7.1-22.2C329.1,413.8,326,413.8,325.2,416z"/>
		<path class="st13" d="M270.4,428l-7.9,21.7c-0.6,1.6,0.6,3.2,2.2,3.3l0,0c4.8,1.3,9.8,1.5,14.7,0.6l0.2,0c1.7,0.1,2.9-1.6,2.4-3.2
			l-7.1-22.2C274.4,425.9,271.2,425.8,270.4,428z"/>
		<path class="st13" d="M225.4,417.5l-7.9,21.7c-0.6,1.6,0.6,3.2,2.2,3.3l0,0c4.8,1.3,9.8,1.5,14.7,0.6l0.2,0
			c1.7,0.1,2.9-1.6,2.4-3.2l-7.1-22.2C229.3,415.3,226.2,415.3,225.4,417.5z"/>
		<path class="st13" d="M126,415.3l-7.9,21.7c-0.6,1.6,0.6,3.2,2.2,3.3l0,0c4.8,1.3,9.8,1.5,14.7,0.6l0.2,0c1.7,0.1,2.9-1.6,2.4-3.2
			l-7.1-22.2C129.9,413.2,126.8,413.1,126,415.3z"/>
		<path class="st13" d="M98.1,447.5l-7.9,21.7c-0.6,1.6,0.6,3.2,2.2,3.3l0,0c4.8,1.3,9.8,1.5,14.7,0.6l0.2,0
			c1.7,0.1,2.9-1.6,2.4-3.2l-7.1-22.2C102,445.4,98.8,445.3,98.1,447.5z"/>
		<path class="st13" d="M93.6,383.3L85.8,405c-0.6,1.6,0.6,3.2,2.2,3.3l0,0c4.8,1.3,9.8,1.5,14.7,0.6l0.2,0c1.7,0.1,2.9-1.6,2.4-3.2
			l-7.1-22.2C97.6,381.2,94.4,381.1,93.6,383.3z"/>
		<path class="st13" d="M65.9,412.4l-7.9,21.7c-0.6,1.6,0.6,3.2,2.2,3.3l0,0c4.8,1.3,9.8,1.5,14.7,0.6l0.2,0
			c1.7,0.1,2.9-1.6,2.4-3.2l-7.1-22.2C69.8,410.2,66.7,410.2,65.9,412.4z"/>
		<path class="st13" d="M44.9,395.7l-7.9,21.7c-0.6,1.6,0.6,3.2,2.2,3.3l0,0c4.8,1.3,9.8,1.5,14.7,0.6l0.2,0
			c1.7,0.1,2.9-1.6,2.4-3.2l-7.1-22.2C48.8,393.6,45.7,393.5,44.9,395.7z"/>
		<path class="st13" d="M15.2,373.7l-7.9,21.7c-0.6,1.6,0.6,3.2,2.2,3.3l0,0c4.8,1.3,9.8,1.5,14.7,0.6l0.2,0
			c1.7,0.1,2.9-1.6,2.4-3.2l-7.1-22.2C19.2,371.6,16,371.6,15.2,373.7z"/>
		<path class="st13" d="M193.2,441.5l-7.9,21.7c-0.6,1.6,0.6,3.2,2.2,3.3l0,0c4.8,1.3,9.8,1.5,14.7,0.6l0.2,0
			c1.7,0.1,2.9-1.6,2.4-3.2l-7.1-22.2C197.1,439.4,194,439.3,193.2,441.5z"/>
		<path class="st13" d="M256.7,481l-7.9,21.7c-0.6,1.6,0.6,3.2,2.2,3.3l0,0c4.8,1.3,9.8,1.5,14.7,0.6l0.2,0c1.7,0.1,2.9-1.6,2.4-3.2
			l-7.1-22.2C260.6,478.9,257.5,478.8,256.7,481z"/>
	</g>
</g>
<g>
	<g id="hills_00000009571832534646304940000008574916246807093162_">
		<g id="hill_00000114792051248999473820000003659845794964751759_">
			<g>
				<path class="st11" d="M2482.2,526.4c-15.6-9.7-92.2-106,62.7-169.5c40.7-16.7,91.3-0.2,104.5,7.8s117.1,71.2,135.1,72.2
					c18,1,59.4-18.5,75-11.6s48.7,43.1,94.5-22c45.7-65.1,60.6-92.9,112.2-42.6c51.6,50.4,70.8,53.5,108.6,25.7s72.7-2,72.7-2
					s33.7-30.7,103.2-30.7l-71.8,190.2h-728.9"/>
			</g>
			<path class="st12" d="M2622.1,354.6c0,0,10.6,51,26.7,63.4c16.1,12.4,33.4,9.4,38.9,17.8s5,39.5,20,54.4
				c15,14.9,42.5,64.9,42.5,64.9l-261.6-2.5c0,0-62.9-104.2-39.2-144.8C2505.2,333,2572.9,343.9,2622.1,354.6z M3008.5,337.9
				c0,0-4.4,37.9,11.6,58.6s51.3,55.6,72.2,59.2s56.8,40.1,56.7,71.9s-1.7,22.1-1.7,22.1l-364,0.1c0,0,99-94.9,132-130.8
				C2944.1,387.6,3008.5,337.9,3008.5,337.9z M3246.8,385c0,0-17.3,11.3-18.3,38.9c-0.6,15.4,36,59.1,27.9,69.4
				s-58.7,25.2-36.9,42.3c21.8,17.1,131.1-6.2,131.1-6.2V353.7C3350.6,353.7,3288.4,351.4,3246.8,385z"/>
		</g>
	</g>
	<g>
		<path class="st13" d="M2561.2,406.9l-7.9,21.7c-0.6,1.6,0.6,3.2,2.2,3.3l0,0c4.8,1.3,9.8,1.5,14.7,0.6l0.2,0
			c1.7,0.1,2.9-1.6,2.4-3.2l-7.1-22.2C2565.1,404.8,2562,404.7,2561.2,406.9z"/>
		<path class="st13" d="M2513.3,440l-7.9,21.7c-0.6,1.6,0.6,3.2,2.2,3.3l0,0c4.8,1.3,9.8,1.5,14.7,0.6l0.2,0
			c1.7,0.1,2.9-1.6,2.4-3.2l-7.1-22.2C2517.2,437.8,2514.1,437.8,2513.3,440z"/>
		<path class="st13" d="M2651.3,366.4l-7.9,21.7c-0.6,1.6,0.6,3.2,2.2,3.3l0,0c4.8,1.3,9.8,1.5,14.7,0.6l0.2,0
			c1.7,0.1,2.9-1.6,2.4-3.2l-7.1-22.2C2655.2,364.2,2652.1,364.2,2651.3,366.4z"/>
		<path class="st13" d="M2620.2,403.6l-7.9,21.7c-0.6,1.6,0.6,3.2,2.2,3.3l0,0c4.8,1.3,9.8,1.5,14.7,0.6l0.2,0
			c1.7,0.1,2.9-1.6,2.4-3.2l-7.1-22.2C2624.1,401.5,2621,401.4,2620.2,403.6z"/>
		<path class="st13" d="M2591.3,454.8l-7.9,21.7c-0.6,1.6,0.6,3.2,2.2,3.3l0,0c4.8,1.3,9.8,1.5,14.7,0.6l0.2,0
			c1.7,0.1,2.9-1.6,2.4-3.2l-7.1-22.2C2595.2,452.7,2592.1,452.6,2591.3,454.8z"/>
		<path class="st13" d="M2661.2,415.9l-7.9,21.7c-0.6,1.6,0.6,3.2,2.2,3.3l0,0c4.8,1.3,9.8,1.5,14.7,0.6l0.2,0
			c1.7,0.1,2.9-1.6,2.4-3.2l-7.1-22.2C2665.1,413.8,2662,413.7,2661.2,415.9z"/>
		<path class="st13" d="M2581.4,340.2l-7.9,21.7c-0.6,1.6,0.6,3.2,2.2,3.3l0,0c4.8,1.3,9.8,1.5,14.7,0.6l0.2,0
			c1.7,0.1,2.9-1.6,2.4-3.2l-7.1-22.2C2585.3,338,2582.2,338,2581.4,340.2z"/>
		<path class="st13" d="M2731.3,427.9l-7.9,21.7c-0.6,1.6,0.6,3.2,2.2,3.3l0,0c4.8,1.3,9.8,1.5,14.7,0.6l0.2,0
			c1.7,0.1,2.9-1.6,2.4-3.2l-7.1-22.2C2735.2,425.8,2732.1,425.8,2731.3,427.9z"/>
		<path class="st13" d="M2711.5,374.9l-7.9,21.7c-0.6,1.6,0.6,3.2,2.2,3.3l0,0c4.8,1.3,9.8,1.5,14.7,0.6l0.2,0
			c1.7,0.1,2.9-1.6,2.4-3.2l-7.1-22.2C2715.4,372.8,2712.3,372.7,2711.5,374.9z"/>
		<path class="st13" d="M2909.3,436.3l-7.9,21.7c-0.6,1.6,0.6,3.2,2.2,3.3l0,0c4.8,1.3,9.8,1.5,14.7,0.6l0.2,0
			c1.7,0.1,2.9-1.6,2.4-3.2l-7.1-22.2C2913.2,434.1,2910.1,434.1,2909.3,436.3z"/>
		<path class="st13" d="M2954.4,460.6l-7.9,21.7c-0.6,1.6,0.6,3.2,2.2,3.3l0,0c4.8,1.3,9.8,1.5,14.7,0.6l0.2,0
			c1.7,0.1,2.9-1.6,2.4-3.2l-7.1-22.2C2958.3,458.5,2955.2,458.4,2954.4,460.6z"/>
		<path class="st13" d="M2991.6,361l-7.9,21.7c-0.6,1.6,0.6,3.2,2.2,3.3l0,0c4.8,1.3,9.8,1.5,14.7,0.6l0.2,0
			c1.7,0.1,2.9-1.6,2.4-3.2l-7.1-22.2C2995.5,358.9,2992.4,358.9,2991.6,361z"/>
		<path class="st13" d="M2838,426.1l-7.9,21.7c-0.6,1.6,0.6,3.2,2.2,3.3l0,0c4.8,1.3,9.8,1.5,14.7,0.6l0.2,0
			c1.7,0.1,2.9-1.6,2.4-3.2l-7.1-22.2C2842,424,2838.8,423.9,2838,426.1z"/>
		<path class="st13" d="M2954.4,401.9l-7.9,21.7c-0.6,1.6,0.6,3.2,2.2,3.3l0,0c4.8,1.3,9.8,1.5,14.7,0.6l0.2,0
			c1.7,0.1,2.9-1.6,2.4-3.2L2959,402C2958.3,399.8,2955.2,399.7,2954.4,401.9z"/>
		<path class="st13" d="M2804,418.9l-7.9,21.7c-0.6,1.6,0.6,3.2,2.2,3.3l0,0c4.8,1.3,9.8,1.5,14.7,0.6l0.2,0
			c1.7,0.1,2.9-1.6,2.4-3.2l-7.1-22.2C2807.9,416.8,2804.8,416.7,2804,418.9z"/>
		<path class="st13" d="M3049.6,387.1l-7.9,21.7c-0.6,1.6,0.6,3.2,2.2,3.3l0,0c4.8,1.3,9.8,1.5,14.7,0.6l0.2,0
			c1.7,0.1,2.9-1.6,2.4-3.2l-7.1-22.2C3053.5,384.9,3050.4,384.9,3049.6,387.1z"/>
		<path class="st13" d="M3013.5,418.9l-7.9,21.7c-0.6,1.6,0.6,3.2,2.2,3.3l0,0c4.8,1.3,9.8,1.5,14.7,0.6l0.2,0
			c1.7,0.1,2.9-1.6,2.4-3.2l-7.1-22.2C3017.4,416.8,3014.3,416.7,3013.5,418.9z"/>
		<path class="st13" d="M3082.5,406.9l-7.9,21.7c-0.6,1.6,0.6,3.2,2.2,3.3l0,0c4.8,1.3,9.8,1.5,14.7,0.6l0.2,0
			c1.7,0.1,2.9-1.6,2.4-3.2l-7.1-22.2C3086.4,404.8,3083.3,404.7,3082.5,406.9z"/>
		<path class="st13" d="M3115.5,400.9l-7.9,21.7c-0.6,1.6,0.6,3.2,2.2,3.3l0,0c4.8,1.3,9.8,1.5,14.7,0.6l0.2,0
			c1.7,0.1,2.9-1.6,2.4-3.2l-7.1-22.2C3119.4,398.8,3116.3,398.7,3115.5,400.9z"/>
		<path class="st13" d="M3290.4,354.6l-7.9,21.7c-0.6,1.6,0.6,3.2,2.2,3.3l0,0c4.8,1.3,9.8,1.5,14.7,0.6l0.2,0
			c1.7,0.1,2.9-1.6,2.4-3.2l-7.1-22.2C3294.3,352.5,3291.2,352.5,3290.4,354.6z"/>
		<path class="st13" d="M3162.1,414.8l-7.9,21.7c-0.6,1.6,0.6,3.2,2.2,3.3l0,0c4.8,1.3,9.8,1.5,14.7,0.6l0.2,0
			c1.7,0.1,2.9-1.6,2.4-3.2l-7.1-22.2C3166.1,412.7,3162.9,412.6,3162.1,414.8z"/>
		<path class="st13" d="M3192.7,369.8l-7.9,21.7c-0.6,1.6,0.6,3.2,2.2,3.3l0,0c4.8,1.3,9.8,1.5,14.7,0.6l0.2,0
			c1.7,0.1,2.9-1.6,2.4-3.2l-7.1-22.2C3196.6,367.7,3193.5,367.6,3192.7,369.8z"/>
		<path class="st13" d="M3229.4,417.5l-7.9,21.7c-0.6,1.6,0.6,3.2,2.2,3.3l0,0c4.8,1.3,9.8,1.5,14.7,0.6l0.2,0
			c1.7,0.1,2.9-1.6,2.4-3.2l-7.1-22.2C3233.3,415.3,3230.2,415.3,3229.4,417.5z"/>
		<path class="st13" d="M3273.1,443.7l-7.9,21.7c-0.6,1.6,0.6,3.2,2.2,3.3l0,0c4.8,1.3,9.8,1.5,14.7,0.6l0.2,0
			c1.7,0.1,2.9-1.6,2.4-3.2l-7.1-22.2C3277,441.5,3273.9,441.5,3273.1,443.7z"/>
		<path class="st13" d="M3263.2,387.1l-7.9,21.7c-0.6,1.6,0.6,3.2,2.2,3.3l0,0c4.8,1.3,9.8,1.5,14.7,0.6l0.2,0
			c1.7,0.1,2.9-1.6,2.4-3.2l-7.1-22.2C3267.1,384.9,3264,384.9,3263.2,387.1z"/>
		<path class="st13" d="M3310.2,366.4l-7.9,21.7c-0.6,1.6,0.6,3.2,2.2,3.3l0,0c4.8,1.3,9.8,1.5,14.7,0.6l0.2,0
			c1.7,0.1,2.9-1.6,2.4-3.2l-7.1-22.2C3314.1,364.2,3311,364.2,3310.2,366.4z"/>
		<path class="st13" d="M3325.2,412.2l-7.9,21.7c-0.6,1.6,0.6,3.2,2.2,3.3l0,0c4.8,1.3,9.8,1.5,14.7,0.6l0.2,0
			c1.7,0.1,2.9-1.6,2.4-3.2l-7.1-22.2C3329.1,410.1,3325.9,410.1,3325.2,412.2z"/>
		<path class="st13" d="M3035.4,326.3l-7.9,21.7c-0.6,1.6,0.6,3.2,2.2,3.3l0,0c4.8,1.3,9.8,1.5,14.7,0.6l0.2,0
			c1.7,0.1,2.9-1.6,2.4-3.2l-7.1-22.2C3039.3,324.2,3036.2,324.1,3035.4,326.3z"/>
	</g>
</g>
<g>
	<g id="hills">
		<g id="hill">
			<path class="st11" d="M810.2,355c0,0,57.9,2.4,110.8,58.4c51.5,54.5,130.4-1.2,160.4-13c30.1-11.8,51.7-26.5,81.8-14.1
				c30.1,12.4,79.2,69,110.5,33.6c49.3-55.8,73.3-101.6,117.3-67.4c44,34.2,104.6,83,153.1,64.3c48.5-18.7,93.7,67.8,160.8,109.8
				c-15.6-9.7-13.8-63,141.1-126.4c40.7-16.7,63.6-42.4,76.8-34.4c13.2,8,66.3,70.4,84.3,71.3c18,1,59.4-18.5,75-11.6
				c15.6,6.9,48.7,43.1,94.5-22s60.6-92.9,112.2-42.6c51.6,50.4,70.8,53.5,108.6,25.7c37.8-27.8,72.7-2,72.7-2s33.7-30.7,103.2-30.7
				L2501.6,544H810.2L810.2,355z"/>
			<path class="st12" d="M1907.8,367.2c0,0-29,19.1-12.9,31.5c16.1,12.4,33.4,9.4,38.9,17.8c5.5,8.4,5,39.5,20,54.4
				c15,14.9,19.2,84.3,19.2,84.3l-261.6-2.5c0,0-114-59.8-90.3-100.3C1669.7,498.8,1861.4,376.1,1907.8,367.2z M1352.7,342
				c0,0,2.1,33.7,7.9,45.1s15.9,15.1,13.3,38.1c-2.6,23,41.6,33.3,52.7,42.9c11.1,9.5-44.8,26.7-76.7,21.4
				c-31.9-5.3-123.2,20.4-110.8-8.2C1288,368.2,1352.7,342,1352.7,342z M1151.7,383.2c0,0,13.9,10.7,2.8,38.6s-2.3,66.1,24.5,76.4
				c26.8,10.3,34.7,55,34.7,55l-206.7,0.1c0,0-64.6-115.4-47.9-118.6C1041.8,419,1121.5,372.9,1151.7,383.2z M2231.3,338.1
				c0,0-4.4,37.9,11.6,58.6c16,20.8,51.3,55.6,72.2,59.2c20.8,3.6,56.8,40.1,56.7,71.9c-0.1,31.8-1.7,22.1-1.7,22.1l-364,0.1
				c0,0,99-94.9,132-130.8C2166.9,387.8,2231.3,338.1,2231.3,338.1z M2469.6,385.2c0,0-17.3,11.3-18.3,38.9
				c-0.6,15.4,36,59.1,27.9,69.4c-8.1,10.2-58.7,25.2-36.9,42.3s131.1-6.2,131.1-6.2V353.9C2573.4,353.9,2511.2,351.5,2469.6,385.2z
				"/>
		</g>
		<path class="st12" d="M816.8,349.6c0,0,2.1,33.7,7.9,45.1s15.9,15.1,13.3,38.1c-2.6,23,56.4,69.9,67.6,79.4
			c11.1,9.5-63.3,22.2-95.3,16.9c-31.9-5.3-130.6-9.9-118.2-38.4C741,377.6,816.8,349.6,816.8,349.6z"/>
	</g>
	<g>
		<path class="st13" d="M1408.3,358.7l-7.9,21.7c-0.6,1.6,0.6,3.2,2.2,3.3l0,0c4.8,1.3,9.8,1.5,14.7,0.6l0.2,0
			c1.7,0.1,2.9-1.6,2.4-3.2l-7.1-22.2C1412.2,356.5,1409,356.5,1408.3,358.7z"/>
		<path class="st13" d="M1349.1,369.3l-7.9,21.7c-0.6,1.6,0.6,3.2,2.2,3.3l0,0c4.8,1.3,9.8,1.5,14.7,0.6l0.2,0
			c1.7,0.1,2.9-1.6,2.4-3.2l-7.1-22.2C1353,367.1,1349.9,367.1,1349.1,369.3z"/>
		<path class="st13" d="M1351.8,423.8l-7.9,21.7c-0.6,1.6,0.6,3.2,2.2,3.3l0,0c4.8,1.3,9.8,1.5,14.7,0.6l0.2,0
			c1.7,0.1,2.9-1.6,2.4-3.2l-7.1-22.2C1355.7,421.7,1352.6,421.6,1351.8,423.8z"/>
		<path class="st13" d="M1384.5,395.6l-7.9,21.7c-0.6,1.6,0.6,3.2,2.2,3.3l0,0c4.8,1.3,9.8,1.5,14.7,0.6l0.2,0
			c1.7,0.1,2.9-1.6,2.4-3.2l-7.1-22.2C1388.4,393.5,1385.3,393.4,1384.5,395.6z"/>
		<path class="st13" d="M1309.4,415.6l-7.9,21.7c-0.6,1.6,0.6,3.2,2.2,3.3l0,0c4.8,1.3,9.8,1.5,14.7,0.6l0.2,0
			c1.7,0.1,2.9-1.6,2.4-3.2l-7.1-22.2C1313.3,413.5,1310.2,413.4,1309.4,415.6z"/>
		<path class="st13" d="M1418.2,400l-7.9,21.7c-0.6,1.6,0.6,3.2,2.2,3.3l0,0c4.8,1.3,9.8,1.5,14.7,0.6l0.2,0
			c1.7,0.1,2.9-1.6,2.4-3.2l-7.1-22.2C1422.1,397.8,1418.9,397.8,1418.2,400z"/>
		<path class="st13" d="M1466.9,408.2l-7.9,21.7c-0.6,1.6,0.6,3.2,2.2,3.3l0,0c4.8,1.3,9.8,1.5,14.7,0.6l0.2,0
			c1.7,0.1,2.9-1.6,2.4-3.2l-7.1-22.2C1470.8,406.1,1467.7,406,1466.9,408.2z"/>
		<path class="st13" d="M1518.8,407l-7.9,21.7c-0.6,1.6,0.6,3.2,2.2,3.3l0,0c4.8,1.3,9.8,1.5,14.7,0.6l0.2,0
			c1.7,0.1,2.9-1.6,2.4-3.2l-7.1-22.2C1522.7,404.9,1519.6,404.9,1518.8,407z"/>
		<path class="st13" d="M1571.3,426.2l-7.9,21.7c-0.6,1.6,0.6,3.2,2.2,3.3l0,0c4.8,1.3,9.8,1.5,14.7,0.6l0.2,0
			c1.7,0.1,2.9-1.6,2.4-3.2l-7.1-22.2C1575.2,424.1,1572,424,1571.3,426.2z"/>
		<path class="st13" d="M1784,407l-7.9,21.7c-0.6,1.6,0.6,3.2,2.2,3.3l0,0c4.8,1.3,9.8,1.5,14.7,0.6l0.2,0c1.7,0.1,2.9-1.6,2.4-3.2
			l-7.1-22.2C1787.9,404.9,1784.8,404.9,1784,407z"/>
		<path class="st13" d="M1745.5,427.3l-7.9,21.7c-0.6,1.6,0.6,3.2,2.2,3.3l0,0c4.8,1.3,9.8,1.5,14.7,0.6l0.2,0
			c1.7,0.1,2.9-1.6,2.4-3.2l-7.1-22.2C1749.4,425.2,1746.3,425.1,1745.5,427.3z"/>
		<path class="st13" d="M2004.2,482.8l-7.9,21.7c-0.6,1.6,0.6,3.2,2.2,3.3l0,0c4.8,1.3,9.8,1.5,14.7,0.6l0.2,0
			c1.7,0.1,2.9-1.6,2.4-3.2l-7.1-22.2C2008.1,480.7,2004.9,480.6,2004.2,482.8z"/>
		<path class="st13" d="M1874.1,366.5l-7.9,21.7c-0.6,1.6,0.6,3.2,2.2,3.3l0,0c4.8,1.3,9.8,1.5,14.7,0.6l0.2,0
			c1.7,0.1,2.9-1.6,2.4-3.2l-7.1-22.2C1878.1,364.3,1874.9,364.3,1874.1,366.5z"/>
		<path class="st13" d="M1843,403.7l-7.9,21.7c-0.6,1.6,0.6,3.2,2.2,3.3l0,0c4.8,1.3,9.8,1.5,14.7,0.6l0.2,0
			c1.7,0.1,2.9-1.6,2.4-3.2l-7.1-22.2C1846.9,401.6,1843.8,401.5,1843,403.7z"/>
		<path class="st13" d="M1884,416.1l-7.9,21.7c-0.6,1.6,0.6,3.2,2.2,3.3l0,0c4.8,1.3,9.8,1.5,14.7,0.6l0.2,0
			c1.7,0.1,2.9-1.6,2.4-3.2l-7.1-22.2C1887.9,413.9,1884.8,413.9,1884,416.1z"/>
		<path class="st13" d="M1954.1,428.1l-7.9,21.7c-0.6,1.6,0.6,3.2,2.2,3.3l0,0c4.8,1.3,9.8,1.5,14.7,0.6l0.2,0
			c1.7,0.1,2.9-1.6,2.4-3.2l-7.1-22.2C1958,425.9,1954.9,425.9,1954.1,428.1z"/>
		<path class="st13" d="M1934.3,375l-7.9,21.7c-0.6,1.6,0.6,3.2,2.2,3.3l0,0c4.8,1.3,9.8,1.5,14.7,0.6l0.2,0
			c1.7,0.1,2.9-1.6,2.4-3.2l-7.1-22.2C1938.2,372.9,1935.1,372.8,1934.3,375z"/>
		<path class="st13" d="M2132.1,436.4l-7.9,21.7c-0.6,1.6,0.6,3.2,2.2,3.3l0,0c4.8,1.3,9.8,1.5,14.7,0.6l0.2,0
			c1.7,0.1,2.9-1.6,2.4-3.2l-7.1-22.2C2136,434.3,2132.9,434.2,2132.1,436.4z"/>
		<path class="st13" d="M2214.4,361.2l-7.9,21.7c-0.6,1.6,0.6,3.2,2.2,3.3l0,0c4.8,1.3,9.8,1.5,14.7,0.6l0.2,0
			c1.7,0.1,2.9-1.6,2.4-3.2l-7.1-22.2C2218.3,359,2215.2,359,2214.4,361.2z"/>
		<path class="st13" d="M2060.9,426.2l-7.9,21.7c-0.6,1.6,0.6,3.2,2.2,3.3l0,0c4.8,1.3,9.8,1.5,14.7,0.6l0.2,0
			c1.7,0.1,2.9-1.6,2.4-3.2l-7.1-22.2C2064.8,424.1,2061.6,424,2060.9,426.2z"/>
		<path class="st13" d="M2177.2,402l-7.9,21.7c-0.6,1.6,0.6,3.2,2.2,3.3l0,0c4.8,1.3,9.8,1.5,14.7,0.6l0.2,0
			c1.7,0.1,2.9-1.6,2.4-3.2l-7.1-22.2C2181.1,399.9,2178,399.9,2177.2,402z"/>
		<path class="st13" d="M2272.4,387.2l-7.9,21.7c-0.6,1.6,0.6,3.2,2.2,3.3l0,0c4.8,1.3,9.8,1.5,14.7,0.6l0.2,0
			c1.7,0.1,2.9-1.6,2.4-3.2l-7.1-22.2C2276.3,385.1,2273.2,385,2272.4,387.2z"/>
		<path class="st13" d="M2236.3,419.1l-7.9,21.7c-0.6,1.6,0.6,3.2,2.2,3.3l0,0c4.8,1.3,9.8,1.5,14.7,0.6l0.2,0
			c1.7,0.1,2.9-1.6,2.4-3.2l-7.1-22.2C2240.2,416.9,2237.1,416.9,2236.3,419.1z"/>
		<path class="st13" d="M2305.3,407l-7.9,21.7c-0.6,1.6,0.6,3.2,2.2,3.3l0,0c4.8,1.3,9.8,1.5,14.7,0.6l0.2,0
			c1.7,0.1,2.9-1.6,2.4-3.2l-7.1-22.2C2309.2,404.9,2306.1,404.9,2305.3,407z"/>
		<path class="st13" d="M2338.3,401l-7.9,21.7c-0.6,1.6,0.6,3.2,2.2,3.3l0,0c4.8,1.3,9.8,1.5,14.7,0.6l0.2,0
			c1.7,0.1,2.9-1.6,2.4-3.2l-7.1-22.2C2342.2,398.9,2339.1,398.9,2338.3,401z"/>
		<path class="st13" d="M2513.2,354.8l-7.9,21.7c-0.6,1.6,0.6,3.2,2.2,3.3l0,0c4.8,1.3,9.8,1.5,14.7,0.6l0.2,0
			c1.7,0.1,2.9-1.6,2.4-3.2l-7.1-22.2C2517.1,352.6,2514,352.6,2513.2,354.8z"/>
		<path class="st13" d="M2385,414.9l-7.9,21.7c-0.6,1.6,0.6,3.2,2.2,3.3l0,0c4.8,1.3,9.8,1.5,14.7,0.6l0.2,0
			c1.7,0.1,2.9-1.6,2.4-3.2l-7.1-22.2C2388.9,412.8,2385.7,412.7,2385,414.9z"/>
		<path class="st13" d="M2415.5,369.9l-7.9,21.7c-0.6,1.6,0.6,3.2,2.2,3.3l0,0c4.8,1.3,9.8,1.5,14.7,0.6l0.2,0
			c1.7,0.1,2.9-1.6,2.4-3.2l-7.1-22.2C2419.4,367.8,2416.3,367.7,2415.5,369.9z"/>
		<path class="st13" d="M2452.2,417.6l-7.9,21.7c-0.6,1.6,0.6,3.2,2.2,3.3l0,0c4.8,1.3,9.8,1.5,14.7,0.6l0.2,0
			c1.7,0.1,2.9-1.6,2.4-3.2l-7.1-22.2C2456.1,415.4,2453,415.4,2452.2,417.6z"/>
		<path class="st13" d="M2511,460.6l-7.9,21.7c-0.6,1.6,0.6,3.2,2.2,3.3l0,0c4.8,1.3,9.8,1.5,14.7,0.6l0.2,0
			c1.7,0.1,2.9-1.6,2.4-3.2l-7.1-22.2C2514.9,458.5,2511.8,458.4,2511,460.6z"/>
		<path class="st13" d="M2486,387.2l-7.9,21.7c-0.6,1.6,0.6,3.2,2.2,3.3l0,0c4.8,1.3,9.8,1.5,14.7,0.6l0.2,0
			c1.7,0.1,2.9-1.6,2.4-3.2l-7.1-22.2C2489.9,385.1,2486.8,385,2486,387.2z"/>
		<path class="st13" d="M2533,366.5l-7.9,21.7c-0.6,1.6,0.6,3.2,2.2,3.3l0,0c4.8,1.3,9.8,1.5,14.7,0.6l0.2,0
			c1.7,0.1,2.9-1.6,2.4-3.2l-7.1-22.2C2536.9,364.3,2533.8,364.3,2533,366.5z"/>
		<path class="st13" d="M2548,412.4l-7.9,21.7c-0.6,1.6,0.6,3.2,2.2,3.3l0,0c4.8,1.3,9.8,1.5,14.7,0.6l0.2,0
			c1.7,0.1,2.9-1.6,2.4-3.2l-7.1-22.2C2551.9,410.2,2548.8,410.2,2548,412.4z"/>
		<path class="st13" d="M2258.2,326.4l-7.9,21.7c-0.6,1.6,0.6,3.2,2.2,3.3l0,0c4.8,1.3,9.8,1.5,14.7,0.6l0.2,0
			c1.7,0.1,2.9-1.6,2.4-3.2l-7.1-22.2C2262.1,324.3,2259,324.2,2258.2,326.4z"/>
		<path class="st13" d="M1266.6,448.9l-7.9,21.7c-0.6,1.6,0.6,3.2,2.2,3.3l0,0c4.8,1.3,9.8,1.5,14.7,0.6l0.2,0
			c1.7,0.1,2.9-1.6,2.4-3.2l-7.1-22.2C1270.5,446.8,1267.4,446.8,1266.6,448.9z"/>
		<path class="st13" d="M1209,406.3l-7.9,21.7c-0.6,1.6,0.6,3.2,2.2,3.3l0,0c4.8,1.3,9.8,1.5,14.7,0.6l0.2,0
			c1.7,0.1,2.9-1.6,2.4-3.2l-7.1-22.2C1213,404.2,1209.8,404.1,1209,406.3z"/>
		<path class="st13" d="M1092.6,387.6l-7.9,21.7c-0.6,1.6,0.6,3.2,2.2,3.3l0,0c4.8,1.3,9.8,1.5,14.7,0.6l0.2,0
			c1.7,0.1,2.9-1.6,2.4-3.2l-7.1-22.2C1096.5,385.5,1093.4,385.4,1092.6,387.6z"/>
		<path class="st13" d="M1172,441.5l-7.9,21.7c-0.6,1.6,0.6,3.2,2.2,3.3l0,0c4.8,1.3,9.8,1.5,14.7,0.6l0.2,0
			c1.7,0.1,2.9-1.6,2.4-3.2l-7.1-22.2C1175.9,439.4,1172.8,439.3,1172,441.5z"/>
		<path class="st13" d="M1158.5,395.7l-7.9,21.7c-0.6,1.6,0.6,3.2,2.2,3.3l0,0c4.8,1.3,9.8,1.5,14.7,0.6l0.2,0
			c1.7,0.1,2.9-1.6,2.4-3.2l-7.1-22.2C1162.4,393.6,1159.3,393.5,1158.5,395.7z"/>
		<path class="st13" d="M1135.2,447.5l-7.9,21.7c-0.6,1.6,0.6,3.2,2.2,3.3l0,0c4.8,1.3,9.8,1.5,14.7,0.6l0.2,0
			c1.7,0.1,2.9-1.6,2.4-3.2l-7.1-22.2C1139.1,445.4,1136,445.3,1135.2,447.5z"/>
		<path class="st13" d="M1135.2,416l-7.9,21.7c-0.6,1.6,0.6,3.2,2.2,3.3l0,0c4.8,1.3,9.8,1.5,14.7,0.6l0.2,0
			c1.7,0.1,2.9-1.6,2.4-3.2l-7.1-22.2C1139.1,413.8,1136,413.8,1135.2,416z"/>
		<path class="st13" d="M1080.4,428l-7.9,21.7c-0.6,1.6,0.6,3.2,2.2,3.3l0,0c4.8,1.3,9.8,1.5,14.7,0.6l0.2,0
			c1.7,0.1,2.9-1.6,2.4-3.2l-7.1-22.2C1084.3,425.9,1081.2,425.8,1080.4,428z"/>
		<path class="st13" d="M1035.4,417.5l-7.9,21.7c-0.6,1.6,0.6,3.2,2.2,3.3l0,0c4.8,1.3,9.8,1.5,14.7,0.6l0.2,0
			c1.7,0.1,2.9-1.6,2.4-3.2l-7.1-22.2C1039.3,415.3,1036.2,415.3,1035.4,417.5z"/>
		<path class="st13" d="M936,415.3l-7.9,21.7c-0.6,1.6,0.6,3.2,2.2,3.3l0,0c4.8,1.3,9.8,1.5,14.7,0.6l0.2,0c1.7,0.1,2.9-1.6,2.4-3.2
			l-7.1-22.2C939.9,413.2,936.8,413.1,936,415.3z"/>
		<path class="st13" d="M768.9,441.5l-7.9,21.7c-0.6,1.6,0.6,3.2,2.2,3.3l0,0c4.8,1.3,9.8,1.5,14.7,0.6l0.2,0
			c1.7,0.1,2.9-1.6,2.4-3.2l-7.1-22.2C772.8,439.4,769.7,439.3,768.9,441.5z"/>
		<path class="st13" d="M903.6,383.3l-7.9,21.7c-0.6,1.6,0.6,3.2,2.2,3.3l0,0c4.8,1.3,9.8,1.5,14.7,0.6l0.2,0
			c1.7,0.1,2.9-1.6,2.4-3.2l-7.1-22.2C907.5,381.2,904.4,381.1,903.6,383.3z"/>
		<path class="st13" d="M875.9,412.4l-7.9,21.7c-0.6,1.6,0.6,3.2,2.2,3.3l0,0c4.8,1.3,9.8,1.5,14.7,0.6l0.2,0
			c1.7,0.1,2.9-1.6,2.4-3.2l-7.1-22.2C879.8,410.2,876.7,410.2,875.9,412.4z"/>
		<path class="st13" d="M845.6,467.2l-7.9,21.7c-0.6,1.6,0.6,3.2,2.2,3.3l0,0c4.8,1.3,9.8,1.5,14.7,0.6l0.2,0
			c1.7,0.1,2.9-1.6,2.4-3.2l-7.1-22.2C849.5,465,846.4,465,845.6,467.2z"/>
		<path class="st13" d="M854.9,395.7l-7.9,21.7c-0.6,1.6,0.6,3.2,2.2,3.3l0,0c4.8,1.3,9.8,1.5,14.7,0.6l0.2,0
			c1.7,0.1,2.9-1.6,2.4-3.2l-7.1-22.2C858.8,393.6,855.7,393.5,854.9,395.7z"/>
		<path class="st13" d="M825.2,373.7l-7.9,21.7c-0.6,1.6,0.6,3.2,2.2,3.3l0,0c4.8,1.3,9.8,1.5,14.7,0.6l0.2,0
			c1.7,0.1,2.9-1.6,2.4-3.2l-7.1-22.2C829.1,371.6,826,371.6,825.2,373.7z"/>
		<path class="st13" d="M771.2,369.5l-7.9,21.7c-0.6,1.6,0.6,3.2,2.2,3.3l0,0c4.8,1.3,9.8,1.5,14.7,0.6l0.2,0
			c1.7,0.1,2.9-1.6,2.4-3.2l-7.1-22.2C775.1,367.3,772,367.3,771.2,369.5z"/>
		<path class="st13" d="M1003.2,441.5l-7.9,21.7c-0.6,1.6,0.6,3.2,2.2,3.3l0,0c4.8,1.3,9.8,1.5,14.7,0.6l0.2,0
			c1.7,0.1,2.9-1.6,2.4-3.2l-7.1-22.2C1007.1,439.4,1004,439.3,1003.2,441.5z"/>
	</g>
</g>
<g>
	<path id="_x32_nd_Layer" class="st14" d="M1675.3,468c0,0-31.4,3-52.8,7.7c-21.4,4.6-52.2,11.3-125.9-3.6s-125.4,1.3-163.1,13.8
		c-37.7,12.6-88.5,21.5-182.7-4.9c-94.2-26.4-95.7-25.4-140.6-16.4c-44.9,9-121.1,61.4-212.7,35.1S567.9,460,511.1,480.8
		c-56.8,20.8-169.6,65-314.8,21.2S0.2,468,0.2,468v92.4h1675.1V468z"/>
	<path id="Forground" class="st15" d="M0.2,500.5c0,0,38.8,1.2,154,12.8c115.3,11.6,188.8,31.2,252.6,32.2s238.2-44.6,316.4-40.7
		s236.4,41.4,389.5,37.9c153.1-3.5,317-31.6,394.9-35.1c77.9-3.4,167.7-7.2,167.7-7.2v206.6H0.2V500.5z"/>
</g>
<g>
	<path id="_x32_nd_Layer_00000026881775554062598650000013970463149122227094_" class="st14" d="M3350.5,468c0,0-31.4,3-52.8,7.7
		c-21.4,4.6-52.2,11.3-125.9-3.6s-125.4,1.3-163.1,13.8s-88.5,21.5-182.7-4.9c-94.2-26.4-95.7-25.4-140.6-16.4
		c-44.9,9-121.1,61.4-212.7,35.1c-91.6-26.4-229.5-39.8-286.4-18.9c-56.8,20.8-169.6,65-314.8,21.2s-196.1-34-196.1-34v92.4h1675.1
		V468z"/>
	<path id="Forground_00000108270433163876508130000001100873305919036560_" class="st15" d="M1675.3,500.5c0,0,38.8,1.2,154,12.8
		c115.3,11.6,188.8,31.2,252.6,32.2c63.8,1,238.2-44.6,316.4-40.7c78.2,3.9,236.4,41.4,389.5,37.9c153.1-3.5,317-31.6,394.9-35.1
		c77.9-3.4,167.7-7.2,167.7-7.2v206.6H1675.3V500.5z"/>
</g>
</svg>
