<?xml version="1.0" encoding="utf-8"?>
<!-- Generator: Adobe Illustrator 26.3.1, SVG Export Plug-In . SVG Version: 6.00 Build 0)  -->
<svg version="1.1" id="Layer_1" xmlns="http://www.w3.org/2000/svg" xmlns:xlink="http://www.w3.org/1999/xlink" x="0px" y="0px"
	 viewBox="0 0 1600.1 444.6" style="enable-background:new 0 0 1600.1 444.6;" xml:space="preserve">
<style type="text/css">
	.st0{fill:#1C4457;}
	.st1{fill:#173847;}
	.st2{fill:#265B75;}
	.st3{fill:#507F96;}
	.st4{fill:#D3E7E9;}
	.st5{fill:#1F4A5E;}
	.st6{fill:#337799;}
	.st7{fill:#789BAB;}
	.st8{fill:#327899;}
	.st9{fill:#499ABF;}
	.st10{fill:#FFFFFF;}
	.st11{fill:#2C6A87;}
	.st12{fill:#5CB7E0;}
	.st13{fill:#53A4C9;}
	.st14{fill-rule:evenodd;clip-rule:evenodd;fill:#28C382;}
	.st15{fill-rule:evenodd;clip-rule:evenodd;fill:#24B271;}
	.st16{fill-rule:evenodd;clip-rule:evenodd;fill:#0C9E77;}
	.st17{fill-rule:evenodd;clip-rule:evenodd;fill:#076048;}
	.st18{fill:#0C9E77;}
</style>
<g>
	<g>
		<polygon class="st0" points="852.1,372 1153.8,86.7 1554.7,372 		"/>
		<polygon class="st1" points="1153.8,86.7 1234.9,343 1386,252.1 		"/>
		<polygon class="st2" points="962.2,342.5 1083.1,178.9 1107.4,182.1 1123.7,137.3 1135,141.9 1153.8,86.7 964.3,265.8 		"/>
		<polygon class="st3" points="1153.8,86.7 1176.3,158.3 1186.5,132.1 1214.9,130.1 		"/>
		<polygon class="st4" points="1098.7,138.8 1135.7,127.5 1176.3,158.3 1153.8,86.7 		"/>
	</g>
	<g>
		<polygon class="st2" points="459,225 702.4,60.9 894.8,175.8 939.3,132.1 1181.2,337.2 1181.2,372 459,372 		"/>
		<polygon class="st5" points="1064.3,309.4 1042.4,372 743.9,372 702.4,60.9 852,183.5 857.3,212.6 913.8,187.3 		"/>
		<polygon class="st6" points="857.3,212.6 939.3,132.1 913.8,187.3 		"/>
		<polygon class="st7" points="986.8,172.3 954.2,161.5 917.7,178.9 939.3,132.1 		"/>
		<polygon class="st4" points="903.4,167.3 913.8,163.3 917.7,178.9 939.3,132.1 		"/>
		<polygon class="st6" points="459,225 489.8,229.3 576.2,169.2 586.2,181.5 636.5,139.8 662.1,137.3 702.4,60.9 		"/>
		<polygon class="st4" points="614.3,120.4 675.4,110.5 682.5,152.9 714.9,154.5 702.4,60.9 		"/>
		<polygon class="st7" points="702.4,60.9 714.9,154.5 748.5,187.3 756.6,144.7 791.7,147.9 808,133.9 832.8,138.8 		"/>
	</g>
	<g>
		<polygon class="st8" points="1025.6,298.1 1118,218.1 1189.4,258.1 1459.8,23.7 1544.1,125.6 1599.8,193.3 1599.8,372 905.5,372 
					"/>
		<polygon class="st2" points="1118,218.1 1181.2,372 1394.1,372 		"/>
		<polygon class="st9" points="905.5,372 1051.1,301.8 1048,290.2 1093.5,276 1118,218.1 1025.6,298.1 		"/>
		<polygon class="st2" points="1459.8,23.7 1502.1,372 1599.8,372 1599.8,193.3 		"/>
		<polygon class="st9" points="1189.4,258.1 1227.9,279.3 1359.5,187.3 1314.5,178.9 1378.6,144.6 1459.8,23.7 		"/>
		<polygon class="st10" points="1459.8,23.7 1314.5,149.7 1406.5,122.5 1478.2,178.9 		"/>
		<polygon class="st4" points="1459.8,23.7 1579.5,169 1525.3,132.1 1478.2,178.9 		"/>
		<polygon class="st10" points="1118,218.1 1064.3,264.6 1098.7,260.2 1142,277.9 		"/>
		<polygon class="st4" points="1118,218.1 1168,246.1 1149.5,248 1142,277.9 		"/>
	</g>
	<g>
		<polygon class="st2" points="26.3,264 205.4,114.3 353.2,226.4 442.3,211.4 631.2,372 261.3,372 		"/>
		<polygon class="st4" points="205.4,114.3 153,158.1 186.9,148.4 210.9,164 		"/>
		<polygon class="st3" points="205.4,114.3 210.9,164 224.6,145.1 246.1,145.1 		"/>
	</g>
	<polygon class="st8" points="176.1,264 355.3,114.3 503,226.4 592.1,211.4 781,372 411.1,372 	"/>
	<polygon class="st11" points="355.3,114.3 389.8,229.3 428.7,248.7 416.7,272.1 482,372 503,226.4 	"/>
	<polygon class="st10" points="355.3,114.3 297.9,162.2 331.8,152.9 378.2,190.7 	"/>
	<polygon class="st4" points="428.7,170 391.2,160 378.2,190.7 355.3,114.3 	"/>
	<polygon class="st11" points="592.1,211.4 530.1,372 781,372 	"/>
	<polygon class="st10" points="503,226.4 592.1,211.4 569.9,268.1 553.2,236.8 	"/>
	<polygon class="st4" points="592.1,211.4 635.2,248 597.5,243.1 569.9,268.1 	"/>
	<g>
		<polygon class="st12" points="-29.5,190.2 65.9,120 168.1,208.3 225,178.9 442.7,372 -29.5,372 		"/>
		<polygon class="st13" points="225,178.9 246.4,286.4 274.6,307.4 258.6,317 312.5,372 442.7,372 		"/>
		<polygon class="st13" points="65.9,120 220.4,252.6 172.5,263.8 253,372 -4.1,372 		"/>
		<polygon class="st10" points="65.9,120 0.2,168.3 33.1,168.3 41.5,207.9 		"/>
		<polygon class="st4" points="65.9,120 116.3,163.5 76.2,164 41.5,207.9 		"/>
		<polygon class="st10" points="225,178.9 168.1,208.3 186.9,223.8 208.6,217.3 235.5,233.1 		"/>
		<polygon class="st4" points="225,178.9 267.8,216.8 246.4,211.4 235.5,233.1 		"/>
	</g>
	<g>
		<polygon class="st12" points="1570.4,190.2 1665.8,120 1768,208.3 1824.9,178.9 2042.6,372 1570.4,372 1344,371.3 		"/>
		<polygon class="st13" points="1824.9,178.9 1846.3,286.4 1874.5,307.4 1858.5,317 1912.4,372 2042.6,372 		"/>
		<polygon class="st13" points="1665.8,120 1820.3,252.6 1772.4,263.8 1852.9,372 1595.8,372 		"/>
		<polygon class="st10" points="1665.8,120 1600.1,168.3 1633,168.3 1641.4,207.9 		"/>
		<polygon class="st4" points="1665.8,120 1716.2,163.5 1676.1,164 1641.4,207.9 		"/>
		<polygon class="st10" points="1824.9,178.9 1768,208.3 1786.8,223.8 1808.5,217.3 1835.4,233.1 		"/>
		<polygon class="st4" points="1824.9,178.9 1867.7,216.8 1846.3,211.4 1835.4,233.1 		"/>
	</g>
</g>
<g id="hills">
	<g id="hill">
		<path class="st14" d="M0,255.2c0,0,52.5,2.2,100.6,53c46.8,49.4,118.3-1.1,145.6-11.8c27.3-10.7,46.9-24,74.2-12.8
			c27.3,11.2,71.9,62.7,100.3,30.5c44.7-50.6,66.5-92.2,106.5-61.2s95,75.3,139,58.3c44-17,62.5-52.4,123.3-14.3
			s117.6-14.1,159.4-31.2c37-15.1,49-8.1,60.9-0.8c11.9,7.3,60.2,63.9,76.5,64.7c16.3,0.9,53.9-16.8,68.1-10.5
			c14.2,6.3,44.2,39.1,85.7-20s55-84.3,101.8-38.6c46.8,45.7,64.2,48.6,98.5,23.3c34.3-25.3,66-1.8,66-1.8s30.6-27.9,93.7-27.9v175
			H0V255.2z"/>
		<path class="st15" d="M974.7,257.8c0,0-4.9,25.8,9.7,37.1c14.6,11.3,30.3,8.5,35.3,16.1c5,7.6,4.6,35.8,18.2,49.4
			c13.6,13.6,17.4,76.5,17.4,76.5L883.1,437c0,0-65-126.2-44.8-127.1C879.2,308.2,932.6,265.8,974.7,257.8z M735.5,280
			c0,0,6.5,54.7,36.1,61.9c47.6,11.6,75,97.4,75,97.4l-224.9,0.1c0,0,12.6-118,24.3-124.1C703.8,285.3,735.5,280,735.5,280z
			 M492.4,243.4c0,0,1.9,30.6,7.2,40.9s14.4,13.7,12,34.5c-2.4,20.8,37.8,30.2,47.9,38.9c10.1,8.7-40.6,24.2-69.6,19.4
			c-29-4.8-111.8,18.5-100.6-7.4C433.7,267.2,492.4,243.4,492.4,243.4z M309.9,280.8c0,0,12.6,9.7,2.6,35.1
			c-10,25.4-2.1,60,22.3,69.3c24.3,9.3,31.5,49.9,31.5,49.9l-187.6,0.1c0,0-58.6-104.7-43.5-107.6
			C210.2,313.3,282.5,271.5,309.9,280.8z M11.3,256.7c0,0,11.5,14.4,6.4,39.2s7.6,56.5,19.7,64s24.3,71.7,24.3,71.7L0,431.8V254.2
			L11.3,256.7z M1289.7,239.8c0,0-4,34.4,10.5,53.2c14.5,18.9,46.6,50.5,65.5,53.7c18.9,3.3,51.5,36.4,51.4,65.3s-1.5,20.1-1.5,20.1
			l-330.4,0.1c0,0,89.8-86.1,119.8-118.7C1231.3,284.9,1289.7,239.8,1289.7,239.8z M1506,282.6c0,0-15.7,10.2-16.6,35.3
			c-0.5,14,32.7,53.7,25.3,63s-53.3,22.9-33.5,38.4c19.8,15.5,119-5.6,119-5.6V254.2C1600.1,254.2,1543.7,252.1,1506,282.6z"/>
	</g>
</g>
<path id="_x32_nd_Layer" class="st16" d="M1600.1,331.7c0,0-30,3-50.4,7.7c-20.4,4.6-49.9,11.3-120.3-3.6
	c-70.4-14.8-119.8,1.3-155.8,13.8c-36,12.6-84.6,21.5-174.5-4.9c-90-26.4-91.4-25.4-134.3-16.4c-42.9,9-115.7,61.4-203.2,35.1
	c-87.5-26.4-219.3-39.8-273.6-18.9c-54.3,20.8-162,65-300.7,21.2S0,331.7,0,331.7v92.4h1600.1V331.7z"/>
<path id="Forground" class="st17" d="M0,354c0,0,37,1.2,147.1,12.8S327.5,398,388.5,399c60.9,1,227.6-44.6,302.2-40.7
	s225.8,41.4,372.1,37.9s302.8-31.6,377.2-35.1c74.4-3.4,160.2-7.2,160.2-7.2v90.6H0V354z"/>
<path class="st18" d="M513.9,235.7l-8.9,24.5c-0.6,1.8,0.6,3.6,2.5,3.7l0,0c5.4,1.5,11.1,1.7,16.6,0.6l0.2,0
	c1.9,0.1,3.3-1.8,2.7-3.6l-8-25.1C518.3,233.3,514.8,233.2,513.9,235.7z"/>
<path class="st18" d="M464.6,251.1l-8.9,24.5c-0.6,1.8,0.6,3.6,2.5,3.7l0,0c5.4,1.5,11.1,1.7,16.6,0.6l0.2,0
	c1.9,0.1,3.3-1.8,2.7-3.6l-8-25.1C469,248.7,465.5,248.7,464.6,251.1z"/>
<path class="st18" d="M504.5,280.9l-8.9,24.5c-0.6,1.8,0.6,3.6,2.5,3.7l0,0c5.4,1.5,11.1,1.7,16.6,0.6l0.2,0
	c1.9,0.1,3.3-1.8,2.7-3.6l-8-25.1C508.9,278.5,505.4,278.4,504.5,280.9z"/>
<path class="st18" d="M419.8,303.5l-8.9,24.5c-0.6,1.8,0.6,3.6,2.5,3.7l0,0c5.4,1.5,11.1,1.7,16.6,0.6l0.2,0
	c1.9,0.1,3.3-1.8,2.7-3.6l-8-25.1C424.2,301.1,420.7,301,419.8,303.5z"/>
<path class="st18" d="M542.5,285.8l-8.9,24.5c-0.6,1.8,0.6,3.6,2.5,3.7l0,0c5.4,1.5,11.1,1.7,16.6,0.6l0.2,0
	c1.9,0.1,3.3-1.8,2.7-3.6l-8-25.1C546.9,283.4,543.4,283.3,542.5,285.8z"/>
<path class="st18" d="M597.5,295.1l-8.9,24.5c-0.6,1.8,0.6,3.6,2.5,3.7l0,0c5.4,1.5,11.1,1.7,16.6,0.6l0.2,0
	c1.9,0.1,3.3-1.8,2.7-3.6l-8-25.1C602,292.7,598.4,292.6,597.5,295.1z"/>
<path class="st18" d="M680.6,287.5l-8.9,24.5c-0.6,1.8,0.6,3.6,2.5,3.7l0,0c5.4,1.5,11.1,1.7,16.6,0.6l0.2,0
	c1.9,0.1,3.3-1.8,2.7-3.6l-8-25.1C685,285.1,681.5,285,680.6,287.5z"/>
<path class="st18" d="M715.3,315.4l-8.9,24.5c-0.6,1.8,0.6,3.6,2.5,3.7l0,0c5.4,1.5,11.1,1.7,16.6,0.6l0.2,0
	c1.9,0.1,3.3-1.8,2.7-3.6l-8-25.1C719.7,313,716.2,312.9,715.3,315.4z"/>
<path class="st18" d="M750,284.9l-8.9,24.5c-0.6,1.8,0.6,3.6,2.5,3.7l0,0c5.4,1.5,11.1,1.7,16.6,0.6l0.2,0c1.9,0.1,3.3-1.8,2.7-3.6
	l-8-25.1C754.4,282.5,750.9,282.4,750,284.9z"/>
<path class="st18" d="M787.3,332.3l-8.9,24.5c-0.6,1.8,0.6,3.6,2.5,3.7l0,0c5.4,1.5,11.1,1.7,16.6,0.6l0.2,0
	c1.9,0.1,3.3-1.8,2.7-3.6l-8-25.1C791.7,329.9,788.2,329.9,787.3,332.3z"/>
<path class="st18" d="M816.1,296.8l-8.9,24.5c-0.6,1.8,0.6,3.6,2.5,3.7l0,0c5.4,1.5,11.1,1.7,16.6,0.6l0.2,0
	c1.9,0.1,3.3-1.8,2.7-3.6l-8-25.1C820.5,294.4,817,294.3,816.1,296.8z"/>
<path class="st18" d="M858.6,320.9l-8.9,24.5c-0.6,1.8,0.6,3.6,2.5,3.7l0,0c5.4,1.5,11.1,1.7,16.6,0.6l0.2,0
	c1.9,0.1,3.3-1.8,2.7-3.6l-8-25.1C863,318.5,859.5,318.4,858.6,320.9z"/>
<path class="st18" d="M894.8,277.6l-8.9,24.5c-0.6,1.8,0.6,3.6,2.5,3.7l0,0c5.4,1.5,11.1,1.7,16.6,0.6l0.2,0
	c1.9,0.1,3.3-1.8,2.7-3.6l-8-25.1C899.2,275.2,895.7,275.1,894.8,277.6z"/>
<path class="st18" d="M915.9,267.8l-8.9,24.5c-0.6,1.8,0.6,3.6,2.5,3.7l0,0c5.4,1.5,11.1,1.7,16.6,0.6l0.2,0
	c1.9,0.1,3.3-1.8,2.7-3.6l-8-25.1C920.3,265.4,916.8,265.3,915.9,267.8z"/>
<path class="st18" d="M910.2,311.5l-8.9,24.5c-0.6,1.8,0.6,3.6,2.5,3.7l0,0c5.4,1.5,11.1,1.7,16.6,0.6l0.2,0
	c1.9,0.1,3.3-1.8,2.7-3.6l-8-25.1C914.6,309.1,911.1,309,910.2,311.5z"/>
<path class="st18" d="M955.4,293.8l-8.9,24.5c-0.6,1.8,0.6,3.6,2.5,3.7l0,0c5.4,1.5,11.1,1.7,16.6,0.6l0.2,0
	c1.9,0.1,3.3-1.8,2.7-3.6l-8-25.1C959.8,291.4,956.3,291.3,955.4,293.8z"/>
<path class="st18" d="M988.5,249.7l-8.9,24.5c-0.6,1.8,0.6,3.6,2.5,3.7l0,0c5.4,1.5,11.1,1.7,16.6,0.6l0.2,0
	c1.9,0.1,3.3-1.8,2.7-3.6l-8-25.1C992.9,247.3,989.4,247.2,988.5,249.7z"/>
<path class="st18" d="M1022,290l-8.9,24.5c-0.6,1.8,0.6,3.6,2.5,3.7l0,0c5.4,1.5,11.1,1.7,16.6,0.6l0.2,0c1.9,0.1,3.3-1.8,2.7-3.6
	l-8-25.1C1026.4,287.6,1022.9,287.5,1022,290z"/>
<path class="st18" d="M1068.3,303.9l-8.9,24.5c-0.6,1.8,0.6,3.6,2.5,3.7l0,0c5.4,1.5,11.1,1.7,16.6,0.6l0.2,0
	c1.9,0.1,3.3-1.8,2.7-3.6l-8-25.1C1072.7,301.5,1069.2,301.5,1068.3,303.9z"/>
<path class="st18" d="M1147.4,317.5l-8.9,24.5c-0.6,1.8,0.6,3.6,2.5,3.7l0,0c5.4,1.5,11.1,1.7,16.6,0.6l0.2,0
	c1.9,0.1,3.3-1.8,2.7-3.6l-8-25.1C1151.8,315.1,1148.3,315,1147.4,317.5z"/>
<path class="st18" d="M1250.2,267.8l-8.9,24.5c-0.6,1.8,0.6,3.6,2.5,3.7l0,0c5.4,1.5,11.1,1.7,16.6,0.6l0.2,0
	c1.9,0.1,3.3-1.8,2.7-3.6l-8-25.1C1254.6,265.4,1251.1,265.3,1250.2,267.8z"/>
<path class="st18" d="M1314.5,246.3l-8.9,24.5c-0.6,1.8,0.6,3.6,2.5,3.7l0,0c5.4,1.5,11.1,1.7,16.6,0.6l0.2,0
	c1.9,0.1,3.3-1.8,2.7-3.6l-8-25.1C1319,243.9,1315.4,243.9,1314.5,246.3z"/>
<path class="st18" d="M1339.4,271.2l-8.9,24.5c-0.6,1.8,0.6,3.6,2.5,3.7l0,0c5.4,1.5,11.1,1.7,16.6,0.6l0.2,0
	c1.9,0.1,3.3-1.8,2.7-3.6l-8-25.1C1343.8,268.8,1340.3,268.7,1339.4,271.2z"/>
<path class="st18" d="M1285.2,301.7l-8.9,24.5c-0.6,1.8,0.6,3.6,2.5,3.7l0,0c5.4,1.5,11.1,1.7,16.6,0.6l0.2,0
	c1.9,0.1,3.3-1.8,2.7-3.6l-8-25.1C1289.6,299.3,1286.1,299.2,1285.2,301.7z"/>
<path class="st18" d="M1399.2,288.1l-8.9,24.5c-0.6,1.8,0.6,3.6,2.5,3.7l0,0c5.4,1.5,11.1,1.7,16.6,0.6l0.2,0
	c1.9,0.1,3.3-1.8,2.7-3.6l-8-25.1C1403.7,285.7,1400.1,285.6,1399.2,288.1z"/>
<path class="st18" d="M1481.7,257.6l-8.9,24.5c-0.6,1.8,0.6,3.6,2.5,3.7l0,0c5.4,1.5,11.1,1.7,16.6,0.6l0.2,0
	c1.9,0.1,3.3-1.8,2.7-3.6l-8-25.1C1486.1,255.2,1482.6,255.1,1481.7,257.6z"/>
<path class="st18" d="M1465.9,307.3l-8.9,24.5c-0.6,1.8,0.6,3.6,2.5,3.7l0,0c5.4,1.5,11.1,1.7,16.6,0.6l0.2,0
	c1.9,0.1,3.3-1.8,2.7-3.6l-8-25.1C1470.3,304.9,1466.8,304.8,1465.9,307.3z"/>
<path class="st18" d="M1543.8,293.8l-8.9,24.5c-0.6,1.8,0.6,3.6,2.5,3.7l0,0c5.4,1.5,11.1,1.7,16.6,0.6l0.2,0
	c1.9,0.1,3.3-1.8,2.7-3.6l-8-25.1C1548.2,291.4,1544.7,291.3,1543.8,293.8z"/>
<path class="st18" d="M1581.1,287l-8.9,24.5c-0.6,1.8,0.6,3.6,2.5,3.7l0,0c5.4,1.5,11.1,1.7,16.6,0.6l0.2,0c1.9,0.1,3.3-1.8,2.7-3.6
	l-8-25.1C1585.5,284.6,1582,284.5,1581.1,287z"/>
<path class="st18" d="M1565.3,244.1l-8.9,24.5c-0.6,1.8,0.6,3.6,2.5,3.7l0,0c5.4,1.5,11.1,1.7,16.6,0.6l0.2,0
	c1.9,0.1,3.3-1.8,2.7-3.6l-8-25.1C1569.7,241.7,1566.2,241.6,1565.3,244.1z"/>
<path class="st18" d="M343.7,317.4l-8.9,24.5c-0.6,1.8,0.6,3.6,2.5,3.7l0,0c5.4,1.5,11.1,1.7,16.6,0.6l0.2,0
	c1.9,0.1,3.3-1.8,2.7-3.6l-8-25.1C348.1,315,344.6,314.9,343.7,317.4z"/>
<path class="st18" d="M309.8,280.1l-8.9,24.5c-0.6,1.8,0.6,3.6,2.5,3.7l0,0c5.4,1.5,11.1,1.7,16.6,0.6l0.2,0
	c1.9,0.1,3.3-1.8,2.7-3.6l-8-25.1C314.2,277.7,310.7,277.6,309.8,280.1z"/>
<path class="st18" d="M264.7,332.6l-8.9,24.5c-0.6,1.8,0.6,3.6,2.5,3.7l0,0c5.4,1.5,11.1,1.7,16.6,0.6l0.2,0
	c1.9,0.1,3.3-1.8,2.7-3.6l-8-25.1C269.1,330.2,265.6,330.2,264.7,332.6z"/>
<path class="st18" d="M249.4,281l-8.9,24.5c-0.6,1.8,0.6,3.6,2.5,3.7l0,0c5.4,1.5,11.1,1.7,16.6,0.6l0.2,0c1.9,0.1,3.3-1.8,2.7-3.6
	l-8-25.1C253.8,278.6,250.3,278.5,249.4,281z"/>
<path class="st18" d="M223.2,339.4l-8.9,24.5c-0.6,1.8,0.6,3.6,2.5,3.7l0,0c5.4,1.5,11.1,1.7,16.6,0.6l0.2,0
	c1.9,0.1,3.3-1.8,2.7-3.6l-8-25.1C227.6,337,224,336.9,223.2,339.4z"/>
<path class="st18" d="M223.2,303.8l-8.9,24.5c-0.6,1.8,0.6,3.6,2.5,3.7l0,0c5.4,1.5,11.1,1.7,16.6,0.6l0.2,0
	c1.9,0.1,3.3-1.8,2.7-3.6l-8-25.1C227.6,301.4,224,301.4,223.2,303.8z"/>
<path class="st18" d="M161.3,317.4l-8.9,24.5c-0.6,1.8,0.6,3.6,2.5,3.7l0,0c5.4,1.5,11.1,1.7,16.6,0.6l0.2,0
	c1.9,0.1,3.3-1.8,2.7-3.6l-8-25.1C165.7,315,162.2,314.9,161.3,317.4z"/>
<path class="st18" d="M110.5,305.5l-8.9,24.5c-0.6,1.8,0.6,3.6,2.5,3.7l0,0c5.4,1.5,11.1,1.7,16.6,0.6l0.2,0
	c1.9,0.1,3.3-1.8,2.7-3.6l-8-25.1C114.9,303.1,111.4,303.1,110.5,305.5z"/>
<path class="st18" d="M47.8,297.1l-8.9,24.5c-0.6,1.8,0.6,3.6,2.5,3.7l0,0c5.4,1.5,11.1,1.7,16.6,0.6l0.2,0c1.9,0.1,3.3-1.8,2.7-3.6
	l-8-25.1C52.2,294.7,48.7,294.6,47.8,297.1z"/>
<path class="st18" d="M13.9,251.3L5,275.8c-0.6,1.8,0.6,3.6,2.5,3.7l0,0c5.4,1.5,11.1,1.7,16.6,0.6l0.2,0c1.9,0.1,3.3-1.8,2.7-3.6
	l-8-25.1C18.3,248.9,14.8,248.8,13.9,251.3z"/>
<path class="st18" d="M70.7,269.1l-8.9,24.5c-0.6,1.8,0.6,3.6,2.5,3.7l0,0c5.4,1.5,11.1,1.7,16.6,0.6l0.2,0c1.9,0.1,3.3-1.8,2.7-3.6
	l-8-25.1C75.1,266.7,71.6,266.6,70.7,269.1z"/>
</svg>
