<?xml version="1.0" encoding="utf-8"?>
<!-- Generator: Adobe Illustrator 26.3.1, SVG Export Plug-In . SVG Version: 6.00 Build 0)  -->
<svg version="1.1" id="Layer_1" xmlns="http://www.w3.org/2000/svg" xmlns:xlink="http://www.w3.org/1999/xlink" x="0px" y="0px"
	 viewBox="0 0 1957.4 621.2" style="enable-background:new 0 0 1957.4 621.2;" xml:space="preserve">
<style type="text/css">
	.st0{fill:#1C4457;}
	.st1{fill:#173847;}
	.st2{fill:#265B75;}
	.st3{fill:#507F96;}
	.st4{fill:#D3E7E9;}
	.st5{fill:#327899;}
	.st6{fill:#499ABF;}
	.st7{fill:#FFFFFF;}
	.st8{fill:#2C6A87;}
	.st9{fill:#5CB7E0;}
	.st10{fill:#53A4C9;}
	.st11{fill-rule:evenodd;clip-rule:evenodd;fill:#28C382;}
	.st12{fill-rule:evenodd;clip-rule:evenodd;fill:#24B271;}
	.st13{fill-rule:evenodd;clip-rule:evenodd;fill:#0C9E77;}
	.st14{fill-rule:evenodd;clip-rule:evenodd;fill:#076048;}
	.st15{fill:#0C9E77;}
</style>
<g>
	<g>
		<polygon class="st0" points="971.7,408.7 1315.9,83.3 1773.2,408.7 		"/>
		<polygon class="st1" points="1315.9,83.3 1408.3,375.7 1580.7,272 		"/>
		<polygon class="st2" points="1097.4,375.1 1235.2,188.5 1263,192.1 1281.6,141.1 1294.5,146.2 1315.9,83.3 1099.7,287.7 		"/>
		<polygon class="st3" points="1315.9,83.3 1341.5,165 1353.1,135.1 1385.5,132.8 		"/>
		<polygon class="st4" points="1253,142.7 1295.2,129.9 1341.5,165 1315.9,83.3 		"/>
	</g>
	<g>
		<polygon class="st5" points="1169.7,324.5 1275.1,233.2 1356.5,278.8 1664.9,11.4 1761,127.6 1824.6,204.9 1824.6,408.7 
			1032.6,408.7 		"/>
		<polygon class="st2" points="1275.1,233.2 1347.1,408.7 1590,408.7 		"/>
		<polygon class="st6" points="1032.6,408.7 1198.7,328.6 1195.2,315.5 1247.1,299.2 1275.1,233.2 1169.7,324.5 		"/>
		<polygon class="st2" points="1664.9,11.4 1713.2,408.7 1824.6,408.7 1824.6,204.9 		"/>
		<polygon class="st6" points="1356.5,278.8 1400.4,303.1 1550.5,198 1499.1,188.5 1572.2,149.4 1664.9,11.4 		"/>
		<polygon class="st7" points="1664.9,11.4 1499.1,155.2 1604.1,124.1 1685.9,188.5 		"/>
		<polygon class="st4" points="1664.9,11.4 1801.5,177.2 1739.7,135.1 1685.9,188.5 		"/>
		<polygon class="st7" points="1275.1,233.2 1213.8,286.3 1253,281.2 1302.4,301.4 		"/>
		<polygon class="st4" points="1275.1,233.2 1332,265.1 1311,267.3 1302.4,301.4 		"/>
	</g>
	<g>
		<polygon class="st2" points="29.7,285.6 234.1,114.8 402.6,242.7 504.2,225.5 719.7,408.7 297.8,408.7 		"/>
		<polygon class="st4" points="234.1,114.8 174.3,164.8 213,153.7 240.3,171.5 		"/>
		<polygon class="st3" points="234.1,114.8 240.3,171.5 256,150 280.4,150 		"/>
	</g>
	<polygon class="st5" points="200.6,285.6 405,114.8 573.6,242.7 675.2,225.5 890.7,408.7 468.7,408.7 	"/>
	<polygon class="st8" points="405,114.8 444.3,246 488.7,268.2 475.1,294.8 549.6,408.7 573.6,242.7 	"/>
	<polygon class="st7" points="405,114.8 339.5,169.5 378.3,158.8 431.1,201.9 	"/>
	<polygon class="st4" points="488.7,178.3 446,166.9 431.1,201.9 405,114.8 	"/>
	<polygon class="st8" points="675.2,225.5 604.4,408.7 890.7,408.7 	"/>
	<polygon class="st7" points="573.6,242.7 675.2,225.5 649.8,290.3 630.8,254.5 	"/>
	<polygon class="st4" points="675.2,225.5 724.3,267.3 681.3,261.7 649.8,290.3 	"/>
	<g>
		<polygon class="st9" points="-33.9,201.3 75,121.3 191.5,222 256.5,188.4 504.8,408.7 -33.9,408.7 		"/>
		<polygon class="st10" points="256.5,188.4 280.8,311.1 312.9,335.1 294.8,346 356.2,408.7 504.8,408.7 		"/>
		<polygon class="st10" points="75,121.3 251.2,272.5 196.5,285.3 288.3,408.7 -4.9,408.7 		"/>
		<polygon class="st7" points="75,121.3 0,176.4 37.5,176.4 47.1,221.6 		"/>
		<polygon class="st4" points="75,121.3 132.4,171 86.7,171.5 47.1,221.6 		"/>
		<polygon class="st7" points="256.5,188.4 191.5,222 212.9,239.7 237.7,232.3 268.4,250.3 		"/>
		<polygon class="st4" points="256.5,188.4 305.2,231.7 280.8,225.5 268.4,250.3 		"/>
	</g>
	<g>
		<polygon class="st9" points="1791.1,201.3 1899.9,121.3 2016.5,222 2081.4,188.4 2329.7,408.7 1791.1,408.7 1532.8,408 		"/>
		<polygon class="st10" points="2081.4,188.4 2105.8,311.1 2137.9,335.1 2119.7,346 2181.2,408.7 2329.7,408.7 		"/>
		<polygon class="st10" points="1899.9,121.3 2076.1,272.5 2021.5,285.3 2113.2,408.7 1820.1,408.7 		"/>
		<polygon class="st7" points="1899.9,121.3 1824.9,176.4 1862.4,176.4 1872,221.6 		"/>
		<polygon class="st4" points="1899.9,121.3 1957.4,171 1911.6,171.5 1872,221.6 		"/>
		<polygon class="st7" points="2081.4,188.4 2016.5,222 2037.9,239.7 2062.6,232.3 2093.4,250.3 		"/>
		<polygon class="st4" points="2081.4,188.4 2130.2,231.7 2105.8,225.5 2093.4,250.3 		"/>
	</g>
</g>
<g id="hills">
	<g id="hill">
		<path class="st11" d="M0,290.8c0,0,64.3,2.7,123,64.8c57.2,60.5,144.7-1.3,178.1-14.4c33.4-13.1,57.4-29.4,90.8-15.7
			c33.4,13.8,87.9,76.7,122.7,37.3c54.7-61.9,81.4-112.7,130.2-74.8c48.8,37.9,116.2,92.2,170,71.4s104.1,75.3,178.5,121.9
			C976,470.4,978,411.3,1150,340.8c45.2-18.5,70.6-47.1,85.2-38.2c14.6,8.9,73.6,78.1,93.6,79.2s65.9-20.5,83.3-12.8
			c17.3,7.7,54.1,47.8,104.9-24.4s67.3-103.2,124.6-47.3c57.3,55.9,78.6,59.4,120.5,28.5s80.8-2.2,80.8-2.2s37.4-34.1,114.6-34.1
			l-79.7,211.1H-79.7L0,290.8z"/>
		<path class="st12" d="M1218.5,304.3c0,0-32.2,21.2-14.3,34.9c17.9,13.8,37.1,10.4,43.2,19.7s5.6,43.8,22.2,60.4
			c16.6,16.6,21.3,93.6,21.3,93.6l-290.4-2.8c0,0-126.5-66.4-100.2-111.4C954.1,450.4,1167,314.2,1218.5,304.3z M602.2,276.4
			c0,0,2.4,37.4,8.8,50.1c6.4,12.7,17.6,16.8,14.7,42.3c-2.9,25.5,46.2,37,58.5,47.6c12.3,10.6-49.7,29.6-85.1,23.8
			s-136.7,22.6-123-9.1C530.4,305.4,602.2,276.4,602.2,276.4z M379,322.1c0,0,15.4,11.9,3.1,42.9s-2.5,73.4,27.2,84.8
			c29.8,11.4,38.5,61,38.5,61L218.5,511c0,0-71.7-128.1-53.2-131.6C257,361.8,345.5,310.7,379,322.1z M13.7,292.6
			c0,0,14.1,17.7,7.8,47.9s9.3,69.2,24.1,78.3s29.7,87.7,29.7,87.7L0,506.7V289.5L13.7,292.6z M1577.7,272c0,0-4.9,42,12.8,65.1
			c17.7,23.1,57,61.7,80.1,65.7c23.1,4,63.1,44.5,62.9,79.8s-1.9,24.6-1.9,24.6l-404.1,0.2c0,0,109.9-105.3,146.5-145.2
			C1506.1,327.1,1577.7,272,1577.7,272z M1842.2,324.2c0,0-19.2,12.5-20.3,43.2c-0.6,17.1,40,65.7,31,77c-9,11.3-65.2,28-41,47
			s145.6-6.9,145.6-6.9v-195C1957.4,289.5,1888.4,286.9,1842.2,324.2z"/>
	</g>
</g>
<path id="_x32_nd_Layer" class="st13" d="M1957.4,392.9c0,0-36.7,3-61.7,7.7c-24.9,4.6-61,11.3-147.1-3.6
	c-86.1-14.8-146.6,1.3-190.6,13.8c-44.1,12.6-103.4,21.5-213.5-4.9s-111.9-25.4-164.3-16.4c-52.5,9-141.5,61.4-248.5,35.1
	c-107-26.4-268.2-39.8-334.6-18.9c-66.4,20.8-198.1,65-367.8,21.2S0,392.9,0,392.9v92.4h1957.4V392.9z"/>
<path id="Forground" class="st14" d="M0,425.4c0,0,45.3,1.2,180,12.8s220.7,31.2,295.2,32.2c74.5,1,278.4-44.6,369.7-40.7
	c91.3,3.9,276.3,41.4,455.1,37.9c178.9-3.5,370.4-31.6,461.4-35.1c91-3.4,196-7.2,196-7.2V632H0V425.4z"/>
<g>
	<path class="st15" d="M663.9,294.8l-8.7,24.1c-0.6,1.7,0.6,3.6,2.4,3.6l0,0c5.3,1.4,10.9,1.7,16.4,0.6l0.2,0
		c1.9,0.1,3.2-1.7,2.7-3.5l-7.8-24.7C668.2,292.5,664.8,292.4,663.9,294.8z"/>
	<path class="st15" d="M598.2,306.6l-8.7,24.1c-0.6,1.7,0.6,3.6,2.4,3.6l0,0c5.3,1.4,10.9,1.7,16.4,0.6l0.2,0
		c1.9,0.1,3.2-1.7,2.7-3.5l-7.8-24.7C602.6,304.3,599.1,304.2,598.2,306.6z"/>
	<path class="st15" d="M601.2,367.2l-8.7,24.1c-0.6,1.7,0.6,3.6,2.4,3.6l0,0c5.3,1.4,10.9,1.7,16.4,0.6l0.2,0
		c1.9,0.1,3.2-1.7,2.7-3.5l-7.8-24.7C605.6,364.8,602.1,364.8,601.2,367.2z"/>
	<path class="st15" d="M637.5,335.9l-8.7,24.1c-0.6,1.7,0.6,3.6,2.4,3.6l0,0c5.3,1.4,10.9,1.7,16.4,0.6l0.2,0
		c1.9,0.1,3.2-1.7,2.7-3.5l-7.8-24.7C641.8,333.5,638.4,333.4,637.5,335.9z"/>
	<path class="st15" d="M554.2,358.1l-8.7,24.1c-0.6,1.7,0.6,3.6,2.4,3.6l0,0c5.3,1.4,10.9,1.7,16.4,0.6l0.2,0
		c1.9,0.1,3.2-1.7,2.7-3.5l-7.8-24.7C558.5,355.7,555,355.7,554.2,358.1z"/>
	<path class="st15" d="M674.9,340.7l-8.7,24.1c-0.6,1.7,0.6,3.6,2.4,3.6l0,0c5.3,1.4,10.9,1.7,16.4,0.6l0.2,0
		c1.9,0.1,3.2-1.7,2.7-3.5l-7.8-24.7C679.2,338.3,675.8,338.3,674.9,340.7z"/>
	<path class="st15" d="M729,349.9l-8.7,24.1c-0.6,1.7,0.6,3.6,2.4,3.6l0,0c5.3,1.4,10.9,1.7,16.4,0.6l0.2,0c1.9,0.1,3.2-1.7,2.7-3.5
		l-7.8-24.7C733.4,347.5,729.9,347.4,729,349.9z"/>
	<path class="st15" d="M786.6,348.6l-8.7,24.1c-0.6,1.7,0.6,3.6,2.4,3.6l0,0c5.3,1.4,10.9,1.7,16.4,0.6l0.2,0
		c1.9,0.1,3.2-1.7,2.7-3.5l-7.8-24.7C790.9,346.2,787.5,346.1,786.6,348.6z"/>
	<path class="st15" d="M844.8,369.8l-8.7,24.1c-0.6,1.7,0.6,3.6,2.4,3.6l0,0c5.3,1.4,10.9,1.7,16.4,0.6l0.2,0
		c1.9,0.1,3.2-1.7,2.7-3.5L850,370C849.2,367.5,845.7,367.4,844.8,369.8z"/>
	<path class="st15" d="M1081,348.6l-8.7,24.1c-0.6,1.7,0.6,3.6,2.4,3.6l0,0c5.3,1.4,10.9,1.7,16.4,0.6l0.2,0
		c1.9,0.1,3.2-1.7,2.7-3.5l-7.8-24.7C1085.4,346.2,1081.9,346.1,1081,348.6z"/>
	<path class="st15" d="M1027.8,385.2l-8.7,24.1c-0.6,1.7,0.6,3.6,2.4,3.6l0,0c5.3,1.4,10.9,1.7,16.4,0.6l0.2,0
		c1.9,0.1,3.2-1.7,2.7-3.5l-7.8-24.7C1032.2,382.9,1028.7,382.8,1027.8,385.2z"/>
	<path class="st15" d="M1181.1,303.5l-8.7,24.1c-0.6,1.7,0.6,3.6,2.4,3.6l0,0c5.3,1.4,10.9,1.7,16.4,0.6l0.2,0
		c1.9,0.1,3.2-1.7,2.7-3.5l-7.8-24.7C1185.5,301.2,1182,301.1,1181.1,303.5z"/>
	<path class="st15" d="M1146.6,344.9l-8.7,24.1c-0.6,1.7,0.6,3.6,2.4,3.6l0,0c5.3,1.4,10.9,1.7,16.4,0.6l0.2,0
		c1.9,0.1,3.2-1.7,2.7-3.5l-7.8-24.7C1150.9,342.5,1147.4,342.4,1146.6,344.9z"/>
	<path class="st15" d="M1192.1,358.6l-8.7,24.1c-0.6,1.7,0.6,3.6,2.4,3.6l0,0c5.3,1.4,10.9,1.7,16.4,0.6l0.2,0
		c1.9,0.1,3.2-1.7,2.7-3.5l-7.8-24.7C1196.4,356.2,1193,356.1,1192.1,358.6z"/>
	<path class="st15" d="M1269.9,371.9l-8.7,24.1c-0.6,1.7,0.6,3.6,2.4,3.6l0,0c5.3,1.4,10.9,1.7,16.4,0.6l0.2,0
		c1.9,0.1,3.2-1.7,2.7-3.5L1275,372C1274.2,369.5,1270.7,369.5,1269.9,371.9z"/>
	<path class="st15" d="M1247.9,313l-8.7,24.1c-0.6,1.7,0.6,3.6,2.4,3.6l0,0c5.3,1.4,10.9,1.7,16.4,0.6l0.2,0
		c1.9,0.1,3.2-1.7,2.7-3.5l-7.8-24.7C1252.3,310.6,1248.8,310.6,1247.9,313z"/>
	<path class="st15" d="M1467.5,381.1l-8.7,24.1c-0.6,1.7,0.6,3.6,2.4,3.6l0,0c5.3,1.4,10.9,1.7,16.4,0.6l0.2,0
		c1.9,0.1,3.2-1.7,2.7-3.5l-7.8-24.7C1471.8,378.8,1468.4,378.7,1467.5,381.1z"/>
	<path class="st15" d="M1558.8,297.6l-8.7,24.1c-0.6,1.7,0.6,3.6,2.4,3.6l0,0c5.3,1.4,10.9,1.7,16.4,0.6l0.2,0
		c1.9,0.1,3.2-1.7,2.7-3.5l-7.8-24.7C1563.2,295.3,1559.7,295.2,1558.8,297.6z"/>
	<path class="st15" d="M1388.4,369.8l-8.7,24.1c-0.6,1.7,0.6,3.6,2.4,3.6l0,0c5.3,1.4,10.9,1.7,16.4,0.6l0.2,0
		c1.9,0.1,3.2-1.7,2.7-3.5l-7.8-24.7C1392.7,367.5,1389.3,367.4,1388.4,369.8z"/>
	<path class="st15" d="M1517.6,343l-8.7,24.1c-0.6,1.7,0.6,3.6,2.4,3.6l0,0c5.3,1.4,10.9,1.7,16.4,0.6l0.2,0
		c1.9,0.1,3.2-1.7,2.7-3.5l-7.8-24.7C1521.9,340.6,1518.5,340.6,1517.6,343z"/>
	<path class="st15" d="M1623.2,326.5l-8.7,24.1c-0.6,1.7,0.6,3.6,2.4,3.6l0,0c5.3,1.4,10.9,1.7,16.4,0.6l0.2,0
		c1.9,0.1,3.2-1.7,2.7-3.5l-7.8-24.7C1627.6,324.1,1624.1,324.1,1623.2,326.5z"/>
	<path class="st15" d="M1583.1,361.9l-8.7,24.1c-0.6,1.7,0.6,3.6,2.4,3.6l0,0c5.3,1.4,10.9,1.7,16.4,0.6l0.2,0
		c1.9,0.1,3.2-1.7,2.7-3.5l-7.8-24.7C1587.5,359.5,1584,359.5,1583.1,361.9z"/>
	<path class="st15" d="M1659.8,348.6l-8.7,24.1c-0.6,1.7,0.6,3.6,2.4,3.6l0,0c5.3,1.4,10.9,1.7,16.4,0.6l0.2,0
		c1.9,0.1,3.2-1.7,2.7-3.5l-7.8-24.7C1664.1,346.2,1660.7,346.1,1659.8,348.6z"/>
	<path class="st15" d="M1696.4,341.9l-8.7,24.1c-0.6,1.7,0.6,3.6,2.4,3.6l0,0c5.3,1.4,10.9,1.7,16.4,0.6l0.2,0
		c1.9,0.1,3.2-1.7,2.7-3.5l-7.8-24.7C1700.8,339.5,1697.3,339.5,1696.4,341.9z"/>
	<path class="st15" d="M1890.6,290.5l-8.7,24.1c-0.6,1.7,0.6,3.6,2.4,3.6l0,0c5.3,1.4,10.9,1.7,16.4,0.6l0.2,0
		c1.9,0.1,3.2-1.7,2.7-3.5l-7.8-24.7C1894.9,288.2,1891.5,288.1,1890.6,290.5z"/>
	<path class="st15" d="M1748.2,357.3l-8.7,24.1c-0.6,1.7,0.6,3.6,2.4,3.6l0,0c5.3,1.4,10.9,1.7,16.4,0.6l0.2,0
		c1.9,0.1,3.2-1.7,2.7-3.5l-7.8-24.7C1752.5,354.9,1749.1,354.8,1748.2,357.3z"/>
	<path class="st15" d="M1782.1,307.3l-8.7,24.1c-0.6,1.7,0.6,3.6,2.4,3.6l0,0c5.3,1.4,10.9,1.7,16.4,0.6l0.2,0
		c1.9,0.1,3.2-1.7,2.7-3.5l-7.8-24.7C1786.4,305,1783,304.9,1782.1,307.3z"/>
	<path class="st15" d="M1822.9,360.2l-8.7,24.1c-0.6,1.7,0.6,3.6,2.4,3.6l0,0c5.3,1.4,10.9,1.7,16.4,0.6l0.2,0
		c1.9,0.1,3.2-1.7,2.7-3.5l-7.8-24.7C1827.2,357.9,1823.7,357.8,1822.9,360.2z"/>
	<path class="st15" d="M1860.3,326.5l-8.7,24.1c-0.6,1.7,0.6,3.6,2.4,3.6l0,0c5.3,1.4,10.9,1.7,16.4,0.6l0.2,0
		c1.9,0.1,3.2-1.7,2.7-3.5l-7.8-24.7C1864.7,324.1,1861.2,324.1,1860.3,326.5z"/>
	<path class="st15" d="M1912.6,303.5l-8.7,24.1c-0.6,1.7,0.6,3.6,2.4,3.6l0,0c5.3,1.4,10.9,1.7,16.4,0.6l0.2,0
		c1.9,0.1,3.2-1.7,2.7-3.5l-7.8-24.7C1916.9,301.2,1913.5,301.1,1912.6,303.5z"/>
	<path class="st15" d="M1929.2,354.5l-8.7,24.1c-0.6,1.7,0.6,3.6,2.4,3.6l0,0c5.3,1.4,10.9,1.7,16.4,0.6l0.2,0
		c1.9,0.1,3.2-1.7,2.7-3.5l-7.8-24.7C1933.5,352.1,1930.1,352,1929.2,354.5z"/>
	<path class="st15" d="M1607.5,259.1l-8.7,24.1c-0.6,1.7,0.6,3.6,2.4,3.6l0,0c5.3,1.4,10.9,1.7,16.4,0.6l0.2,0
		c1.9,0.1,3.2-1.7,2.7-3.5l-7.8-24.7C1611.8,256.7,1608.3,256.6,1607.5,259.1z"/>
	<path class="st15" d="M479.4,371.8l-8.7,24.1c-0.6,1.7,0.6,3.6,2.4,3.6l0,0c5.3,1.4,10.9,1.7,16.4,0.6l0.2,0
		c1.9,0.1,3.2-1.7,2.7-3.5l-7.8-24.7C483.7,369.4,480.2,369.4,479.4,371.8z"/>
	<path class="st15" d="M442.7,347.7l-8.7,24.1c-0.6,1.7,0.6,3.6,2.4,3.6l0,0c5.3,1.4,10.9,1.7,16.4,0.6l0.2,0
		c1.9,0.1,3.2-1.7,2.7-3.5l-7.8-24.7C447.1,345.4,443.6,345.3,442.7,347.7z"/>
	<path class="st15" d="M313.5,327l-8.7,24.1c-0.6,1.7,0.6,3.6,2.4,3.6l0,0c5.3,1.4,10.9,1.7,16.4,0.6l0.2,0c1.9,0.1,3.2-1.7,2.7-3.5
		l-7.8-24.7C317.8,324.6,314.3,324.5,313.5,327z"/>
	<path class="st15" d="M401.6,386.8l-8.7,24.1c-0.6,1.7,0.6,3.6,2.4,3.6l0,0c5.3,1.4,10.9,1.7,16.4,0.6l0.2,0
		c1.9,0.1,3.2-1.7,2.7-3.5l-7.8-24.7C405.9,384.4,402.5,384.4,401.6,386.8z"/>
	<path class="st15" d="M386.6,336l-8.7,24.1c-0.6,1.7,0.6,3.6,2.4,3.6l0,0c5.3,1.4,10.9,1.7,16.4,0.6l0.2,0c1.9,0.1,3.2-1.7,2.7-3.5
		l-7.8-24.7C390.9,333.6,387.5,333.5,386.6,336z"/>
	<path class="st15" d="M360.8,393.5l-8.7,24.1c-0.6,1.7,0.6,3.6,2.4,3.6l0,0c5.3,1.4,10.9,1.7,16.4,0.6l0.2,0
		c1.9,0.1,3.2-1.7,2.7-3.5l-7.8-24.7C365.1,391.1,361.7,391,360.8,393.5z"/>
	<path class="st15" d="M360.8,358.5l-8.7,24.1c-0.6,1.7,0.6,3.6,2.4,3.6l0,0c5.3,1.4,10.9,1.7,16.4,0.6l0.2,0
		c1.9,0.1,3.2-1.7,2.7-3.5l-7.8-24.7C365.1,356.1,361.7,356,360.8,358.5z"/>
	<path class="st15" d="M300,371.8l-8.7,24.1c-0.6,1.7,0.6,3.6,2.4,3.6l0,0c5.3,1.4,10.9,1.7,16.4,0.6l0.2,0c1.9,0.1,3.2-1.7,2.7-3.5
		l-7.8-24.7C304.3,369.4,300.8,369.4,300,371.8z"/>
	<path class="st15" d="M250,360.1l-8.7,24.1c-0.6,1.7,0.6,3.6,2.4,3.6l0,0c5.3,1.4,10.9,1.7,16.4,0.6l0.2,0c1.9,0.1,3.2-1.7,2.7-3.5
		l-7.8-24.7C254.3,357.8,250.8,357.7,250,360.1z"/>
	<path class="st15" d="M139.6,357.7l-8.7,24.1c-0.6,1.7,0.6,3.6,2.4,3.6l0,0c5.3,1.4,10.9,1.7,16.4,0.6l0.2,0
		c1.9,0.1,3.2-1.7,2.7-3.5l-7.8-24.7C144,355.4,140.5,355.3,139.6,357.7z"/>
	<path class="st15" d="M103.7,322.2l-8.7,24.1c-0.6,1.7,0.6,3.6,2.4,3.6l0,0c5.3,1.4,10.9,1.7,16.4,0.6l0.2,0
		c1.9,0.1,3.2-1.7,2.7-3.5l-7.8-24.7C108,319.8,104.6,319.8,103.7,322.2z"/>
	<path class="st15" d="M72.9,354.5l-8.7,24.1c-0.6,1.7,0.6,3.6,2.4,3.6l0,0c5.3,1.4,10.9,1.7,16.4,0.6l0.2,0
		c1.9,0.1,3.2-1.7,2.7-3.5L78,354.6C77.2,352.1,73.8,352,72.9,354.5z"/>
	<path class="st15" d="M49.6,336l-8.7,24.1c-0.6,1.7,0.6,3.6,2.4,3.6l0,0c5.3,1.4,10.9,1.7,16.4,0.6l0.2,0c1.9,0.1,3.2-1.7,2.7-3.5
		l-7.8-24.7C53.9,333.6,50.5,333.5,49.6,336z"/>
	<path class="st15" d="M16.6,311.6l-8.7,24.1c-0.6,1.7,0.6,3.6,2.4,3.6l0,0c5.3,1.4,10.9,1.7,16.4,0.6l0.2,0
		c1.9,0.1,3.2-1.7,2.7-3.5l-7.8-24.7C21,309.2,17.5,309.1,16.6,311.6z"/>
	<path class="st15" d="M214.2,386.8l-8.7,24.1c-0.6,1.7,0.6,3.6,2.4,3.6l0,0c5.3,1.4,10.9,1.7,16.4,0.6l0.2,0
		c1.9,0.1,3.2-1.7,2.7-3.5l-7.8-24.7C218.5,384.4,215.1,384.4,214.2,386.8z"/>
</g>
</svg>
