<?xml version="1.0" encoding="UTF-8"?><svg id="Layer_2" xmlns="http://www.w3.org/2000/svg" viewBox="0 0 207.25 59.53"><defs><style>.cls-1{fill:none;}.cls-2{fill:#f39100;}.cls-3,.cls-4,.cls-5{fill:#9c9c9c;}.cls-6{fill:#868786;}.cls-4{opacity:.15;}.cls-4,.cls-5{isolation:isolate;}.cls-5{opacity:.45;}</style></defs><g id="Layer_1-2"><g><path class="cls-1" d="m121.87,25.4c0,.54.22.99.66,1.36.44.37.98.56,1.64.56,1.06,0,2.14-.5,3.23-1.5v-3.62c-1.59-.06-2.91.22-3.96.84-1.05.62-1.57,1.41-1.57,2.37Z"/><path class="cls-1" d="m85.04,34.83c0-2.31-1.6-3.47-4.79-3.47h-1.82v6.93h1.87c3.16,0,4.74-1.15,4.74-3.46Z"/><path class="cls-1" d="m112.03,18.58c-1.11-.72-2.24-1.08-3.38-1.08-1.34,0-2.44.44-3.31,1.33-.87.89-1.3,2.02-1.3,3.4s.46,2.57,1.39,3.51c.93.93,2.08,1.4,3.47,1.4,1.08,0,2.12-.35,3.13-1.06v-7.5Z"/><path class="cls-1" d="m95.65,17.49c-.95,0-1.77.3-2.47.89-.69.59-1.15,1.43-1.38,2.5h7.52c-.44-2.26-1.66-3.39-3.67-3.39Z"/><path class="cls-1" d="m93.58,44.38c1.51,1.48,3.35,2.22,5.52,2.22s3.99-.74,5.48-2.22c1.49-1.48,2.23-3.3,2.23-5.44s-.74-3.98-2.23-5.46c-1.49-1.48-3.32-2.22-5.48-2.22s-4.01.74-5.52,2.22c-1.51,1.48-2.26,3.3-2.26,5.46s.75,3.96,2.26,5.44Z"/><path class="cls-1" d="m86.57,42.98c0-2.37-1.71-3.56-5.13-3.56h-3.01v7.08h3.6c1.49,0,2.61-.32,3.39-.96.77-.64,1.16-1.49,1.16-2.56Z"/><path class="cls-3" d="m37.84,59.51s-.01,0-.02.01h8.28c2.35-3.21,3.56-7.05,3.56-11.55,0-10.71-6.09-17.38-18.27-20.02,7.58-4.11,11.37-9.97,11.37-17.59,0-3.98-.87-7.42-2.6-10.32h-8.17c2.77,2.59,4.16,6.18,4.16,10.78,0,10.48-7.18,15.72-21.55,15.72H6.11V.04H0v59.49h6.11v-27.84h13.69c15.53,0,23.3,5.39,23.3,16.18,0,4.86-1.75,8.75-5.26,11.65Z"/><path class="cls-2" d="m74.96,54.23c-6.84-6.73-10.27-14.98-10.27-24.74s3.42-18.07,10.27-24.8c1.82-1.79,3.74-3.33,5.77-4.64h-9.79c-.24.23-.49.45-.73.68-8.09,7.86-12.13,17.45-12.13,28.76s4.04,20.84,12.13,28.7c.48.46.96.91,1.45,1.34h10.13c-2.42-1.44-4.7-3.21-6.83-5.3Z"/><path class="cls-2" d="m124.96,4.68c6.77,6.73,10.15,15,10.15,24.8s-3.38,18.01-10.15,24.74c-2.11,2.09-4.36,3.86-6.76,5.3h9.89c.49-.44.98-.88,1.45-1.34,8.12-7.86,12.19-17.43,12.19-28.7s-4.06-20.9-12.19-28.76c-.24-.23-.49-.45-.74-.68h-9.56c2.01,1.31,3.92,2.85,5.72,4.64Z"/><path class="cls-6" d="m70.92,16.51v11.61h1.24v-8.14c.98-1.66,2.15-2.49,3.5-2.49.93,0,1.66.35,2.21,1.04.55.69.83,1.68.83,2.97v6.61h1.25v-7.91c.56-.95,1.11-1.64,1.64-2.07s1.15-.64,1.87-.64c.96,0,1.7.36,2.23,1.08s.79,1.71.79,2.96v6.59h1.24v-7.13c0-1.42-.37-2.56-1.11-3.42-.74-.86-1.71-1.29-2.91-1.29-1.6,0-2.94.93-4.04,2.79-.72-1.86-1.97-2.79-3.75-2.79-1.52,0-2.75.76-3.7,2.27h-.05v-2.04h-1.24Z"/><path class="cls-6" d="m100.79,21.88c0-1.72-.5-3.09-1.49-4.09-.99-1.01-2.21-1.51-3.65-1.51-1.53,0-2.8.56-3.81,1.67-1.01,1.11-1.51,2.52-1.51,4.22,0,1.79.55,3.27,1.64,4.43,1.09,1.16,2.48,1.74,4.15,1.74s3.14-.51,4.47-1.54v-1.4c-1.41,1.15-2.84,1.73-4.32,1.73-1.26,0-2.36-.45-3.28-1.35-.93-.9-1.39-2-1.39-3.29,0-.2.01-.4.04-.61h9.15Zm-7.6-3.5c.69-.59,1.52-.89,2.47-.89,2.01,0,3.23,1.13,3.67,3.39h-7.52c.23-1.08.69-1.91,1.38-2.5Z"/><path class="cls-6" d="m113.28,28.12V10.49h-1.25v6.73c-1.22-.62-2.36-.93-3.43-.93-1.68,0-3.08.57-4.2,1.72s-1.67,2.58-1.67,4.3.57,3.13,1.7,4.3c1.13,1.16,2.52,1.75,4.17,1.75,1.23,0,2.37-.38,3.43-1.14v.91h1.25Zm-4.38-.98c-1.39,0-2.54-.47-3.47-1.4-.93-.93-1.39-2.1-1.39-3.51s.43-2.51,1.3-3.4c.87-.89,1.97-1.33,3.31-1.33,1.14,0,2.27.36,3.38,1.08v7.5c-1.01.71-2.05,1.06-3.13,1.06Z"/><rect class="cls-6" x="116.65" y="10.49" width="1.25" height="2.12"/><rect class="cls-6" x="116.65" y="16.51" width="1.25" height="11.61"/><path class="cls-6" d="m122.39,22.42c-1.17.73-1.75,1.72-1.75,2.98,0,.82.3,1.51.91,2.08.61.57,1.35.86,2.22.86,1.2,0,2.41-.48,3.63-1.44.05.58.13.97.24,1.15.11.19.31.28.59.28.5,0,1.28-.4,2.35-1.21v-1.03c-.87.69-1.42,1.03-1.65,1.03-.19,0-.28-.2-.28-.59v-7.23c0-.98-.34-1.73-1.02-2.25-.68-.52-1.55-.78-2.6-.78-1.19,0-2.44.41-3.75,1.24v1.27c1.27-.98,2.45-1.48,3.55-1.48,1.72,0,2.57.79,2.57,2.37v1.48c-2.17.11-3.84.53-5.01,1.26Zm5.01,3.4c-1.09,1-2.17,1.5-3.23,1.5-.66,0-1.2-.19-1.64-.56-.44-.37-.66-.82-.66-1.36,0-.96.52-1.75,1.57-2.37,1.05-.62,2.37-.9,3.96-.84v3.62Z"/><path class="cls-6" d="m86.44,46.37c1.05-.83,1.57-1.96,1.57-3.37,0-2.36-1.34-3.82-4.02-4.41,1.67-.9,2.5-2.19,2.5-3.87,0-1.4-.49-2.5-1.47-3.3s-2.42-1.19-4.32-1.19h-3.62v17.38h5.09c1.79,0,3.21-.42,4.26-1.25Zm-8.01-15.01h1.82c3.19,0,4.79,1.16,4.79,3.47s-1.58,3.46-4.74,3.46h-1.87v-6.93Zm0,15.14v-7.08h3.01c3.42,0,5.13,1.19,5.13,3.56,0,1.07-.39,1.92-1.16,2.56-.77.64-1.9.96-3.39.96h-3.6Z"/><path class="cls-6" d="m92.54,45.25c1.78,1.73,3.95,2.59,6.51,2.59s4.75-.86,6.54-2.59c1.79-1.73,2.68-3.84,2.68-6.32s-.89-4.6-2.68-6.33-3.97-2.59-6.54-2.59-4.73.87-6.51,2.59-2.67,3.84-2.67,6.33.89,4.59,2.67,6.32Zm1.05-11.77c1.51-1.48,3.35-2.22,5.52-2.22s3.99.74,5.48,2.22c1.49,1.48,2.23,3.3,2.23,5.46s-.74,3.96-2.23,5.44c-1.49,1.48-3.32,2.22-5.48,2.22s-4.01-.74-5.52-2.22c-1.51-1.48-2.26-3.3-2.26-5.44s.75-3.98,2.26-5.46Z"/><polygon class="cls-6" points="110.42 30.24 108.7 30.24 116.16 38.72 108.28 47.62 110.01 47.62 117.05 39.67 124.09 47.62 125.82 47.62 117.93 38.71 125.38 30.24 123.66 30.24 117.05 37.71 110.42 30.24"/><polygon class="cls-3" points="157.97 59.45 185.39 28.61 160.47 .04 152.53 .12 177.6 28.53 150.18 59.53 157.97 59.45"/><polygon class="cls-5" points="163.57 .08 188.65 28.49 161.23 59.49 169.02 59.41 196.4 28.57 171.52 0 163.57 .08"/><polygon class="cls-4" points="174.42 .08 199.5 28.49 172.08 59.49 179.87 59.41 207.25 28.57 182.37 0 174.42 .08"/></g></g></svg>