<?xml version="1.0" encoding="utf-8"?>
<!-- Generator: Adobe Illustrator 26.3.1, SVG Export Plug-In . SVG Version: 6.00 Build 0)  -->
<svg version="1.1" id="Layer_1" xmlns="http://www.w3.org/2000/svg" xmlns:xlink="http://www.w3.org/1999/xlink" x="0px" y="0px"
	 viewBox="0 0 706.3 323.5" style="enable-background:new 0 0 706.3 323.5;" xml:space="preserve">
<style type="text/css">
	.st0{fill:#52A785;}
	.st1{fill:#887562;}
</style>
<g id="treeanimate1">
	<g>
		<g>
			<path class="st0" d="M244.3,25.6c0,0,4,7,2.6,11.8c-1.5,4.8-7,6.9-7,6.9s-2.5-6.7-1.4-10.5C239.5,29.9,244.3,25.6,244.3,25.6"/>
			<path class="st0" d="M258.5,41.7c0,0-3.8,6.5-8.4,7.6c-4.6,1.1-8.9-2.5-8.9-2.5s4.3-5.2,7.9-6.1
				C252.8,39.8,258.5,41.7,258.5,41.7"/>
			<path class="st0" d="M244.7,58.1c0,0,5.1,2.6,6.1,6.1s-1.6,6.9-1.6,6.9s-4.1-3.1-4.9-5.8C243.4,62.6,244.7,58.1,244.7,58.1"/>
			<path class="st0" d="M258.6,64.4c0,0,3.5,4.6,2.9,8.2s-4.4,5.5-4.4,5.5s-2.4-4.5-1.9-7.3C255.5,67.9,258.6,64.4,258.6,64.4"/>
			<path class="st0" d="M277,74.4c0,0-4.5,5.5-9,5.7c-4.4,0.3-7.8-3.7-7.8-3.7s4.7-4.1,8.3-4.4C272,71.7,277,74.4,277,74.4"/>
			<path class="st0" d="M276.9,93c0,0,1.3,7.6-1.6,11.5s-8.6,3.9-8.6,3.9s0-6.8,2.2-10C271.1,95.3,276.9,93,276.9,93"/>
			<path class="st0" d="M209.9,32.5c0,0,7.5-2.7,11.9-0.4s5.4,8,5.4,8s-6.9,1.3-10.5-0.4C213.2,38,209.9,32.5,209.9,32.5"/>
			<path class="st0" d="M229,20c0,0,5.7,5.5,5.6,10.5c-0.1,5-4.8,8.4-4.8,8.4s-4.2-5.7-4.2-9.6C225.5,25.3,229,20,229,20"/>
			<path class="st0" d="M234.3,69.8c0,0,5.5-1.6,8.6,0.2c3.1,1.8,3.6,6.1,3.6,6.1s-5.1,0.6-7.6-0.8
				C236.5,73.9,234.3,69.8,234.3,69.8"/>
			<path class="st0" d="M185.7,106c0,0-3.3-4.7-2.6-8.3c0.7-3.5,4.6-5.3,4.6-5.3s2.2,4.6,1.7,7.4S185.7,106,185.7,106"/>
			<path class="st0" d="M174.8,69.5c0,0,8.1-2.8,12.9-0.3c4.8,2.5,5.8,8.8,5.8,8.8s-7.5,1.3-11.4-0.6
				C178.3,75.4,174.8,69.5,174.8,69.5"/>
			<path class="st0" d="M192.8,62.5c0,0,6.9,1.5,9.2,5.3s0.3,8.7,0.3,8.7s-5.8-2.3-7.7-5.3C192.8,68.2,192.8,62.5,192.8,62.5"/>
			<path class="st0" d="M207.8,58.9c0,0,4.4,6.3,3.4,11.1c-1,4.8-6.2,7.1-6.2,7.1s-2.9-6.2-2.2-10C203.5,63.4,207.8,58.9,207.8,58.9
				"/>
			<path class="st0" d="M296.6,120.9c0,0-6.9,1.4-10.6-1.2c-3.6-2.6-3.7-7.8-3.7-7.8s6.3-0.2,9.2,1.8
				C294.4,115.6,296.6,120.9,296.6,120.9"/>
			<path class="st0" d="M280.9,133.4c0,0-7.2,2.8-11.6,0.7s-5.4-7.7-5.4-7.7s6.7-1.4,10.2,0.2C277.5,128.2,280.9,133.4,280.9,133.4"
				/>
			<path class="st0" d="M256,102.2c0,0-5.1,1.9-8.1,0.5c-3.1-1.5-3.8-5.4-3.8-5.4s4.7-1,7.2,0.2C253.7,98.5,256,102.2,256,102.2"/>
			<path class="st0" d="M299.9,100.3c0,0-2,7.5-6.3,9.8s-9.4-0.1-9.4-0.1s2.8-6.2,6.2-8.1C293.7,99.9,299.9,100.3,299.9,100.3"/>
			<path class="st0" d="M174.4,83.9c0,0,5.7-0.7,8.5,1.6c2.8,2.3,2.6,6.6,2.6,6.6s-5.1-0.2-7.3-2C175.8,88.3,174.4,83.9,174.4,83.9"
				/>
			<path class="st0" d="M201.2,100c0,0,5.5,3.8,6.1,7.9s-2.8,7.6-2.8,7.6s-4.2-4.1-4.8-7.3C199.1,105,201.2,100,201.2,100"/>
			<path class="st0" d="M214.1,83.6c0,0,5.5,3.8,6.1,7.9s-2.8,7.6-2.8,7.6s-4.2-4.1-4.8-7.3C212,88.5,214.1,83.6,214.1,83.6"/>
			<path class="st0" d="M259.2,91.8c0,0,6.3,3.4,7.4,7.8c1.1,4.3-2.2,8.4-2.2,8.4s-5-3.9-5.9-7.3C257.5,97.3,259.2,91.8,259.2,91.8"
				/>
			<path class="st0" d="M248.8,111.8c0,0,6.3,3.4,7.4,7.8c1.1,4.3-2.2,8.4-2.2,8.4s-5-3.9-5.9-7.3
				C247.1,117.3,248.8,111.8,248.8,111.8"/>
			<path class="st0" d="M257.8,145.1c0,0-3.8-6-2.7-10.4c1.1-4.3,6-6.4,6-6.4s2.5,5.8,1.7,9.3C262,141.1,257.8,145.1,257.8,145.1"/>
			<path class="st0" d="M186.2,142.3c0,0-1.8-6.9,0.5-10.7c2.4-3.8,7.6-4.2,7.6-4.2s0.6,6.3-1.2,9.3
				C191.4,139.8,186.2,142.3,186.2,142.3"/>
		</g>
		<path class="st0" d="M173,102.4c0,0,6.9,2.8,8.6,7.3c1.7,4.4-1.3,9.1-1.3,9.1s-5.7-3.5-7.1-7C171.8,108.3,173,102.4,173,102.4"/>
		<path class="st0" d="M160.8,120.4c0,0,4.5-5.5,9-5.8s7.9,3.7,7.9,3.7s-4.8,4.2-8.3,4.5S160.8,120.4,160.8,120.4"/>
		<path class="st0" d="M168.3,131.9c0,0,0.6-7.1,4.1-9.9s8.6-1.5,8.6-1.5s-1.5,6.1-4.2,8.4C174,131.2,168.3,131.9,168.3,131.9"/>
	</g>
	<g>
		<polygon class="st1" points="223.8,194 228.1,29.3 232.4,194 		"/>
	</g>
	<g>
		<path class="st1" d="M243.2,41c-2.6,7.4-6.9,15.3-15,17.8l-0.8-4.2c1.5-0.2,3.1-0.7,4.7-1.5C236.8,50.4,240.4,45.8,243.2,41
			L243.2,41z"/>
	</g>
	<g>
		<path class="st1" d="M227.8,107.8c-14.6-6.1-29.8-16.1-34.9-31.8c1.5,3.7,3.7,7.1,6.3,10c5.2,5.9,12,10.2,19,13.6
			c3.5,1.7,7.2,3.1,10.9,4.2L227.8,107.8L227.8,107.8z"/>
	</g>
	<g>
		<path class="st1" d="M208.6,97c-3.4-10-6.5-20.7-5.3-31.3c-0.3,5.3,0.8,10.5,2.2,15.6c1.4,5,3.3,10,5.4,14.8
			C210.9,96,208.6,97,208.6,97L208.6,97z"/>
	</g>
	<g>
		<path class="st1" d="M225.8,136.7c-17.1-2.7-33.8-8.7-48.1-18.4c14,7.8,29.7,12.5,45.7,13.9c1,0.1,2.4,0.2,3.4,0.3
			C226.7,132.5,225.8,136.7,225.8,136.7L225.8,136.7z"/>
	</g>
	<g>
		<path class="st1" d="M211.4,132.6c-2.4-3.8-4.9-9.1-6.2-13.8c-0.5-1.6-0.9-3.3-1.2-5c0.5,1.6,1.1,3.2,1.8,4.8
			c1.9,4.5,4.5,8.6,7.5,12.4c0.2,0.2,0.4,0.5,0.5,0.8C213.7,131.8,211.4,132.6,211.4,132.6L211.4,132.6z"/>
	</g>
	<g>
		<path class="st1" d="M230.8,130.3c12.5,0.3,25.4-2.3,36.6-8.1c11.4-5.8,20.6-15.8,25.4-27.7c-1.7,4.6-3.8,9-6.6,13
			c-8.3,12.3-21.8,20.3-36,24.1c-6.5,1.7-12.9,2.8-19.6,2.9C230.6,134.6,230.8,130.3,230.8,130.3L230.8,130.3z"/>
	</g>
	<g>
		<path class="st1" d="M253.8,127.8c6-6.8,10.3-15.3,12.6-24.1c0.8-3,1.3-6,1.6-9.1c-0.1,3.1-0.4,6.2-1,9.3
			c-1.8,9.3-5.6,18.1-11.4,25.6C255.6,129.5,253.8,127.8,253.8,127.8L253.8,127.8z"/>
	</g>
	<g>
		<path class="st1" d="M260,119.5c1.3-6.9-1.6-14.1-5.6-19.7c-0.6-0.8-1.3-1.6-1.9-2.4c0.7,0.8,1.4,1.5,2.1,2.3
			c3.3,4,5.9,8.7,6.9,13.8c0.4,2.1,0.6,4.2,0.2,6.4C261.7,119.9,260,119.5,260,119.5L260,119.5z"/>
	</g>
	<g>
		<path class="st1" d="M228.1,90.1c16-2.5,30.7-11.8,40.8-24.3l2.1-2.6c-1.2,1.6-2.5,3.9-3.8,5.4c-8.1,10.7-19.2,19.1-31.8,23.8
			c-2.2,0.8-4.3,1.4-6.7,1.9C228.7,94.3,228.1,90.1,228.1,90.1L228.1,90.1z"/>
	</g>
	<g>
		<path class="st1" d="M237,89c3.6-4.4,6.9-9.1,10-14c2.9-4.9,6-9.9,6.9-15.6c-0.2,2.9-1.1,5.7-2.2,8.4c-3.3,8.1-7.8,15.5-12.7,22.7
			C238.9,90.5,237,89,237,89L237,89z"/>
	</g>
	<g>
		<path class="st1" d="M249.1,82.9c9,2.5,23.8,6,32.1,0.6c-2.2,1.8-4.9,2.7-7.7,3.2c-8.4,1.4-16.9,0.3-25.1-1.4
			C248.4,85.3,249.1,82.9,249.1,82.9L249.1,82.9z"/>
	</g>
	<g>
		<path class="st1" d="M201.1,90.3c-9.6,2.5-25.2,5.9-34,0.2c2.5,1.5,5.4,2,8.2,2.2c8.5,0.3,17-2,25-4.8
			C200.3,87.9,201.1,90.3,201.1,90.3L201.1,90.3z"/>
	</g>
</g>
<g id="treeanimate2">
	<g>
		<g>
			<path class="st0" d="M371.9,18.2c0,0-5.2,8.9-3.3,15.2c1.9,6.2,9,8.8,9,8.8s3.2-8.6,1.9-13.5C378.1,23.8,371.9,18.2,371.9,18.2"
				/>
			<path class="st0" d="M353.6,39c0,0,4.8,8.4,10.8,9.8c5.9,1.4,11.4-3.2,11.4-3.2s-5.5-6.6-10.1-7.9C361.1,36.5,353.6,39,353.6,39"
				/>
			<path class="st0" d="M371.5,60c0,0-6.6,3.4-7.9,7.9s2,8.8,2,8.8s5.2-3.9,6.3-7.4C373.1,65.8,371.5,60,371.5,60"/>
			<path class="st0" d="M353.5,68.2c0,0-4.5,5.9-3.7,10.5s5.7,7,5.7,7s3-5.8,2.5-9.4C357.5,72.6,353.5,68.2,353.5,68.2"/>
			<path class="st0" d="M329.9,81c0,0,5.8,7,11.5,7.4s10.1-4.8,10.1-4.8s-6.1-5.3-10.6-5.7C336.4,77.5,329.9,81,329.9,81"/>
			<path class="st0" d="M330,104.9c0,0-1.7,9.8,2,14.8s11.1,5,11.1,5s0.1-8.8-2.8-12.8C337.5,107.8,330,104.9,330,104.9"/>
			<path class="st0" d="M416.2,27.2c0,0-9.6-3.4-15.3-0.5c-5.7,2.9-7,10.3-7,10.3s8.9,1.6,13.4-0.6
				C411.9,34.2,416.2,27.2,416.2,27.2"/>
			<path class="st0" d="M391.6,11c0,0-7.3,7.1-7.2,13.5c0.1,6.4,6.2,10.8,6.2,10.8S396,28,396,23C396.1,17.9,391.6,11,391.6,11"/>
			<path class="st0" d="M384.7,75.1c0,0-7.1-2.1-11.1,0.3s-4.6,7.8-4.6,7.8s6.5,0.8,9.7-1C382,80.3,384.7,75.1,384.7,75.1"/>
			<path class="st0" d="M447.3,121.5c0,0,4.3-6,3.3-10.6c-0.9-4.6-5.9-6.9-5.9-6.9s-2.8,5.9-2.2,9.5
				C443.2,117.2,447.3,121.5,447.3,121.5"/>
			<path class="st0" d="M461.2,74.6c0,0-10.4-3.7-16.6-0.4c-6.2,3.2-7.5,11.3-7.5,11.3s9.7,1.7,14.6-0.8
				C456.7,82.3,461.2,74.6,461.2,74.6"/>
			<path class="st0" d="M438.1,65.6c0,0-8.9,1.9-11.8,6.8s-0.4,11.1-0.4,11.1s7.5-3,9.9-6.8C438.1,73,438.1,65.6,438.1,65.6"/>
			<path class="st0" d="M418.8,61c0,0-5.7,8.1-4.4,14.2c1.3,6.1,8,9.2,8,9.2s3.8-7.9,2.8-12.8C424.3,66.8,418.8,61,418.8,61"/>
			<path class="st0" d="M304.7,140.6c0,0,8.9,1.8,13.6-1.5s4.8-10,4.8-10s-8.1-0.3-11.8,2.3C307.6,133.9,304.7,140.6,304.7,140.6"/>
			<path class="st0" d="M325,156.8c0,0,9.3,3.6,14.9,0.8c5.6-2.7,7-9.9,7-9.9s-8.6-1.7-13.1,0.3C329.2,150,325,156.8,325,156.8"/>
			<path class="st0" d="M356.9,116.7c0,0,6.5,2.5,10.5,0.6c3.9-1.9,4.9-7,4.9-7s-6.1-1.2-9.2,0.2
				C359.9,111.9,356.9,116.7,356.9,116.7"/>
			<path class="st0" d="M300.5,114.2c0,0,2.5,9.6,8,12.6c5.5,3,12.1-0.1,12.1-0.1s-3.6-8-7.9-10.4
				C308.5,113.8,300.5,114.2,300.5,114.2"/>
			<path class="st0" d="M461.8,93.2c0,0-7.3-0.9-10.9,2.1s-3.3,8.4-3.3,8.4s6.5-0.3,9.4-2.6S461.8,93.2,461.8,93.2"/>
			<path class="st0" d="M427.4,113.9c0,0-7,4.8-7.8,10.2c-0.8,5.3,3.6,9.8,3.6,9.8s5.4-5.3,6.2-9.4
				C430.1,120.2,427.4,113.9,427.4,113.9"/>
			<path class="st0" d="M410.7,92.7c0,0-7,4.8-7.8,10.2c-0.8,5.3,3.6,9.8,3.6,9.8s5.4-5.3,6.2-9.4C413.4,99.1,410.7,92.7,410.7,92.7
				"/>
			<path class="st0" d="M352.8,103.3c0,0-8,4.4-9.5,10c-1.4,5.6,2.8,10.8,2.8,10.8s6.4-5,7.6-9.4C355,110.4,352.8,103.3,352.8,103.3
				"/>
			<path class="st0" d="M366.2,129c0,0-8,4.4-9.5,10c-1.4,5.6,2.8,10.8,2.8,10.8s6.4-5,7.6-9.4C368.4,136.1,366.2,129,366.2,129"/>
			<path class="st0" d="M354.5,171.7c0,0,4.9-7.7,3.5-13.3s-7.7-8.2-7.7-8.2s-3.2,7.5-2.2,11.9C349.2,166.6,354.5,171.7,354.5,171.7
				"/>
			<path class="st0" d="M446.5,168.2c0,0,2.3-8.9-0.7-13.7c-3-4.9-9.8-5.4-9.8-5.4s-0.8,8.1,1.6,12
				C439.9,164.9,446.5,168.2,446.5,168.2"/>
		</g>
		<path class="st0" d="M463.6,116.9c0,0-8.9,3.7-11.1,9.3c-2.2,5.7,1.6,11.7,1.6,11.7s7.3-4.5,9.1-8.9
			C465,124.5,463.6,116.9,463.6,116.9"/>
		<path class="st0" d="M479.2,140.1c0,0-5.8-7.1-11.5-7.5s-10.1,4.7-10.1,4.7s6.1,5.3,10.6,5.8C472.7,143.5,479.2,140.1,479.2,140.1
			"/>
		<path class="st0" d="M469.5,154.9c0,0-0.7-9.1-5.2-12.7c-4.5-3.6-11-1.9-11-1.9s2,7.9,5.4,10.8C462.2,154,469.5,154.9,469.5,154.9
			"/>
	</g>
	<g>
		<polygon class="st1" points="387.3,234.6 392.7,23 398.2,234.6 		"/>
	</g>
	<g>
		<path class="st1" d="M373.4,38.1c3.5,6.1,8.1,12,14.2,15.5c2,1,4,1.7,6,1.9l-1,5.4C382.3,57.7,376.8,47.5,373.4,38.1L373.4,38.1z"
			/>
	</g>
	<g>
		<path class="st1" d="M391.5,118.6c14.3-4.4,28.3-11.6,38.4-22.8c3.4-3.8,6.2-8.1,8.1-12.9c-2.3,7.4-6.7,14.1-12.1,19.7
			c-9.2,9.4-20.6,16.3-32.8,21.2C393.2,123.8,391.5,118.6,391.5,118.6L391.5,118.6z"/>
	</g>
	<g>
		<path class="st1" d="M414.9,108.8c5.3-12.3,10.2-25.4,9.8-39c0.5,3.4,0.4,6.8,0.2,10.2c-0.9,10.3-3.6,20.3-7,30
			C417.8,110,414.9,108.8,414.9,108.8L414.9,108.8z"/>
	</g>
	<g>
		<path class="st1" d="M394.5,155.6c1.2-0.2,3.1-0.3,4.3-0.4c20.5-1.8,40.6-7.8,58.6-17.9c-4.6,3-9.4,6-14.3,8.4
			c-13.7,7-28.5,11.9-43.6,14.5c-1,0.2-2.9,0.5-3.9,0.7C395.7,161,394.5,155.6,394.5,155.6L394.5,155.6z"/>
	</g>
	<g>
		<path class="st1" d="M411.2,154.6c0.3-0.6,0.8-1.2,1.2-1.7c4.9-6.5,9-13.7,11.4-21.5c-1.5,8.2-4.8,16-8.9,23.1
			c-0.2,0.3-0.6,0.9-0.7,1.2v-0.1L411.2,154.6L411.2,154.6z"/>
	</g>
	<g>
		<path class="st1" d="M389.5,158.3c-29.1-0.8-60.3-13.6-74.7-40c-2.1-3.6-3.7-7.5-5.1-11.3c2.5,5.7,5.5,11.1,9.2,16.1
			c15,19.8,40.3,28.9,64.5,29.8c2,0.1,4.1,0.1,5.9,0C389.3,152.8,389.5,158.3,389.5,158.3L389.5,158.3z"/>
	</g>
	<g>
		<path class="st1" d="M357.4,151.7c-9.8-12.9-15.4-28.7-15.9-44.8c0.4,4,1,7.9,2.1,11.7c2,7.6,5.2,14.9,9.3,21.6
			c2.1,3.3,4.4,6.6,6.9,9.4C359.8,149.6,357.4,151.7,357.4,151.7L357.4,151.7z"/>
	</g>
	<g>
		<path class="st1" d="M349.6,139.4c-1.2-9.5,3.2-18.8,9.2-26c0.9-1,1.8-2,2.7-2.9c-0.8,1-1.6,2.1-2.4,3.1
			c-5.1,7.2-8.9,16.4-7.2,25.3C351.8,138.9,349.6,139.4,349.6,139.4L349.6,139.4z"/>
	</g>
	<g>
		<path class="st1" d="M392,106.5c-21.1-4.9-39.8-18.7-51.9-36.5l-2.4-3.5c1.6,2,3.7,4.7,5.4,6.6c12,13.5,28.1,23.5,45.8,27.4
			c1.3,0.3,2.7,0.5,3.9,0.7C392.7,101.1,392,106.5,392,106.5L392,106.5z"/>
	</g>
	<g>
		<path class="st1" d="M378.8,101.6c-4.2-6.2-8.1-12.5-11.6-19.1c-3.3-6.6-6.8-13.4-7.5-20.8c1.2,7.3,5.1,13.8,8.9,20
			c3.9,6.2,8.2,12.2,12.8,17.9C381.4,99.6,378.8,101.6,378.8,101.6L378.8,101.6z"/>
	</g>
	<g>
		<path class="st1" d="M366.6,94.9c-11.8,2.4-32,5.5-42.1-2.3c2.9,2.1,6.5,2.9,10,3.3c7,0.7,14.1-0.2,21.1-1.6
			c3.5-0.7,6.9-1.5,10.2-2.5L366.6,94.9L366.6,94.9z"/>
	</g>
	<g>
		<path class="st1" d="M428.4,98.3c11.6,4,31.4,9.7,42.6,3.3c-3,2.2-6.8,3.1-10.5,3.6c-11.2,1.2-22.4-1-33.2-3.9
			C427.4,101.3,428.4,98.3,428.4,98.3L428.4,98.3z"/>
	</g>
</g>
<g id="treeanimate3">
	<g>
		<g>
			<path class="st0" d="M574.5,135c0,0,4.1,7.1,2.6,12s-7.1,7-7.1,7s-2.5-6.8-1.5-10.7C569.6,139.3,574.5,135,574.5,135"/>
			<path class="st0" d="M588.9,151.4c0,0-3.8,6.6-8.5,7.8c-4.7,1.1-9-2.5-9-2.5s4.3-5.2,8-6.2C583.1,149.4,588.9,151.4,588.9,151.4"
				/>
			<path class="st0" d="M574.8,168c0,0,5.2,2.7,6.2,6.2s-1.6,7-1.6,7s-4.1-3.1-5-5.9C573.6,172.5,574.8,168,574.8,168"/>
			<path class="st0" d="M589,174.4c0,0,3.5,4.7,2.9,8.3s-4.5,5.6-4.5,5.6s-2.4-4.6-2-7.5C585.9,177.9,589,174.4,589,174.4"/>
			<path class="st0" d="M607.6,184.5c0,0-4.6,5.5-9.1,5.8s-7.9-3.8-7.9-3.8s4.8-4.2,8.4-4.5C602.5,181.8,607.6,184.5,607.6,184.5"/>
			<path class="st0" d="M607.6,203.4c0,0,1.3,7.7-1.6,11.7c-3,3.9-8.7,3.9-8.7,3.9s0-6.9,2.2-10.1
				C601.7,205.7,607.6,203.4,607.6,203.4"/>
			<path class="st0" d="M539.5,142c0,0,7.6-2.7,12.1-0.4s5.5,8.2,5.5,8.2s-7,1.3-10.6-0.5C542.9,147.6,539.5,142,539.5,142"/>
			<path class="st0" d="M558.9,129.3c0,0,5.8,5.6,5.7,10.7c-0.1,5.1-4.9,8.5-4.9,8.5s-4.2-5.7-4.3-9.7
				C555.4,134.7,558.9,129.3,558.9,129.3"/>
			<path class="st0" d="M564.3,179.8c0,0,5.6-1.6,8.8,0.2c3.2,1.9,3.6,6.2,3.6,6.2s-5.1,0.6-7.7-0.8
				C566.5,184,564.3,179.8,564.3,179.8"/>
			<path class="st0" d="M515,216.5c0,0-3.4-4.8-2.6-8.4c0.7-3.6,4.7-5.4,4.7-5.4s2.2,4.7,1.7,7.5C518.2,213.1,515,216.5,515,216.5"
				/>
			<path class="st0" d="M503.9,179.5c0,0,8.2-2.9,13.1-0.4s5.9,8.9,5.9,8.9s-7.6,1.3-11.5-0.6C507.5,185.6,503.9,179.5,503.9,179.5"
				/>
			<path class="st0" d="M522.2,172.4c0,0,7,1.5,9.4,5.4c2.3,3.9,0.3,8.8,0.3,8.8s-5.9-2.4-7.8-5.4
				C522.2,178.2,522.2,172.4,522.2,172.4"/>
			<path class="st0" d="M537.4,168.8c0,0,4.5,6.4,3.5,11.3c-1,4.8-6.3,7.2-6.3,7.2s-3-6.3-2.2-10.1
				C533.1,173.3,537.4,168.8,537.4,168.8"/>
			<path class="st0" d="M627.5,231.6c0,0-7.1,1.4-10.7-1.2c-3.7-2.6-3.8-7.9-3.8-7.9s6.4-0.2,9.3,1.8
				C625.3,226.3,627.5,231.6,627.5,231.6"/>
			<path class="st0" d="M611.6,244.4c0,0-7.3,2.8-11.8,0.7c-4.4-2.1-5.5-7.8-5.5-7.8s6.8-1.4,10.3,0.2
				C608.2,239.1,611.6,244.4,611.6,244.4"/>
			<path class="st0" d="M586.4,212.7c0,0-5.1,2-8.3,0.5c-3.1-1.5-3.9-5.5-3.9-5.5s4.8-1,7.3,0.2C584,209,586.4,212.7,586.4,212.7"/>
			<path class="st0" d="M630.9,210.8c0,0-2,7.6-6.3,9.9c-4.3,2.3-9.6-0.1-9.6-0.1s2.9-6.3,6.2-8.3
				C624.6,210.4,630.9,210.8,630.9,210.8"/>
			<path class="st0" d="M503.5,194.2c0,0,5.8-0.7,8.6,1.6s2.6,6.7,2.6,6.7s-5.2-0.2-7.4-2C505,198.6,503.5,194.2,503.5,194.2"/>
			<path class="st0" d="M530.7,210.5c0,0,5.6,3.8,6.2,8c0.6,4.2-2.9,7.7-2.9,7.7s-4.3-4.2-4.9-7.5
				C528.6,215.5,530.7,210.5,530.7,210.5"/>
			<path class="st0" d="M543.8,193.8c0,0,5.6,3.8,6.2,8c0.6,4.2-2.9,7.7-2.9,7.7s-4.3-4.2-4.9-7.5
				C541.7,198.8,543.8,193.8,543.8,193.8"/>
			<path class="st0" d="M589.6,202.2c0,0,6.3,3.5,7.5,7.9c1.1,4.4-2.2,8.6-2.2,8.6s-5-4-6-7.4C587.9,207.8,589.6,202.2,589.6,202.2"
				/>
			<path class="st0" d="M579,222.5c0,0,6.3,3.5,7.5,7.9c1.1,4.4-2.2,8.6-2.2,8.6s-5-4-6-7.4C577.3,228,579,222.5,579,222.5"/>
			<path class="st0" d="M588.2,256.2c0,0-3.9-6.1-2.8-10.5c1.1-4.4,6.1-6.4,6.1-6.4s2.5,5.9,1.7,9.4
				C592.4,252.1,588.2,256.2,588.2,256.2"/>
			<path class="st0" d="M515.6,253.4c0,0-1.9-7,0.6-10.9c2.4-3.9,7.7-4.3,7.7-4.3s0.6,6.4-1.2,9.5
				C520.8,250.8,515.6,253.4,515.6,253.4"/>
		</g>
		<path class="st0" d="M502.1,212.9c0,0,7,2.9,8.7,7.4c1.7,4.5-1.3,9.2-1.3,9.2s-5.7-3.6-7.2-7.1
			C500.9,218.9,502.1,212.9,502.1,212.9"/>
		<path class="st0" d="M489.7,231.2c0,0,4.6-5.6,9.1-5.9c4.5-0.3,8,3.7,8,3.7s-4.8,4.2-8.4,4.5C494.9,233.9,489.7,231.2,489.7,231.2
			"/>
		<path class="st0" d="M497.4,242.9c0,0,0.6-7.2,4.1-10.1c3.5-2.8,8.7-1.5,8.7-1.5s-1.6,6.2-4.3,8.5
			C503.2,242.2,497.4,242.9,497.4,242.9"/>
	</g>
	<g>
		<polygon class="st1" points="553.7,305.8 558,138.7 562.4,305.8 		"/>
	</g>
	<g>
		<path class="st1" d="M573.3,150.6c-2.7,7.5-7,15.5-15.2,18l-0.8-4.3c1.6-0.2,3.2-0.7,4.7-1.5C566.9,160.2,570.5,155.5,573.3,150.6
			L573.3,150.6z"/>
	</g>
	<g>
		<path class="st1" d="M557.7,218.4c-14.8-6.2-30.3-16.4-35.4-32.3c1.5,3.7,3.7,7.2,6.4,10.2c5.3,6,12.1,10.4,19.3,13.8
			c3.6,1.7,7.3,3.2,11,4.2C559,214.3,557.7,218.4,557.7,218.4L557.7,218.4z"/>
	</g>
	<g>
		<path class="st1" d="M538.2,207.4c-3.5-10.2-6.6-21-5.4-31.8c-0.3,5.4,0.8,10.7,2.2,15.8s3.3,10.2,5.5,15
			C540.6,206.5,538.2,207.4,538.2,207.4L538.2,207.4z"/>
	</g>
	<g>
		<path class="st1" d="M555.7,247.7c-17.4-2.7-34.3-8.8-48.9-18.7c14.2,7.9,30.1,12.7,46.3,14.1c1,0.1,2.5,0.2,3.4,0.3
			C556.6,243.5,555.7,247.7,555.7,247.7L555.7,247.7z"/>
	</g>
	<g>
		<path class="st1" d="M541.1,243.5c-2.4-3.9-4.9-9.2-6.3-14c-0.5-1.7-0.9-3.4-1.2-5.1c0.5,1.6,1.1,3.3,1.8,4.8
			c2,4.5,4.6,8.7,7.6,12.6c0.2,0.2,0.4,0.5,0.5,0.8C543.4,242.7,541.1,243.5,541.1,243.5L541.1,243.5z"/>
	</g>
	<g>
		<path class="st1" d="M560.7,241.3c12.7,0.3,25.8-2.3,37.1-8.2c11.6-5.9,20.9-16,25.8-28.1c-1.7,4.6-3.9,9.1-6.6,13.2
			c-8.4,12.5-22.1,20.6-36.5,24.5c-6.6,1.7-13.1,2.8-19.9,2.9C560.6,245.6,560.7,241.3,560.7,241.3L560.7,241.3z"/>
	</g>
	<g>
		<path class="st1" d="M584.1,238.7c6-6.9,10.5-15.5,12.8-24.5c0.8-3,1.3-6.1,1.6-9.2c-0.2,9.5-2.9,18.9-7.4,27.3
			c-1.5,2.8-3.2,5.5-5.2,8.1L584.1,238.7L584.1,238.7z"/>
	</g>
	<g>
		<path class="st1" d="M590.4,230.3c1.4-7-1.6-14.3-5.7-20c-0.6-0.8-1.3-1.6-1.9-2.5c1.4,1.5,2.8,3.1,4,4.8c3.7,5.2,6.2,11.5,5.3,18
			C592.1,230.7,590.4,230.3,590.4,230.3L590.4,230.3z"/>
	</g>
	<g>
		<path class="st1" d="M558,200.4c16.2-2.5,31.1-12,41.4-24.7l2.1-2.6c-1.2,1.6-2.6,4-3.8,5.5c-8.2,10.9-19.5,19.4-32.3,24.1
			c-2.2,0.8-4.3,1.5-6.8,2C558.6,204.7,558,200.4,558,200.4L558,200.4z"/>
	</g>
	<g>
		<path class="st1" d="M567,199.3c3.6-4.5,7-9.3,10.1-14.2c3-4.9,6.1-10.1,7-15.8c-0.2,2.9-1.2,5.8-2.2,8.5c-3.3,8.2-8,15.7-12.9,23
			C569,200.8,567,199.3,567,199.3L567,199.3z"/>
	</g>
	<g>
		<path class="st1" d="M579.3,193.1c9.2,2.5,24.1,6.1,32.6,0.6c-2.2,1.8-5,2.7-7.8,3.3c-8.5,1.4-17.1,0.3-25.5-1.4
			C578.6,195.5,579.3,193.1,579.3,193.1L579.3,193.1z"/>
	</g>
	<g>
		<path class="st1" d="M530.6,200.6c-9.7,2.5-25.6,6-34.5,0.2c2.5,1.5,5.4,2,8.3,2.2c5.8,0.2,11.5-0.8,17.1-2.3
			c2.8-0.7,5.6-1.6,8.2-2.6C529.8,198.2,530.6,200.6,530.6,200.6L530.6,200.6z"/>
	</g>
</g>
</svg>
