<?xml version="1.0" encoding="utf-8"?>
<!-- Generator: Adobe Illustrator 26.3.1, SVG Export Plug-In . SVG Version: 6.00 Build 0)  -->
<svg version="1.1" id="Layer_1" xmlns="http://www.w3.org/2000/svg" xmlns:xlink="http://www.w3.org/1999/xlink" x="0px" y="0px"
	 viewBox="0 0 496.6 323.5" style="enable-background:new 0 0 496.6 323.5;" xml:space="preserve">
<style type="text/css">
	.st0{fill:#52A785;}
	.st1{fill:#887562;}
</style>
<g>
	<g>
		<g>
			<path class="st0" d="M510.9,12.8c0,0,3.6,6.2,2.3,10.5c-1.3,4.3-6.3,6.1-6.3,6.1s-2.2-5.9-1.3-9.4
				C506.6,16.6,510.9,12.8,510.9,12.8"/>
			<path class="st0" d="M523.6,27.2c0,0-3.4,5.8-7.5,6.8c-4.1,1-7.9-2.2-7.9-2.2s3.8-4.6,7-5.5C518.5,25.4,523.6,27.2,523.6,27.2"/>
			<path class="st0" d="M511.3,41.7c0,0,4.6,2.3,5.4,5.4c0.9,3.1-1.4,6.1-1.4,6.1s-3.6-2.7-4.4-5.1
				C510.1,45.7,511.3,41.7,511.3,41.7"/>
			<path class="st0" d="M523.7,47.4c0,0,3.1,4.1,2.5,7.3c-0.5,3.2-3.9,4.9-3.9,4.9s-2.1-4-1.7-6.5C520.9,50.5,523.7,47.4,523.7,47.4
				"/>
			<path class="st0" d="M540.1,56.3c0,0-4,4.9-8,5.1c-4,0.3-7-3.3-7-3.3s4.2-3.7,7.4-3.9C535.6,53.9,540.1,56.3,540.1,56.3"/>
			<path class="st0" d="M540,72.9c0,0,1.2,6.8-1.4,10.2c-2.6,3.5-7.7,3.4-7.7,3.4s0-6.1,1.9-8.9C534.8,74.9,540,72.9,540,72.9"/>
			<path class="st0" d="M480.2,18.9c0,0,6.7-2.4,10.6-0.4c4,2,4.8,7.2,4.8,7.2s-6.2,1.1-9.3-0.4C483.2,23.8,480.2,18.9,480.2,18.9"
				/>
			<path class="st0" d="M497.2,7.7c0,0,5.1,4.9,5,9.4c-0.1,4.4-4.3,7.5-4.3,7.5s-3.7-5-3.7-8.6C494.2,12.5,497.2,7.7,497.2,7.7"/>
			<path class="st0" d="M502,52.2c0,0,4.9-1.4,7.7,0.2c2.8,1.6,3.2,5.4,3.2,5.4s-4.5,0.5-6.7-0.7C504,55.8,502,52.2,502,52.2"/>
			<path class="st0" d="M458.7,84.4c0,0-3-4.2-2.3-7.4c0.7-3.2,4.1-4.8,4.1-4.8s2,4.1,1.5,6.6C461.5,81.4,458.7,84.4,458.7,84.4"/>
			<path class="st0" d="M449,51.9c0,0,7.2-2.5,11.5-0.3c4.3,2.2,5.2,7.8,5.2,7.8s-6.7,1.2-10.1-0.5C452.1,57.2,449,51.9,449,51.9"/>
			<path class="st0" d="M465,45.6c0,0,6.2,1.3,8.2,4.7c2,3.4,0.3,7.7,0.3,7.7s-5.2-2.1-6.9-4.7C465,50.7,465,45.6,465,45.6"/>
			<path class="st0" d="M478.4,42.4c0,0,3.9,5.6,3,9.9c-0.9,4.2-5.5,6.4-5.5,6.4s-2.6-5.5-2-8.9C474.6,46.4,478.4,42.4,478.4,42.4"
				/>
			<path class="st0" d="M557.5,97.7c0,0-6.2,1.2-9.4-1.1c-3.2-2.3-3.3-7-3.3-7s5.6-0.2,8.2,1.6C555.6,93,557.5,97.7,557.5,97.7"/>
			<path class="st0" d="M543.5,108.9c0,0-6.4,2.5-10.3,0.6c-3.9-1.9-4.9-6.9-4.9-6.9s6-1.2,9.1,0.2
				C540.5,104.2,543.5,108.9,543.5,108.9"/>
			<path class="st0" d="M521.4,81c0,0-4.5,1.7-7.3,0.4c-2.7-1.3-3.4-4.8-3.4-4.8s4.2-0.9,6.4,0.1C519.3,77.8,521.4,81,521.4,81"/>
			<path class="st0" d="M560.5,79.4c0,0-1.8,6.7-5.6,8.7c-3.8,2.1-8.4-0.1-8.4-0.1s2.5-5.6,5.5-7.2C554.9,79,560.5,79.4,560.5,79.4"
				/>
			<path class="st0" d="M448.6,64.8c0,0,5.1-0.6,7.6,1.4c2.5,2.1,2.3,5.8,2.3,5.8s-4.5-0.2-6.5-1.8
				C449.9,68.7,448.6,64.8,448.6,64.8"/>
			<path class="st0" d="M472.5,79.1c0,0,4.9,3.4,5.4,7c0.6,3.7-2.5,6.8-2.5,6.8s-3.8-3.7-4.3-6.5C470.6,83.5,472.5,79.1,472.5,79.1"
				/>
			<path class="st0" d="M484,64.4c0,0,4.9,3.4,5.4,7c0.6,3.7-2.5,6.8-2.5,6.8s-3.8-3.7-4.3-6.5C482.1,68.8,484,64.4,484,64.4"/>
			<path class="st0" d="M524.2,71.8c0,0,5.6,3.1,6.6,6.9c1,3.9-1.9,7.5-1.9,7.5s-4.4-3.5-5.3-6.5C522.7,76.7,524.2,71.8,524.2,71.8"
				/>
			<path class="st0" d="M514.9,89.6c0,0,5.6,3.1,6.6,6.9c1,3.9-1.9,7.5-1.9,7.5s-4.4-3.5-5.3-6.5C513.4,94.5,514.9,89.6,514.9,89.6"
				/>
			<path class="st0" d="M523,119.2c0,0-3.4-5.4-2.4-9.2c1-3.9,5.3-5.7,5.3-5.7s2.2,5.2,1.5,8.3C526.7,115.7,523,119.2,523,119.2"/>
			<path class="st0" d="M459.2,116.8c0,0-1.6-6.1,0.5-9.5c2.1-3.4,6.8-3.8,6.8-3.8s0.5,5.6-1.1,8.3
				C463.8,114.5,459.2,116.8,459.2,116.8"/>
		</g>
		<path class="st0" d="M447.3,81.2c0,0,6.2,2.5,7.7,6.5c1.5,3.9-1.1,8.1-1.1,8.1s-5-3.1-6.3-6.2C446.3,86.5,447.3,81.2,447.3,81.2"
			/>
		<path class="st0" d="M436.5,97.3c0,0,4-4.9,8-5.2c4-0.3,7,3.3,7,3.3s-4.2,3.7-7.4,4C441,99.7,436.5,97.3,436.5,97.3"/>
		<path class="st0" d="M443.2,107.5c0,0,0.5-6.3,3.6-8.8c3.1-2.5,7.7-1.3,7.7-1.3s-1.4,5.5-3.8,7.5
			C448.3,106.9,443.2,107.5,443.2,107.5"/>
	</g>
	<g>
		<polygon class="st1" points="492.7,162.8 496.5,16 500.3,162.8 492.7,162.8 		"/>
	</g>
	<g>
		<path class="st1" d="M509.9,26.5c-2.3,6.6-6.2,13.6-13.3,15.8c0,0-0.7-3.7-0.7-3.7c1.4-0.1,2.8-0.6,4.2-1.3
			C504.3,34.9,507.5,30.7,509.9,26.5L509.9,26.5z"/>
	</g>
	<g>
		<path class="st1" d="M496.2,86c-13.1-5.5-26.5-14.3-31.1-28.4c1.3,3.3,3.3,6.3,5.6,8.9c4.7,5.2,10.7,9.1,17,12.1
			c3.1,1.5,6.5,2.8,9.7,3.7C497.3,82.4,496.2,86,496.2,86L496.2,86z"/>
	</g>
	<g>
		<path class="st1" d="M479.1,76.4c-3-8.9-5.8-18.4-4.8-27.9c-0.2,4.7,0.7,9.4,2,13.9c1.3,4.5,2.9,8.9,4.8,13.2
			C481.1,75.5,479.1,76.4,479.1,76.4L479.1,76.4z"/>
	</g>
	<g>
		<path class="st1" d="M494.5,111.8c-15.2-2.4-30.1-7.8-42.9-16.4c12.5,7,26.5,11.1,40.7,12.4c0.9,0.1,2.2,0.2,3,0.3
			C495.2,108.1,494.5,111.8,494.5,111.8L494.5,111.8z"/>
	</g>
	<g>
		<path class="st1" d="M481.6,108.1c-2.1-3.4-4.3-8.1-5.6-12.3c-0.5-1.5-0.8-3-1.1-4.4c0.5,1.4,1,2.9,1.6,4.3c1.7,4,4,7.7,6.7,11.1
			c0.2,0.2,0.4,0.5,0.5,0.7C483.7,107.4,481.6,108.1,481.6,108.1L481.6,108.1z"/>
	</g>
	<g>
		<path class="st1" d="M498.9,106.1c16.7,0.4,34.5-4.9,46.1-17.4c3.9-4.2,6.9-9.1,9.2-14.4c-2,5.4-4.7,10.6-8.5,15
			c-7.4,9.1-18.2,15-29.5,18c-5.8,1.5-11.5,2.5-17.5,2.6C498.7,109.9,498.9,106.1,498.9,106.1L498.9,106.1z"/>
	</g>
	<g>
		<path class="st1" d="M519.4,103.9c7.1-8.2,11.7-18.8,12.7-29.6c-0.1,2.8-0.3,5.5-0.9,8.2c-1.6,8.3-5,16.1-10.1,22.8
			C521,105.3,519.4,103.9,519.4,103.9L519.4,103.9z"/>
	</g>
	<g>
		<path class="st1" d="M524.9,96.5c1.2-6.1-1.4-12.6-5-17.5c-0.5-0.7-1.1-1.4-1.7-2.2c1.2,1.3,2.5,2.7,3.5,4.2
			c3.2,4.6,5.4,10.1,4.7,15.9C526.4,96.8,524.9,96.5,524.9,96.5L524.9,96.5z"/>
	</g>
	<g>
		<path class="st1" d="M496.5,70.2c14.2-2.2,27.4-10.5,36.3-21.7c0,0,1.8-2.3,1.8-2.3c-1,1.4-2.3,3.5-3.4,4.8
			c-7.2,9.6-17.1,17.1-28.4,21.2c-1.9,0.7-3.8,1.3-6,1.7C497,74,496.5,70.2,496.5,70.2L496.5,70.2z"/>
	</g>
	<g>
		<path class="st1" d="M504.4,69.2c3.2-4,6.2-8.1,8.9-12.4c2.6-4.3,5.3-8.8,6.2-13.9c-0.2,2.6-1,5.1-1.9,7.4
			c-2.9,7.2-7,13.8-11.3,20.2C506.1,70.6,504.4,69.2,504.4,69.2L504.4,69.2z"/>
	</g>
	<g>
		<path class="st1" d="M515.2,63.8c8.1,2.2,21.1,5.3,28.6,0.5c-1.9,1.6-4.4,2.4-6.8,2.9c-7.4,1.2-15,0.3-22.4-1.3
			C514.6,66,515.2,63.8,515.2,63.8L515.2,63.8z"/>
	</g>
	<g>
		<path class="st1" d="M472.4,70.4c-8.7,2.2-22.4,5.3-30.3,0.2c2.2,1.3,4.8,1.8,7.3,1.9c7.6,0.2,15.2-1.8,22.3-4.2
			C471.7,68.3,472.4,70.4,472.4,70.4L472.4,70.4z"/>
	</g>
</g>
<g>
	<g>
		<g>
			<path class="st0" d="M14.4,12.8c0,0,3.6,6.2,2.3,10.5c-1.3,4.3-6.3,6.1-6.3,6.1S8.2,23.4,9.2,20C10.1,16.6,14.4,12.8,14.4,12.8"
				/>
			<path class="st0" d="M27.1,27.2c0,0-3.4,5.8-7.5,6.8c-4.1,1-7.9-2.2-7.9-2.2s3.8-4.6,7-5.5C21.9,25.4,27.1,27.2,27.1,27.2"/>
			<path class="st0" d="M14.7,41.7c0,0,4.6,2.3,5.4,5.4c0.9,3.1-1.4,6.1-1.4,6.1s-3.6-2.7-4.4-5.1C13.6,45.7,14.7,41.7,14.7,41.7"/>
			<path class="st0" d="M27.2,47.4c0,0,3.1,4.1,2.5,7.3c-0.5,3.2-3.9,4.9-3.9,4.9s-2.1-4-1.7-6.5C24.4,50.5,27.2,47.4,27.2,47.4"/>
			<path class="st0" d="M43.5,56.3c0,0-4,4.9-8,5.1c-4,0.3-7-3.3-7-3.3s4.2-3.7,7.4-3.9C39.1,53.9,43.5,56.3,43.5,56.3"/>
			<path class="st0" d="M43.5,72.9c0,0,1.2,6.8-1.4,10.2c-2.6,3.5-7.7,3.4-7.7,3.4s0-6.1,1.9-8.9C38.3,74.9,43.5,72.9,43.5,72.9"/>
			<path class="st0" d="M-16.3,18.9c0,0,6.7-2.4,10.6-0.4c4,2,4.8,7.2,4.8,7.2s-6.2,1.1-9.3-0.4C-13.3,23.8-16.3,18.9-16.3,18.9"/>
			<path class="st0" d="M0.7,7.7c0,0,5.1,4.9,5,9.4c-0.1,4.4-4.3,7.5-4.3,7.5s-3.7-5-3.7-8.6C-2.3,12.5,0.7,7.7,0.7,7.7"/>
			<path class="st0" d="M5.5,52.2c0,0,4.9-1.4,7.7,0.2c2.8,1.6,3.2,5.4,3.2,5.4s-4.5,0.5-6.7-0.7C7.4,55.8,5.5,52.2,5.5,52.2"/>
			<path class="st0" d="M-37.9,84.4c0,0-3-4.2-2.3-7.4c0.7-3.2,4.1-4.8,4.1-4.8s2,4.1,1.5,6.6C-35,81.4-37.9,84.4-37.9,84.4"/>
			<path class="st0" d="M-47.6,51.9c0,0,7.2-2.5,11.5-0.3c4.3,2.2,5.2,7.8,5.2,7.8s-6.7,1.2-10.1-0.5
				C-44.4,57.2-47.6,51.9-47.6,51.9"/>
			<path class="st0" d="M-31.5,45.6c0,0,6.2,1.3,8.2,4.7c2,3.4,0.3,7.7,0.3,7.7s-5.2-2.1-6.9-4.7C-31.5,50.7-31.5,45.6-31.5,45.6"/>
			<path class="st0" d="M-18.1,42.4c0,0,3.9,5.6,3,9.9c-0.9,4.2-5.5,6.4-5.5,6.4s-2.6-5.5-2-8.9C-22,46.4-18.1,42.4-18.1,42.4"/>
			<path class="st0" d="M61,97.7c0,0-6.2,1.2-9.4-1.1c-3.2-2.3-3.3-7-3.3-7s5.6-0.2,8.2,1.6C59,93,61,97.7,61,97.7"/>
			<path class="st0" d="M47,108.9c0,0-6.4,2.5-10.3,0.6c-3.9-1.9-4.9-6.9-4.9-6.9s6-1.2,9.1,0.2C44,104.2,47,108.9,47,108.9"/>
			<path class="st0" d="M24.9,81c0,0-4.5,1.7-7.3,0.4c-2.7-1.3-3.4-4.8-3.4-4.8s4.2-0.9,6.4,0.1C22.8,77.8,24.9,81,24.9,81"/>
			<path class="st0" d="M63.9,79.4c0,0-1.8,6.7-5.6,8.7C54.6,90.1,50,88,50,88s2.5-5.6,5.5-7.2C58.4,79,63.9,79.4,63.9,79.4"/>
			<path class="st0" d="M-47.9,64.8c0,0,5.1-0.6,7.6,1.4c2.5,2.1,2.3,5.8,2.3,5.8s-4.5-0.2-6.5-1.8C-46.6,68.7-47.9,64.8-47.9,64.8"
				/>
			<path class="st0" d="M-24.1,79.1c0,0,4.9,3.4,5.4,7c0.6,3.7-2.5,6.8-2.5,6.8s-3.8-3.7-4.3-6.5C-25.9,83.5-24.1,79.1-24.1,79.1"/>
			<path class="st0" d="M-12.5,64.4c0,0,4.9,3.4,5.4,7c0.6,3.7-2.5,6.8-2.5,6.8s-3.8-3.7-4.3-6.5C-14.4,68.8-12.5,64.4-12.5,64.4"/>
			<path class="st0" d="M27.7,71.8c0,0,5.6,3.1,6.6,6.9c1,3.9-1.9,7.5-1.9,7.5s-4.4-3.5-5.3-6.5C26.2,76.7,27.7,71.8,27.7,71.8"/>
			<path class="st0" d="M18.4,89.6c0,0,5.6,3.1,6.6,6.9c1,3.9-1.9,7.5-1.9,7.5s-4.4-3.5-5.3-6.5C16.9,94.5,18.4,89.6,18.4,89.6"/>
			<path class="st0" d="M26.5,119.2c0,0-3.4-5.4-2.4-9.2c1-3.9,5.3-5.7,5.3-5.7s2.2,5.2,1.5,8.3C30.2,115.7,26.5,119.2,26.5,119.2"
				/>
			<path class="st0" d="M-37.3,116.8c0,0-1.6-6.1,0.5-9.5c2.1-3.4,6.8-3.8,6.8-3.8s0.5,5.6-1.1,8.3
				C-32.8,114.5-37.3,116.8-37.3,116.8"/>
		</g>
		<path class="st0" d="M-49.2,81.2c0,0,6.2,2.5,7.7,6.5c1.5,3.9-1.1,8.1-1.1,8.1s-5-3.1-6.3-6.2C-50.2,86.5-49.2,81.2-49.2,81.2"/>
		<path class="st0" d="M-60,97.3c0,0,4-4.9,8-5.2c4-0.3,7,3.3,7,3.3s-4.2,3.7-7.4,4C-55.5,99.7-60,97.3-60,97.3"/>
		<path class="st0" d="M-53.3,107.5c0,0,0.5-6.3,3.6-8.8c3.1-2.5,7.7-1.3,7.7-1.3s-1.4,5.5-3.8,7.5
			C-48.2,106.9-53.3,107.5-53.3,107.5"/>
	</g>
	<g>
		<polygon class="st1" points="-3.8,162.8 0,16 3.8,162.8 -3.8,162.8 		"/>
	</g>
	<g>
		<path class="st1" d="M13.4,26.5C11,33.1,7.2,40.1,0.1,42.3c0,0-0.7-3.7-0.7-3.7c1.4-0.1,2.8-0.6,4.2-1.3
			C7.8,34.9,11,30.7,13.4,26.5L13.4,26.5z"/>
	</g>
	<g>
		<path class="st1" d="M-0.3,86c-13.1-5.5-26.5-14.3-31.1-28.4c1.3,3.3,3.3,6.3,5.6,8.9c4.7,5.2,10.7,9.1,17,12.1
			c3.1,1.5,6.5,2.8,9.7,3.7L-0.3,86L-0.3,86z"/>
	</g>
	<g>
		<path class="st1" d="M-17.4,76.4c-3-8.9-5.8-18.4-4.8-27.9c-0.2,4.7,0.7,9.4,2,13.9c1.3,4.5,2.9,8.9,4.8,13.2
			C-15.4,75.5-17.4,76.4-17.4,76.4L-17.4,76.4z"/>
	</g>
	<g>
		<path class="st1" d="M-2.1,111.8c-15.3-2.4-30.1-7.8-42.9-16.4c12.5,7,26.5,11.1,40.7,12.4c0.9,0.1,2.2,0.2,3,0.3
			C-1.3,108.1-2.1,111.8-2.1,111.8L-2.1,111.8z"/>
	</g>
	<g>
		<path class="st1" d="M-14.9,108.1c-2.1-3.4-4.3-8.1-5.6-12.3c-0.5-1.5-0.8-3-1.1-4.4c0.5,1.4,1,2.9,1.6,4.3c1.7,4,4,7.7,6.7,11.1
			c0.2,0.2,0.4,0.5,0.5,0.7C-12.8,107.4-14.9,108.1-14.9,108.1L-14.9,108.1z"/>
	</g>
	<g>
		<path class="st1" d="M2.3,106.1c16.7,0.4,34.5-4.9,46.1-17.4c3.9-4.2,6.9-9.1,9.2-14.4c-2,5.4-4.7,10.6-8.5,15
			c-7.4,9.1-18.2,15-29.5,18c-5.8,1.5-11.5,2.5-17.5,2.6C2.2,109.9,2.3,106.1,2.3,106.1L2.3,106.1z"/>
	</g>
	<g>
		<path class="st1" d="M22.8,103.9c7.1-8.2,11.7-18.8,12.7-29.6c-0.1,2.8-0.3,5.5-0.9,8.2c-1.6,8.3-5,16.1-10.1,22.8
			C24.5,105.3,22.8,103.9,22.8,103.9L22.8,103.9z"/>
	</g>
	<g>
		<path class="st1" d="M28.4,96.5c1.2-6.1-1.4-12.6-5-17.5c-0.5-0.7-1.1-1.4-1.7-2.2c1.2,1.3,2.5,2.7,3.5,4.2
			c3.2,4.6,5.4,10.1,4.7,15.9C29.9,96.8,28.4,96.5,28.4,96.5L28.4,96.5z"/>
	</g>
	<g>
		<path class="st1" d="M0,70.2C14.2,68,27.3,59.7,36.3,48.5c0,0,1.8-2.3,1.8-2.3c-1,1.4-2.3,3.5-3.4,4.8
			c-7.2,9.6-17.1,17.1-28.4,21.2c-1.9,0.7-3.8,1.3-6,1.7C0.5,74,0,70.2,0,70.2L0,70.2z"/>
	</g>
	<g>
		<path class="st1" d="M7.9,69.2c3.2-4,6.2-8.1,8.9-12.4c2.6-4.3,5.3-8.8,6.2-13.9c-0.2,2.6-1,5.1-1.9,7.4C18,57.5,14,64.2,9.6,70.6
			C9.6,70.6,7.9,69.2,7.9,69.2L7.9,69.2z"/>
	</g>
	<g>
		<path class="st1" d="M18.7,63.8c8.1,2.2,21.1,5.3,28.6,0.5c-1.9,1.6-4.4,2.4-6.8,2.9c-7.4,1.2-15,0.3-22.4-1.3
			C18.1,66,18.7,63.8,18.7,63.8L18.7,63.8z"/>
	</g>
	<g>
		<path class="st1" d="M-24.1,70.4c-8.7,2.2-22.4,5.3-30.3,0.2c2.2,1.3,4.8,1.8,7.3,1.9c7.6,0.2,15.2-1.8,22.3-4.2
			C-24.8,68.3-24.1,70.4-24.1,70.4L-24.1,70.4z"/>
	</g>
</g>
<g>
	<g>
		<g>
			<path class="st0" d="M60.6,78.8c0,0-4.2,7.9-2.7,13.4c1.5,5.5,7.3,7.8,7.3,7.8s2.6-7.6,1.5-12C65.7,83.7,60.6,78.8,60.6,78.8"/>
			<path class="st0" d="M45.9,97.3c0,0,3.9,7.5,8.7,8.7c4.8,1.2,9.2-2.8,9.2-2.8s-4.4-5.9-8.2-7C51.9,95.1,45.9,97.3,45.9,97.3"/>
			<path class="st0" d="M60.3,115.9c0,0-5.3,3-6.3,7c-1,4,1.6,7.8,1.6,7.8s4.2-3.5,5.1-6.6C61.6,121,60.3,115.9,60.3,115.9"/>
			<path class="st0" d="M45.8,123.1c0,0-3.6,5.2-3,9.3c0.6,4.1,4.6,6.2,4.6,6.2s2.4-5.2,2-8.4C49,127.1,45.8,123.1,45.8,123.1"/>
			<path class="st0" d="M26.8,134.5c0,0,4.7,6.2,9.3,6.5c4.6,0.3,8.1-4.2,8.1-4.2s-4.9-4.7-8.6-5C32,131.4,26.8,134.5,26.8,134.5"/>
			<path class="st0" d="M26.8,155.7c0,0-1.4,8.7,1.6,13.1c3,4.4,8.9,4.4,8.9,4.4s0-7.8-2.3-11.3C32.9,158.2,26.8,155.7,26.8,155.7"
				/>
			<path class="st0" d="M96.4,86.8c0,0-7.7-3.1-12.3-0.5c-4.6,2.6-5.6,9.2-5.6,9.2s7.2,1.4,10.9-0.5C92.9,93,96.4,86.8,96.4,86.8"/>
			<path class="st0" d="M76.6,72.4c0,0-5.9,6.3-5.8,12c0.1,5.7,5,9.6,5,9.6s4.3-6.5,4.3-10.9C80.2,78.6,76.6,72.4,76.6,72.4"/>
			<path class="st0" d="M71,129.2c0,0-5.7-1.8-9,0.3c-3.2,2.1-3.7,6.9-3.7,6.9s5.3,0.7,7.8-0.9C68.8,133.9,71,129.2,71,129.2"/>
			<path class="st0" d="M121.5,170.4c0,0,3.4-5.4,2.7-9.4c-0.8-4-4.8-6.1-4.8-6.1s-2.3,5.2-1.8,8.4
				C118.2,166.6,121.5,170.4,121.5,170.4"/>
			<path class="st0" d="M132.8,128.8c0,0-8.4-3.2-13.4-0.4c-5,2.8-6,10-6,10s7.8,1.5,11.8-0.7C129.1,135.6,132.8,128.8,132.8,128.8"
				/>
			<path class="st0" d="M114,120.9c0,0-7.2,1.7-9.6,6.1c-2.4,4.3-0.3,9.9-0.3,9.9s6-2.7,8-6C114.1,127.4,114,120.9,114,120.9"/>
			<path class="st0" d="M98.5,116.8c0,0-4.6,7.2-3.5,12.6c1,5.4,6.4,8.1,6.4,8.1s3-7,2.3-11.3C103,121.9,98.5,116.8,98.5,116.8"/>
			<path class="st0" d="M6.4,187.4c0,0,7.2,1.6,11-1.3c3.8-2.9,3.9-8.9,3.9-8.9s-6.5-0.2-9.5,2C8.7,181.4,6.4,187.4,6.4,187.4"/>
			<path class="st0" d="M22.7,201.7c0,0,7.5,3.2,12,0.7c4.5-2.4,5.6-8.8,5.6-8.8s-7-1.5-10.6,0.3C26.2,195.7,22.7,201.7,22.7,201.7"
				/>
			<path class="st0" d="M48.5,166.1c0,0,5.3,2.2,8.4,0.5c3.2-1.7,4-6.2,4-6.2s-4.9-1.1-7.4,0.2C50.9,161.9,48.5,166.1,48.5,166.1"/>
			<path class="st0" d="M3,164c0,0,2.1,8.5,6.5,11.1c4.4,2.6,9.8-0.1,9.8-0.1s-2.9-7.1-6.4-9.3C9.5,163.5,3,164,3,164"/>
			<path class="st0" d="M133.2,145.3c0,0-5.9-0.8-8.8,1.8c-2.9,2.6-2.6,7.5-2.6,7.5s5.3-0.3,7.6-2.3
				C131.7,150.3,133.2,145.3,133.2,145.3"/>
			<path class="st0" d="M105.4,163.6c0,0-5.7,4.3-6.3,9c-0.7,4.7,2.9,8.7,2.9,8.7s4.4-4.7,5-8.4
				C107.6,169.2,105.4,163.6,105.4,163.6"/>
			<path class="st0" d="M92,144.9c0,0-5.7,4.3-6.3,9c-0.7,4.7,2.9,8.7,2.9,8.7s4.4-4.7,5-8.4C94.2,150.5,92,144.9,92,144.9"/>
			<path class="st0" d="M45.2,154.3c0,0-6.5,3.9-7.6,8.8c-1.2,4.9,2.3,9.6,2.3,9.6s5.1-4.5,6.1-8.3C47,160.6,45.2,154.3,45.2,154.3"
				/>
			<path class="st0" d="M56,177c0,0-6.5,3.9-7.6,8.8c-1.2,4.9,2.3,9.6,2.3,9.6s5.1-4.5,6.1-8.3C57.8,183.3,56,177,56,177"/>
			<path class="st0" d="M46.6,214.9c0,0,4-6.8,2.8-11.8c-1.1-4.9-6.2-7.2-6.2-7.2s-2.6,6.6-1.7,10.5
				C42.3,210.4,46.6,214.9,46.6,214.9"/>
			<path class="st0" d="M120.9,211.8c0,0,1.9-7.8-0.6-12.2c-2.5-4.3-7.9-4.8-7.9-4.8s-0.6,7.2,1.3,10.6
				C115.5,208.9,120.9,211.8,120.9,211.8"/>
		</g>
		<path class="st0" d="M134.6,166.3c0,0-7.2,3.2-8.9,8.3c-1.7,5,1.3,10.3,1.3,10.3s5.9-4,7.3-7.9
			C135.8,173.1,134.6,166.3,134.6,166.3"/>
		<path class="st0" d="M147.3,186.9c0,0-4.7-6.3-9.3-6.6c-4.6-0.4-8.2,4.2-8.2,4.2s4.9,4.7,8.6,5.1
			C142,189.9,147.3,186.9,147.3,186.9"/>
		<path class="st0" d="M139.4,200c0,0-0.6-8.1-4.2-11.3c-3.6-3.2-8.9-1.7-8.9-1.7s1.6,7,4.4,9.6C133.5,199.2,139.4,200,139.4,200"/>
	</g>
	<g>
		<polygon class="st1" points="72.8,270.6 77.5,83.1 82.1,270.6 72.8,270.6 		"/>
	</g>
	<g>
		<path class="st1" d="M61.8,96.4c2.8,5.3,6.4,10.5,11.5,13.8c1.6,1,3.3,1.6,4.9,1.8c0,0-0.9,4.5-0.9,4.5
			C68.6,113.6,64.5,104.5,61.8,96.4L61.8,96.4z"/>
	</g>
	<g>
		<path class="st1" d="M76.4,168c15.7-5.4,31.5-15.6,37.6-31.8c-1.1,4.2-3,8.2-5.4,11.8c-7.4,11-18.6,19-30.7,24.3
			C77.9,172.4,76.4,168,76.4,168L76.4,168z"/>
	</g>
	<g>
		<path class="st1" d="M95.2,159.2c4.3-11,8.3-22.7,8-34.6c0.4,3,0.4,6,0.2,9c-0.7,9.1-2.8,17.9-5.6,26.6
			C97.8,160.1,95.2,159.2,95.2,159.2L95.2,159.2z"/>
	</g>
	<g>
		<path class="st1" d="M78.8,200.7c1-0.2,2.5-0.3,3.6-0.4c16.7-1.7,33-7.1,47.4-15.9c-7.3,5.4-15.3,9.9-23.7,13.4
			c-8.2,3.4-16.8,5.8-25.5,7.3c0,0-0.7,0.1-0.7,0.1L78.8,200.7L78.8,200.7z"/>
	</g>
	<g>
		<path class="st1" d="M92.3,199.8c0.2-0.5,0.6-1,0.9-1.5c4-5.8,7.3-12.3,9.3-19.1c-1.2,7.1-3.7,14-7.1,20.4
			c-0.1,0.2-0.5,0.8-0.6,1.1c0,0,0-0.1,0-0.1L92.3,199.8L92.3,199.8z"/>
	</g>
	<g>
		<path class="st1" d="M74.9,202.9c-21-0.6-42.6-9.6-55.2-26.9c-4.1-5.7-7.2-12-9.3-18.5c2.5,6.4,5.9,12.5,10.2,17.8
			c11.9,14.6,30.7,22.2,49.2,23c1.7,0.1,3.4,0.1,4.9,0L74.9,202.9L74.9,202.9z"/>
	</g>
	<g>
		<path class="st1" d="M48.8,197.1c-8-11.6-12.4-25.6-12.8-39.6c0.4,3.5,0.8,6.9,1.7,10.3c1.6,6.7,4.2,13.2,7.5,19.2
			c1.7,3,3.6,5.9,5.7,8.5C50.9,195.4,48.8,197.1,48.8,197.1L48.8,197.1z"/>
	</g>
	<g>
		<path class="st1" d="M42.6,186.3c-1.1-9.5,3.5-18.6,9.6-25.6c-0.7,0.9-1.4,1.9-2,2.8c-4.2,6.5-7.1,14.7-5.7,22.4
			C44.5,185.8,42.6,186.3,42.6,186.3L42.6,186.3z"/>
	</g>
	<g>
		<path class="st1" d="M76.8,157c-17.6-4.4-32.5-17.1-41.9-32.3c0,0-1.9-3-1.9-3c0.7,1,2.4,3.3,3.1,4.3
			c9.5,12.3,22.9,22.1,38.1,25.9c1,0.3,2.2,0.5,3.2,0.6C77.5,152.4,76.8,157,76.8,157L76.8,157z"/>
	</g>
	<g>
		<path class="st1" d="M66.1,152.6c-3.4-5.5-6.6-11.1-9.4-17c-2.7-5.8-5.5-11.9-6-18.3c0.4,3.2,1.6,6.2,2.8,9.1
			c2.6,5.9,5.9,11.4,9.3,16.7c1.7,2.7,3.6,5.3,5.4,7.9C68.4,151.1,66.1,152.6,66.1,152.6L66.1,152.6z"/>
	</g>
	<g>
		<path class="st1" d="M56.4,146.8c-9.8,2.2-25.8,4.9-34-2c2.3,1.8,5.2,2.6,8,3c8.5,0.9,17.2-1,25.3-3.6
			C55.7,144.2,56.4,146.8,56.4,146.8L56.4,146.8z"/>
	</g>
	<g>
		<path class="st1" d="M106.3,149.9c9.4,3.5,25.2,8.6,34.4,2.9c-2.4,1.9-5.4,2.7-8.4,3.2c-9.1,1-18.2-0.9-26.9-3.5
			C105.4,152.5,106.3,149.9,106.3,149.9L106.3,149.9z"/>
	</g>
</g>
<g>
	<g>
		<g>
			<path class="st0" d="M292.3,142.3c0,0,4.5,7.8,2.9,13.2c-1.6,5.4-7.9,7.7-7.9,7.7s-2.8-7.5-1.6-11.7
				C286.9,147.1,292.3,142.3,292.3,142.3"/>
			<path class="st0" d="M308.2,160.4c0,0-4.2,7.3-9.4,8.5c-5.2,1.2-9.9-2.8-9.9-2.8s4.8-5.8,8.8-6.8
				C301.7,158.2,308.2,160.4,308.2,160.4"/>
			<path class="st0" d="M292.7,178.6c0,0,5.7,2.9,6.8,6.8c1.1,3.9-1.8,7.7-1.8,7.7s-4.6-3.4-5.5-6.5
				C291.3,183.6,292.7,178.6,292.7,178.6"/>
			<path class="st0" d="M308.3,185.7c0,0,3.9,5.1,3.2,9.1c-0.7,4-4.9,6.1-4.9,6.1s-2.6-5.1-2.2-8.2
				C304.8,189.6,308.3,185.7,308.3,185.7"/>
			<path class="st0" d="M328.8,196.9c0,0-5,6.1-10,6.4c-5,0.3-8.8-4.2-8.8-4.2s5.3-4.6,9.2-4.9C323.2,193.9,328.8,196.9,328.8,196.9
				"/>
			<path class="st0" d="M328.7,217.7c0,0,1.5,8.5-1.8,12.8c-3.3,4.3-9.6,4.3-9.6,4.3s0-7.6,2.4-11.1
				C322.2,220.2,328.7,217.7,328.7,217.7"/>
			<path class="st0" d="M253.8,150.1c0,0,8.3-3,13.3-0.5c5,2.5,6.1,9,6.1,9s-7.7,1.4-11.7-0.5C257.5,156.2,253.8,150.1,253.8,150.1"
				/>
			<path class="st0" d="M275.1,136c0,0,6.4,6.2,6.3,11.7c-0.1,5.6-5.4,9.4-5.4,9.4s-4.7-6.3-4.7-10.7C271.3,142,275.1,136,275.1,136
				"/>
			<path class="st0" d="M281.1,191.7c0,0,6.2-1.8,9.7,0.3c3.5,2.1,4,6.8,4,6.8s-5.7,0.7-8.4-0.9
				C283.5,196.3,281.1,191.7,281.1,191.7"/>
			<path class="st0" d="M226.7,232.1c0,0-3.7-5.3-2.9-9.2c0.8-4,5.1-6,5.1-6s2.5,5.1,1.9,8.3C230.3,228.4,226.7,232.1,226.7,232.1"
				/>
			<path class="st0" d="M214.6,191.3c0,0,9.1-3.2,14.5-0.4c5.4,2.8,6.5,9.8,6.5,9.8s-8.4,1.4-12.7-0.7
				C218.6,198,214.6,191.3,214.6,191.3"/>
			<path class="st0" d="M234.8,183.5c0,0,7.7,1.7,10.3,5.9c2.6,4.3,0.3,9.7,0.3,9.7s-6.5-2.6-8.6-5.9
				C234.7,189.9,234.8,183.5,234.8,183.5"/>
			<path class="st0" d="M251.5,179.5c0,0,4.9,7.1,3.8,12.4c-1.1,5.3-6.9,8-6.9,8s-3.3-6.9-2.5-11.1
				C246.7,184.5,251.5,179.5,251.5,179.5"/>
			<path class="st0" d="M350.7,248.8c0,0-7.8,1.6-11.8-1.3c-4.1-2.9-4.2-8.7-4.2-8.7s7-0.2,10.3,2
				C348.2,242.9,350.7,248.8,350.7,248.8"/>
			<path class="st0" d="M333.1,262.8c0,0-8.1,3.1-12.9,0.7c-4.9-2.4-6.1-8.6-6.1-8.6s7.5-1.5,11.4,0.3
				C329.4,256.9,333.1,262.8,333.1,262.8"/>
			<path class="st0" d="M305.4,227.9c0,0-5.7,2.2-9.1,0.5c-3.4-1.7-4.3-6.1-4.3-6.1s5.3-1.1,8,0.2
				C302.7,223.8,305.4,227.9,305.4,227.9"/>
			<path class="st0" d="M354.4,225.8c0,0-2.2,8.3-7,10.9c-4.8,2.6-10.6-0.1-10.6-0.1s3.2-7,6.9-9.1
				C347.4,225.4,354.4,225.8,354.4,225.8"/>
			<path class="st0" d="M214.1,207.5c0,0,6.4-0.8,9.5,1.8c3.1,2.6,2.9,7.3,2.9,7.3s-5.7-0.2-8.2-2.2
				C215.8,212.4,214.1,207.5,214.1,207.5"/>
			<path class="st0" d="M244.1,225.5c0,0,6.1,4.2,6.8,8.8c0.7,4.6-3.2,8.5-3.2,8.5s-4.7-4.6-5.4-8.2
				C241.7,231,244.1,225.5,244.1,225.5"/>
			<path class="st0" d="M258.5,207.1c0,0,6.1,4.2,6.8,8.8c0.7,4.6-3.2,8.5-3.2,8.5s-4.7-4.6-5.4-8.2
				C256.2,212.6,258.5,207.1,258.5,207.1"/>
			<path class="st0" d="M308.9,216.3c0,0,7,3.8,8.2,8.7c1.3,4.8-2.4,9.4-2.4,9.4s-5.5-4.4-6.6-8.2
				C307,222.5,308.9,216.3,308.9,216.3"/>
			<path class="st0" d="M297.3,238.6c0,0,7,3.8,8.2,8.7c1.3,4.8-2.4,9.4-2.4,9.4s-5.5-4.4-6.6-8.2
				C295.4,244.8,297.3,238.6,297.3,238.6"/>
			<path class="st0" d="M307.4,275.8c0,0-4.3-6.7-3.1-11.6c1.2-4.9,6.7-7.1,6.7-7.1s2.8,6.5,1.9,10.3
				C312,271.3,307.4,275.8,307.4,275.8"/>
			<path class="st0" d="M227.4,272.7c0,0-2-7.7,0.6-12c2.6-4.3,8.5-4.7,8.5-4.7s0.7,7-1.4,10.4C233.1,269.9,227.4,272.7,227.4,272.7
				"/>
		</g>
		<path class="st0" d="M212.6,228.1c0,0,7.8,3.2,9.6,8.1c1.9,4.9-1.4,10.1-1.4,10.1s-6.3-3.9-7.9-7.8
			C211.3,234.8,212.6,228.1,212.6,228.1"/>
		<path class="st0" d="M199,248.3c0,0,5-6.2,10-6.5c5-0.3,8.8,4.1,8.8,4.1s-5.3,4.6-9.2,5C204.6,251.3,199,248.3,199,248.3"/>
		<path class="st0" d="M207.4,261.1c0,0,0.6-7.9,4.5-11.1c3.9-3.1,9.6-1.6,9.6-1.6s-1.7,6.8-4.7,9.4
			C213.7,260.4,207.4,261.1,207.4,261.1"/>
	</g>
	<g>
		<polygon class="st1" points="269.4,330.5 274.2,146.4 278.9,330.5 269.4,330.5 		"/>
	</g>
	<g>
		<path class="st1" d="M291,159.6c-2.9,8.2-7.8,17.1-16.7,19.8c0,0-0.9-4.7-0.9-4.7c1.7-0.2,3.5-0.7,5.2-1.6
			C283.9,170,287.9,164.9,291,159.6L291,159.6z"/>
	</g>
	<g>
		<path class="st1" d="M273.8,234.2c-16.3-6.7-33.4-18.1-39-35.6c1.7,4.1,4.1,7.9,7,11.2c5.9,6.6,13.4,11.4,21.3,15.2
			c3.9,1.8,8.1,3.5,12.1,4.7C275.2,229.6,273.8,234.2,273.8,234.2L273.8,234.2z"/>
	</g>
	<g>
		<path class="st1" d="M252.4,222.1c-3.8-11.2-7.2-23.1-6-35c-0.3,5.9,0.9,11.8,2.5,17.4c1.6,5.6,3.7,11.2,6.1,16.5
			C254.9,221,252.4,222.1,252.4,222.1L252.4,222.1z"/>
	</g>
	<g>
		<path class="st1" d="M271.6,266.4c-19.1-3-37.7-9.7-53.8-20.6c12.5,7,26.3,11.8,40.4,14.2c4.7,0.9,9.6,1.3,14.4,1.7
			C272.6,261.8,271.6,266.4,271.6,266.4L271.6,266.4z"/>
	</g>
	<g>
		<path class="st1" d="M255.5,261.8c-3.6-5.9-7-13.7-8.3-21c2.2,7,5.9,13.5,10.4,19.2c0.2,0.3,0.4,0.6,0.6,0.9
			C258.1,260.9,255.5,261.8,255.5,261.8L255.5,261.8z"/>
	</g>
	<g>
		<path class="st1" d="M277.1,259.3c21,0.5,43.2-6.1,57.8-21.9c4.9-5.3,8.7-11.5,11.5-18.1c-2.2,5.9-5.1,11.7-8.9,16.7
			c-9.3,12.6-23.6,20.7-38.6,24.7c-7.2,1.9-14.5,3.1-21.9,3.2C277,264.1,277.1,259.3,277.1,259.3L277.1,259.3z"/>
	</g>
	<g>
		<path class="st1" d="M302.8,256.5c8.9-10.3,14.6-23.5,15.9-37.1c-0.2,3.5-0.4,6.9-1.1,10.3c-2,10.4-6.3,20.2-12.7,28.6
			C304.9,258.4,302.8,256.5,302.8,256.5L302.8,256.5z"/>
	</g>
	<g>
		<path class="st1" d="M309.8,247.2c1.5-7.8-1.7-15.7-6.2-22c-0.7-0.9-1.4-1.8-2.1-2.7c0.8,0.8,1.6,1.7,2.3,2.6
			c3.7,4.5,6.6,9.7,7.7,15.4c0.4,2.3,0.6,4.7,0.2,7.2L309.8,247.2L309.8,247.2z"/>
	</g>
	<g>
		<path class="st1" d="M274.2,214.4c17.9-2.8,34.3-13.2,45.6-27.2c0,0,2.3-2.9,2.3-2.9c-1.3,1.8-2.8,4.4-4.2,6.1
			c-9,12-21.4,21.4-35.5,26.6c-2.5,0.9-4.9,1.7-7.5,2.2C274.8,219.1,274.2,214.4,274.2,214.4L274.2,214.4z"/>
	</g>
	<g>
		<path class="st1" d="M284,213.1c4-5,7.7-10.2,11.1-15.6c3.3-5.4,6.7-11.1,7.7-17.4c-0.2,3.2-1.3,6.3-2.4,9.3
			c-3.7,9-8.8,17.3-14.2,25.4C286.3,214.8,284,213.1,284,213.1L284,213.1z"/>
	</g>
	<g>
		<path class="st1" d="M297.6,206.3c10,2.8,26.7,6.7,35.9,0.7c-2.4,2-5.5,3-8.6,3.6c-9.3,1.6-18.8,0.3-28.1-1.6
			C296.9,209,297.6,206.3,297.6,206.3L297.6,206.3z"/>
	</g>
	<g>
		<path class="st1" d="M244,214.6c-10.6,2.8-28.3,6.6-38,0.3c2.8,1.7,6,2.2,9.2,2.4c6.4,0.3,12.7-0.9,18.9-2.5
			c3.1-0.8,6.1-1.7,9.1-2.8L244,214.6L244,214.6z"/>
	</g>
</g>
</svg>
