<?xml version="1.0" encoding="utf-8"?>
<!-- Generator: Adobe Illustrator 26.3.1, SVG Export Plug-In . SVG Version: 6.00 Build 0)  -->
<svg version="1.1" id="Layer_1" xmlns="http://www.w3.org/2000/svg" xmlns:xlink="http://www.w3.org/1999/xlink" x="0px" y="0px"
	 viewBox="0 0 568.1 341.1" style="enable-background:new 0 0 568.1 341.1;" xml:space="preserve">
<style type="text/css">
	.st0{fill:#52A785;}
	.st1{fill:#887562;}
</style>
<g>
	<g>
		<g>
			<g>
				<path class="st0" d="M103.6,83.8c0,0,4.6,7.9,2.9,13.4c-1.7,5.5-8,7.8-8,7.8s-2.8-7.6-1.6-12C98.1,88.7,103.6,83.8,103.6,83.8"
					/>
				<path class="st0" d="M119.8,102.2c0,0-4.3,7.5-9.6,8.7c-5.3,1.2-10.1-2.8-10.1-2.8s4.9-5.9,9-7
					C113.2,100,119.8,102.2,119.8,102.2"/>
				<path class="st0" d="M104,120.8c0,0,5.8,3,7,7c1.1,4-1.8,7.8-1.8,7.8s-4.7-3.5-5.6-6.6C102.6,125.9,104,120.8,104,120.8"/>
				<path class="st0" d="M119.9,128c0,0,3.9,5.2,3.2,9.3c-0.7,4.1-5,6.2-5,6.2s-2.7-5.2-2.2-8.4C116.4,132,119.9,128,119.9,128"/>
				<path class="st0" d="M140.8,139.4c0,0-5.1,6.2-10.2,6.5c-5.1,0.3-8.9-4.2-8.9-4.2s5.4-4.7,9.4-5
					C135.1,136.3,140.8,139.4,140.8,139.4"/>
				<path class="st0" d="M140.7,160.6c0,0,1.5,8.7-1.8,13.1c-3.3,4.4-9.8,4.4-9.8,4.4s0-7.8,2.5-11.3
					C134.1,163.2,140.7,160.6,140.7,160.6"/>
				<path class="st0" d="M64.4,91.7c0,0,8.5-3.1,13.6-0.5c5.1,2.6,6.2,9.2,6.2,9.2s-7.9,1.4-11.9-0.5C68.2,97.9,64.4,91.7,64.4,91.7
					"/>
				<path class="st0" d="M86.1,77.4c0,0,6.5,6.3,6.4,12C92.4,95,87,98.9,87,98.9s-4.7-6.5-4.8-10.9C82.2,83.5,86.1,77.4,86.1,77.4"
					/>
				<path class="st0" d="M92.2,134.1c0,0,6.3-1.8,9.8,0.3c3.5,2.1,4.1,6.9,4.1,6.9s-5.8,0.7-8.6-0.9
					C94.7,138.8,92.2,134.1,92.2,134.1"/>
				<path class="st0" d="M36.8,175.3c0,0-3.8-5.4-2.9-9.4c0.8-4,5.2-6.1,5.2-6.1s2.5,5.2,1.9,8.4C40.4,171.5,36.8,175.3,36.8,175.3"
					/>
				<path class="st0" d="M24.4,133.8c0,0,9.3-3.2,14.7-0.4c5.5,2.8,6.6,10,6.6,10s-8.6,1.5-12.9-0.7
					C28.5,140.6,24.4,133.8,24.4,133.8"/>
				<path class="st0" d="M45,125.8c0,0,7.9,1.7,10.5,6.1c2.6,4.3,0.3,9.9,0.3,9.9s-6.6-2.7-8.8-6C44.9,132.3,45,125.8,45,125.8"/>
				<path class="st0" d="M62,121.7c0,0,5,7.2,3.9,12.6c-1.1,5.4-7.1,8.1-7.1,8.1s-3.3-7-2.5-11.3C57.1,126.8,62,121.7,62,121.7"/>
				<path class="st0" d="M163.2,192.3c0,0-7.9,1.6-12-1.3c-4.1-2.9-4.3-8.9-4.3-8.9s7.1-0.2,10.5,2
					C160.6,186.3,163.2,192.3,163.2,192.3"/>
				<path class="st0" d="M145.2,206.6c0,0-8.2,3.2-13.2,0.7c-5-2.4-6.2-8.8-6.2-8.8s7.6-1.5,11.6,0.3
					C141.4,200.6,145.2,206.6,145.2,206.6"/>
				<path class="st0" d="M117,171c0,0-5.8,2.2-9.3,0.5c-3.5-1.7-4.4-6.2-4.4-6.2s5.4-1.1,8.2,0.2C114.3,166.8,117,171,117,171"/>
				<path class="st0" d="M166.9,168.9c0,0-2.3,8.5-7.1,11.1c-4.9,2.6-10.8-0.1-10.8-0.1s3.2-7.1,7-9.3
					C159.8,168.5,166.9,168.9,166.9,168.9"/>
				<path class="st0" d="M23.9,150.2c0,0,6.5-0.8,9.7,1.8c3.2,2.6,2.9,7.5,2.9,7.5s-5.8-0.3-8.4-2.3
					C25.6,155.2,23.9,150.2,23.9,150.2"/>
				<path class="st0" d="M54.5,168.6c0,0,6.2,4.3,7,9c0.7,4.7-3.2,8.7-3.2,8.7s-4.8-4.7-5.5-8.4C52.1,174.2,54.5,168.6,54.5,168.6"
					/>
				<path class="st0" d="M69.2,149.8c0,0,6.2,4.3,7,9c0.7,4.7-3.2,8.7-3.2,8.7s-4.8-4.7-5.5-8.4C66.8,155.4,69.2,149.8,69.2,149.8"
					/>
				<path class="st0" d="M120.6,159.2c0,0,7.1,3.9,8.4,8.8c1.3,4.9-2.5,9.6-2.5,9.6s-5.6-4.5-6.7-8.3
					C118.6,165.5,120.6,159.2,120.6,159.2"/>
				<path class="st0" d="M108.7,182c0,0,7.1,3.9,8.4,8.8c1.3,4.9-2.5,9.6-2.5,9.6s-5.6-4.5-6.7-8.3C106.7,188.2,108.7,182,108.7,182
					"/>
				<path class="st0" d="M119,219.9c0,0-4.4-6.8-3.1-11.8c1.3-4.9,6.8-7.2,6.8-7.2s2.8,6.6,1.9,10.5
					C123.7,215.3,119,219.9,119,219.9"/>
				<path class="st0" d="M37.5,216.7c0,0-2.1-7.8,0.6-12.2c2.7-4.3,8.7-4.8,8.7-4.8s0.7,7.2-1.4,10.6
					C43.3,213.8,37.5,216.7,37.5,216.7"/>
			</g>
			<path class="st0" d="M22.3,171.2c0,0,7.9,3.2,9.8,8.3c1.9,5-1.5,10.3-1.5,10.3s-6.4-4-8-7.9C21,178,22.3,171.2,22.3,171.2"/>
			<path class="st0" d="M8.5,191.8c0,0,5.1-6.3,10.2-6.6c5.1-0.4,9,4.2,9,4.2s-5.4,4.7-9.4,5.1C14.3,194.8,8.5,191.8,8.5,191.8"/>
			<path class="st0" d="M17.1,204.9c0,0,0.6-8.1,4.6-11.3c4-3.2,9.8-1.7,9.8-1.7s-1.7,7-4.8,9.6C23.6,204.1,17.1,204.9,17.1,204.9"
				/>
		</g>
		<g>
			<polygon class="st1" points="80.3,275.6 85.1,88 90,275.6 80.3,275.6 			"/>
		</g>
		<g>
			<path class="st1" d="M102.3,101.4c-3,8.4-7.9,17.4-17,20.2c0,0-0.9-4.8-0.9-4.8c1.8-0.2,3.6-0.8,5.3-1.7
				C95.1,112,99.2,106.8,102.3,101.4L102.3,101.4z"/>
		</g>
		<g>
			<path class="st1" d="M84.8,177.4c-16.6-6.8-34-18.5-39.7-36.3c1.7,4.2,4.2,8,7.2,11.4c6,6.7,13.6,11.7,21.7,15.5
				c4,1.9,8.2,3.6,12.4,4.7C86.2,172.8,84.8,177.4,84.8,177.4L84.8,177.4z"/>
		</g>
		<g>
			<path class="st1" d="M62.9,165.1c-3.9-11.4-7.4-23.5-6.1-35.7c-0.3,6,0.9,12,2.5,17.8c1.6,5.7,3.7,11.4,6.2,16.8
				C65.5,164,62.9,165.1,62.9,165.1L62.9,165.1z"/>
		</g>
		<g>
			<path class="st1" d="M82.6,210.3c-19.5-3-38.5-9.9-54.8-21c12.8,7.1,26.8,12,41.2,14.4c4.8,0.9,9.8,1.3,14.6,1.8
				C83.6,205.6,82.6,210.3,82.6,210.3L82.6,210.3z"/>
		</g>
		<g>
			<path class="st1" d="M66.1,205.6c-3.7-6-7.1-14-8.5-21.4c2.3,7.1,6,13.7,10.6,19.6c0.2,0.3,0.5,0.6,0.6,0.9
				C68.8,204.7,66.1,205.6,66.1,205.6L66.1,205.6z"/>
		</g>
		<g>
			<path class="st1" d="M88.2,203.1c21.4,0.5,44.1-6.2,58.9-22.3c5-5.4,8.8-11.7,11.7-18.4c-2.2,6.1-5.2,11.9-9.1,17
				c-9.5,12.8-24.1,21.1-39.4,25.2c-7.3,2-14.7,3.2-22.4,3.3C88,207.9,88.2,203.1,88.2,203.1L88.2,203.1z"/>
		</g>
		<g>
			<path class="st1" d="M114.4,200.2c9.1-10.5,14.9-24,16.2-37.8c-0.2,3.5-0.4,7.1-1.1,10.5c-2,10.6-6.4,20.6-13,29.2
				C116.5,202.1,114.4,200.2,114.4,200.2L114.4,200.2z"/>
		</g>
		<g>
			<path class="st1" d="M121.4,190.7c1.5-7.9-1.8-16.1-6.3-22.4c-0.7-0.9-1.4-1.8-2.2-2.8c0.8,0.9,1.6,1.7,2.4,2.6
				c3.8,4.5,6.7,9.8,7.9,15.7c0.4,2.4,0.6,4.7,0.3,7.3C123.4,191.2,121.4,190.7,121.4,190.7L121.4,190.7z"/>
		</g>
		<g>
			<path class="st1" d="M85.2,157.2c18.2-2.8,34.9-13.5,46.4-27.7c0,0,2.4-2.9,2.4-2.9c-1.3,1.9-2.9,4.5-4.3,6.2
				c-9.2,12.2-21.9,21.8-36.2,27.1c-2.5,0.9-5,1.7-7.6,2.2C85.8,162,85.2,157.2,85.2,157.2L85.2,157.2z"/>
		</g>
		<g>
			<path class="st1" d="M95.2,155.9c4-5.1,7.9-10.4,11.3-15.9c3.3-5.5,6.8-11.3,7.9-17.8c-0.2,3.3-1.3,6.5-2.5,9.5
				c-3.7,9.2-8.9,17.7-14.5,25.9C97.5,157.7,95.2,155.9,95.2,155.9L95.2,155.9z"/>
		</g>
		<g>
			<path class="st1" d="M109,149c10.2,2.8,27.2,6.8,36.6,0.7c-2.5,2-5.6,3-8.7,3.7c-9.5,1.6-19.2,0.3-28.6-1.6
				C108.3,151.8,109,149,109,149L109,149z"/>
		</g>
		<g>
			<path class="st1" d="M54.4,157.5c-10.8,2.9-28.9,6.8-38.7,0.3c2.8,1.7,6.1,2.3,9.3,2.5c6.5,0.3,13-0.9,19.2-2.6
				c3.1-0.8,6.3-1.8,9.3-2.9L54.4,157.5L54.4,157.5z"/>
		</g>
	</g>
	<g>
		<g>
			<g>
				<path class="st0" d="M510.1,9.5c0,0,3.6,6.2,2.3,10.5c-1.3,4.3-6.3,6.1-6.3,6.1s-2.2-5.9-1.3-9.4
					C505.7,13.4,510.1,9.5,510.1,9.5"/>
				<path class="st0" d="M522.8,23.9c0,0-3.4,5.8-7.5,6.8c-4.1,1-7.9-2.2-7.9-2.2s3.8-4.6,7-5.5C517.6,22.2,522.8,23.9,522.8,23.9"
					/>
				<path class="st0" d="M510.4,38.5c0,0,4.6,2.3,5.4,5.4c0.9,3.1-1.4,6.1-1.4,6.1s-3.6-2.7-4.4-5.1
					C509.3,42.5,510.4,38.5,510.4,38.5"/>
				<path class="st0" d="M522.8,44.2c0,0,3.1,4.1,2.5,7.3c-0.5,3.2-3.9,4.9-3.9,4.9s-2.1-4-1.7-6.5
					C520.1,47.3,522.8,44.2,522.8,44.2"/>
				<path class="st0" d="M539.2,53.1c0,0-4,4.9-8,5.1c-4,0.3-7-3.3-7-3.3s4.2-3.7,7.4-3.9C534.7,50.7,539.2,53.1,539.2,53.1"/>
				<path class="st0" d="M539.1,69.6c0,0,1.2,6.8-1.4,10.2c-2.6,3.5-7.7,3.4-7.7,3.4s0-6.1,1.9-8.9C534,71.7,539.1,69.6,539.1,69.6"
					/>
				<path class="st0" d="M479.4,15.7c0,0,6.7-2.4,10.6-0.4c4,2,4.8,7.2,4.8,7.2s-6.2,1.1-9.3-0.4C482.3,20.6,479.4,15.7,479.4,15.7"
					/>
				<path class="st0" d="M496.4,4.5c0,0,5.1,4.9,5,9.4c-0.1,4.4-4.3,7.5-4.3,7.5s-3.7-5-3.7-8.6C493.3,9.3,496.4,4.5,496.4,4.5"/>
				<path class="st0" d="M501.2,48.9c0,0,4.9-1.4,7.7,0.2c2.8,1.6,3.2,5.4,3.2,5.4s-4.5,0.5-6.7-0.7
					C503.1,52.6,501.2,48.9,501.2,48.9"/>
				<path class="st0" d="M457.8,81.2c0,0-3-4.2-2.3-7.4c0.7-3.2,4.1-4.8,4.1-4.8s2,4.1,1.5,6.6C460.6,78.2,457.8,81.2,457.8,81.2"/>
				<path class="st0" d="M448.1,48.6c0,0,7.2-2.5,11.5-0.3c4.3,2.2,5.2,7.8,5.2,7.8s-6.7,1.2-10.1-0.5
					C451.3,54,448.1,48.6,448.1,48.6"/>
				<path class="st0" d="M464.2,42.4c0,0,6.2,1.3,8.2,4.7c2,3.4,0.3,7.7,0.3,7.7s-5.2-2.1-6.9-4.7C464.1,47.5,464.2,42.4,464.2,42.4
					"/>
				<path class="st0" d="M477.5,39.2c0,0,3.9,5.6,3,9.9c-0.9,4.2-5.5,6.4-5.5,6.4s-2.6-5.5-2-8.9C473.7,43.2,477.5,39.2,477.5,39.2"
					/>
				<path class="st0" d="M556.7,94.4c0,0-6.2,1.2-9.4-1.1c-3.2-2.3-3.3-7-3.3-7s5.6-0.2,8.2,1.6C554.7,89.8,556.7,94.4,556.7,94.4"
					/>
				<path class="st0" d="M542.6,105.6c0,0-6.4,2.5-10.3,0.6c-3.9-1.9-4.9-6.9-4.9-6.9s6-1.2,9.1,0.2
					C539.7,101,542.6,105.6,542.6,105.6"/>
				<path class="st0" d="M520.5,77.8c0,0-4.5,1.7-7.3,0.4c-2.7-1.3-3.4-4.8-3.4-4.8s4.2-0.9,6.4,0.1
					C518.4,74.5,520.5,77.8,520.5,77.8"/>
				<path class="st0" d="M559.6,76.1c0,0-1.8,6.7-5.6,8.7c-3.8,2.1-8.4-0.1-8.4-0.1s2.5-5.6,5.5-7.2
					C554.1,75.8,559.6,76.1,559.6,76.1"/>
				<path class="st0" d="M447.7,61.5c0,0,5.1-0.6,7.6,1.4c2.5,2.1,2.3,5.8,2.3,5.8S453,68.6,451,67C449,65.4,447.7,61.5,447.7,61.5"
					/>
				<path class="st0" d="M471.6,75.9c0,0,4.9,3.4,5.4,7c0.6,3.7-2.5,6.8-2.5,6.8s-3.8-3.7-4.3-6.5C469.7,80.3,471.6,75.9,471.6,75.9
					"/>
				<path class="st0" d="M483.1,61.2c0,0,4.9,3.4,5.4,7c0.6,3.7-2.5,6.8-2.5,6.8s-3.8-3.7-4.3-6.5C481.3,65.6,483.1,61.2,483.1,61.2
					"/>
				<path class="st0" d="M523.3,68.6c0,0,5.6,3.1,6.6,6.9c1,3.9-1.9,7.5-1.9,7.5s-4.4-3.5-5.3-6.5C521.8,73.5,523.3,68.6,523.3,68.6
					"/>
				<path class="st0" d="M514,86.4c0,0,5.6,3.1,6.6,6.9c1,3.9-1.9,7.5-1.9,7.5s-4.4-3.5-5.3-6.5C512.5,91.3,514,86.4,514,86.4"/>
				<path class="st0" d="M522.1,116c0,0-3.4-5.4-2.4-9.2c1-3.9,5.3-5.7,5.3-5.7s2.2,5.2,1.5,8.3C525.8,112.5,522.1,116,522.1,116"/>
				<path class="st0" d="M458.3,113.6c0,0-1.6-6.1,0.5-9.5c2.1-3.4,6.8-3.8,6.8-3.8s0.5,5.6-1.1,8.3
					C462.9,111.3,458.3,113.6,458.3,113.6"/>
			</g>
			<path class="st0" d="M446.5,78c0,0,6.2,2.5,7.7,6.5c1.5,3.9-1.1,8.1-1.1,8.1s-5-3.1-6.3-6.2C445.5,83.3,446.5,78,446.5,78"/>
			<path class="st0" d="M435.6,94c0,0,4-4.9,8-5.2c4-0.3,7,3.3,7,3.3s-4.2,3.7-7.4,4C440.2,96.4,435.6,94,435.6,94"/>
			<path class="st0" d="M442.3,104.3c0,0,0.5-6.3,3.6-8.8c3.1-2.5,7.7-1.3,7.7-1.3s-1.4,5.5-3.8,7.5
				C447.4,103.7,442.3,104.3,442.3,104.3"/>
		</g>
		<g>
			<polygon class="st1" points="491.8,159.6 495.6,12.8 499.4,159.6 491.8,159.6 			"/>
		</g>
		<g>
			<path class="st1" d="M509,23.3c-2.3,6.6-6.2,13.6-13.3,15.8c0,0-0.7-3.7-0.7-3.7c1.4-0.1,2.8-0.6,4.2-1.3
				C503.4,31.6,506.6,27.5,509,23.3L509,23.3z"/>
		</g>
		<g>
			<path class="st1" d="M495.3,82.8c-13.1-5.5-26.5-14.3-31.1-28.4c1.3,3.3,3.3,6.3,5.6,8.9c4.7,5.2,10.7,9.1,17,12.1
				c3.1,1.5,6.5,2.8,9.7,3.7L495.3,82.8L495.3,82.8z"/>
		</g>
		<g>
			<path class="st1" d="M478.2,73.2c-3-8.9-5.8-18.4-4.8-27.9c-0.2,4.7,0.7,9.4,2,13.9c1.3,4.5,2.9,8.9,4.8,13.2
				C480.3,72.3,478.2,73.2,478.2,73.2L478.2,73.2z"/>
		</g>
		<g>
			<path class="st1" d="M493.6,108.6c-15.2-2.4-30.1-7.8-42.9-16.4c12.5,7,26.5,11.1,40.7,12.4c0.9,0.1,2.2,0.2,3,0.3
				C494.4,104.8,493.6,108.6,493.6,108.6L493.6,108.6z"/>
		</g>
		<g>
			<path class="st1" d="M480.7,104.9c-2.1-3.4-4.3-8.1-5.6-12.3c-0.5-1.5-0.8-3-1.1-4.4c0.5,1.4,1,2.9,1.6,4.3c1.7,4,4,7.7,6.7,11.1
				c0.2,0.2,0.4,0.5,0.5,0.7C482.8,104.2,480.7,104.9,480.7,104.9L480.7,104.9z"/>
		</g>
		<g>
			<path class="st1" d="M498,102.9c16.7,0.4,34.5-4.9,46.1-17.4c3.9-4.2,6.9-9.1,9.2-14.4c-2,5.4-4.7,10.6-8.5,15
				c-7.4,9.1-18.2,15-29.5,18c-5.8,1.5-11.5,2.5-17.5,2.6C497.8,106.7,498,102.9,498,102.9L498,102.9z"/>
		</g>
		<g>
			<path class="st1" d="M518.5,100.6c7.1-8.2,11.7-18.8,12.7-29.6c-0.1,2.8-0.3,5.5-0.9,8.2c-1.6,8.3-5,16.1-10.1,22.8
				C520.2,102.1,518.5,100.6,518.5,100.6L518.5,100.6z"/>
		</g>
		<g>
			<path class="st1" d="M524,93.2c1.2-6.1-1.4-12.6-5-17.5c-0.5-0.7-1.1-1.4-1.7-2.2c1.2,1.3,2.5,2.7,3.5,4.2
				c3.2,4.6,5.4,10.1,4.7,15.9C525.6,93.6,524,93.2,524,93.2L524,93.2z"/>
		</g>
		<g>
			<path class="st1" d="M495.6,67c14.2-2.2,27.4-10.5,36.3-21.7c0,0,1.8-2.3,1.8-2.3c-1,1.4-2.3,3.5-3.4,4.8
				c-7.2,9.6-17.1,17.1-28.4,21.2c-1.9,0.7-3.8,1.3-6,1.7L495.6,67L495.6,67z"/>
		</g>
		<g>
			<path class="st1" d="M503.5,66c3.2-4,6.2-8.1,8.9-12.4c2.6-4.3,5.3-8.8,6.2-13.9c-0.2,2.6-1,5.1-1.9,7.4
				c-2.9,7.2-7,13.8-11.3,20.2C505.3,67.3,503.5,66,503.5,66L503.5,66z"/>
		</g>
		<g>
			<path class="st1" d="M514.3,60.6c8.1,2.2,21.1,5.3,28.6,0.5c-1.9,1.6-4.4,2.4-6.8,2.9c-7.4,1.2-15,0.3-22.4-1.3
				C513.7,62.7,514.3,60.6,514.3,60.6L514.3,60.6z"/>
		</g>
		<g>
			<path class="st1" d="M471.6,67.2c-8.7,2.2-22.4,5.3-30.3,0.2c2.2,1.3,4.8,1.8,7.3,1.9c7.6,0.2,15.2-1.8,22.3-4.2
				C470.8,65.1,471.6,67.2,471.6,67.2L471.6,67.2z"/>
		</g>
	</g>
	<g>
		<g>
			<g>
				<path class="st0" d="M296.8,142.1c0,0,4.5,7.8,2.9,13.2c-1.6,5.4-7.9,7.7-7.9,7.7s-2.8-7.5-1.6-11.7
					C291.4,146.9,296.8,142.1,296.8,142.1"/>
				<path class="st0" d="M312.7,160.1c0,0-4.2,7.3-9.4,8.5c-5.2,1.2-9.9-2.8-9.9-2.8s4.8-5.8,8.8-6.8
					C306.3,158,312.7,160.1,312.7,160.1"/>
				<path class="st0" d="M297.2,178.4c0,0,5.7,2.9,6.8,6.8c1.1,3.9-1.8,7.7-1.8,7.7s-4.6-3.4-5.5-6.5
					C295.8,183.4,297.2,178.4,297.2,178.4"/>
				<path class="st0" d="M312.8,185.5c0,0,3.9,5.1,3.2,9.1c-0.7,4-4.9,6.1-4.9,6.1s-2.6-5.1-2.2-8.2
					C309.4,189.4,312.8,185.5,312.8,185.5"/>
				<path class="st0" d="M333.3,196.6c0,0-5,6.1-10,6.4c-5,0.3-8.8-4.2-8.8-4.2s5.3-4.6,9.2-4.9
					C327.7,193.6,333.3,196.6,333.3,196.6"/>
				<path class="st0" d="M333.2,217.4c0,0,1.5,8.5-1.8,12.8c-3.3,4.3-9.6,4.3-9.6,4.3s0-7.6,2.4-11.1
					C326.8,220,333.2,217.4,333.2,217.4"/>
				<path class="st0" d="M258.3,149.8c0,0,8.3-3,13.3-0.5c5,2.5,6.1,9,6.1,9s-7.7,1.4-11.7-0.5C262.1,155.9,258.3,149.8,258.3,149.8
					"/>
				<path class="st0" d="M279.7,135.8c0,0,6.4,6.2,6.3,11.7c-0.1,5.6-5.4,9.4-5.4,9.4s-4.7-6.3-4.7-10.7
					C275.8,141.8,279.7,135.8,279.7,135.8"/>
				<path class="st0" d="M285.7,191.5c0,0,6.2-1.8,9.7,0.3c3.5,2.1,4,6.8,4,6.8s-5.7,0.7-8.4-0.9
					C288.1,196.1,285.7,191.5,285.7,191.5"/>
				<path class="st0" d="M231.3,231.9c0,0-3.7-5.3-2.9-9.2c0.8-4,5.1-6,5.1-6s2.5,5.1,1.9,8.3C234.9,228.1,231.3,231.9,231.3,231.9"
					/>
				<path class="st0" d="M219.1,191.1c0,0,9.1-3.2,14.5-0.4c5.4,2.8,6.5,9.8,6.5,9.8s-8.4,1.4-12.7-0.7
					C223.1,197.8,219.1,191.1,219.1,191.1"/>
				<path class="st0" d="M239.3,183.3c0,0,7.7,1.7,10.3,5.9c2.6,4.3,0.3,9.7,0.3,9.7s-6.5-2.6-8.6-5.9
					C239.2,189.7,239.3,183.3,239.3,183.3"/>
				<path class="st0" d="M256,179.3c0,0,4.9,7.1,3.8,12.4c-1.1,5.3-6.9,8-6.9,8s-3.3-6.9-2.5-11.1C251.2,184.3,256,179.3,256,179.3"
					/>
				<path class="st0" d="M355.2,248.5c0,0-7.8,1.6-11.8-1.3c-4.1-2.9-4.2-8.7-4.2-8.7s7-0.2,10.3,2
					C352.8,242.6,355.2,248.5,355.2,248.5"/>
				<path class="st0" d="M337.7,262.6c0,0-8.1,3.1-12.9,0.7c-4.9-2.4-6.1-8.6-6.1-8.6s7.5-1.5,11.4,0.3
					C333.9,256.7,337.7,262.6,337.7,262.6"/>
				<path class="st0" d="M309.9,227.7c0,0-5.7,2.2-9.1,0.5c-3.4-1.7-4.3-6.1-4.3-6.1s5.3-1.1,8,0.2
					C307.3,223.6,309.9,227.7,309.9,227.7"/>
				<path class="st0" d="M358.9,225.6c0,0-2.2,8.3-7,10.9c-4.8,2.6-10.6-0.1-10.6-0.1s3.2-7,6.9-9.1
					C352,225.2,358.9,225.6,358.9,225.6"/>
				<path class="st0" d="M218.7,207.3c0,0,6.4-0.8,9.5,1.8c3.1,2.6,2.9,7.3,2.9,7.3s-5.7-0.2-8.2-2.2
					C220.3,212.2,218.7,207.3,218.7,207.3"/>
				<path class="st0" d="M248.6,225.2c0,0,6.1,4.2,6.8,8.8c0.7,4.6-3.2,8.5-3.2,8.5s-4.7-4.6-5.4-8.2
					C246.3,230.8,248.6,225.2,248.6,225.2"/>
				<path class="st0" d="M263.1,206.9c0,0,6.1,4.2,6.8,8.8c0.7,4.6-3.2,8.5-3.2,8.5s-4.7-4.6-5.4-8.2
					C260.7,212.4,263.1,206.9,263.1,206.9"/>
				<path class="st0" d="M313.5,216.1c0,0,7,3.8,8.2,8.7c1.3,4.8-2.4,9.4-2.4,9.4s-5.5-4.4-6.6-8.2
					C311.6,222.2,313.5,216.1,313.5,216.1"/>
				<path class="st0" d="M301.8,238.4c0,0,7,3.8,8.2,8.7c1.3,4.8-2.4,9.4-2.4,9.4s-5.5-4.4-6.6-8.2
					C299.9,244.5,301.8,238.4,301.8,238.4"/>
				<path class="st0" d="M311.9,275.6c0,0-4.3-6.7-3.1-11.6c1.2-4.9,6.7-7.1,6.7-7.1s2.8,6.5,1.9,10.3
					C316.6,271.1,311.9,275.6,311.9,275.6"/>
				<path class="st0" d="M231.9,272.5c0,0-2-7.7,0.6-12c2.6-4.3,8.5-4.7,8.5-4.7s0.7,7-1.4,10.4
					C237.7,269.7,231.9,272.5,231.9,272.5"/>
			</g>
			<path class="st0" d="M217.1,227.9c0,0,7.8,3.2,9.6,8.1c1.9,4.9-1.4,10.1-1.4,10.1s-6.3-3.9-7.9-7.8
				C215.8,234.5,217.1,227.9,217.1,227.9"/>
			<path class="st0" d="M203.5,248c0,0,5-6.2,10-6.5c5-0.3,8.8,4.1,8.8,4.1s-5.3,4.6-9.2,5C209.2,251,203.5,248,203.5,248"/>
			<path class="st0" d="M211.9,260.9c0,0,0.6-7.9,4.5-11.1c3.9-3.1,9.6-1.6,9.6-1.6s-1.7,6.8-4.7,9.4
				C218.3,260.1,211.9,260.9,211.9,260.9"/>
		</g>
		<g>
			<polygon class="st1" points="274,330.2 278.7,146.2 283.5,330.2 274,330.2 			"/>
		</g>
		<g>
			<path class="st1" d="M295.5,159.3c-2.9,8.2-7.8,17.1-16.7,19.8c0,0-0.9-4.7-0.9-4.7c1.7-0.2,3.5-0.7,5.2-1.6
				C288.5,169.8,292.5,164.6,295.5,159.3L295.5,159.3z"/>
		</g>
		<g>
			<path class="st1" d="M278.3,233.9c-16.3-6.7-33.4-18.1-39-35.6c1.7,4.1,4.1,7.9,7,11.2c5.9,6.6,13.4,11.4,21.3,15.2
				c3.9,1.8,8.1,3.5,12.1,4.7C279.8,229.4,278.3,233.9,278.3,233.9L278.3,233.9z"/>
		</g>
		<g>
			<path class="st1" d="M256.9,221.9c-3.8-11.2-7.2-23.1-6-35c-0.3,5.9,0.9,11.8,2.5,17.4c1.6,5.6,3.7,11.2,6.1,16.5
				C259.5,220.8,256.9,221.9,256.9,221.9L256.9,221.9z"/>
		</g>
		<g>
			<path class="st1" d="M276.2,266.2c-19.1-3-37.7-9.7-53.8-20.6c12.5,7,26.3,11.8,40.4,14.2c4.7,0.9,9.6,1.3,14.4,1.7
				C277.2,261.5,276.2,266.2,276.2,266.2L276.2,266.2z"/>
		</g>
		<g>
			<path class="st1" d="M260,261.6c-3.6-5.9-7-13.7-8.3-21c2.2,7,5.9,13.5,10.4,19.2c0.2,0.3,0.4,0.6,0.6,0.9
				C262.7,260.7,260,261.6,260,261.6L260,261.6z"/>
		</g>
		<g>
			<path class="st1" d="M281.7,259.1c21,0.5,43.2-6.1,57.8-21.9c4.9-5.3,8.7-11.5,11.5-18.1c-2.2,5.9-5.1,11.7-8.9,16.7
				c-9.3,12.6-23.6,20.7-38.6,24.7c-7.2,1.9-14.5,3.1-21.9,3.2C281.5,263.9,281.7,259.1,281.7,259.1L281.7,259.1z"/>
		</g>
		<g>
			<path class="st1" d="M307.4,256.3c8.9-10.3,14.6-23.5,15.9-37.1c-0.2,3.5-0.4,6.9-1.1,10.3c-2,10.4-6.3,20.2-12.7,28.6
				C309.5,258.1,307.4,256.3,307.4,256.3L307.4,256.3z"/>
		</g>
		<g>
			<path class="st1" d="M314.3,247c1.5-7.8-1.7-15.7-6.2-22c-0.7-0.9-1.4-1.8-2.1-2.7c0.8,0.8,1.6,1.7,2.3,2.6
				c3.7,4.5,6.6,9.7,7.7,15.4c0.4,2.3,0.6,4.7,0.2,7.2L314.3,247L314.3,247z"/>
		</g>
		<g>
			<path class="st1" d="M278.7,214.1c17.9-2.8,34.3-13.2,45.6-27.2c0,0,2.3-2.9,2.3-2.9c-1.3,1.8-2.8,4.4-4.2,6.1
				c-9,12-21.4,21.4-35.5,26.6c-2.5,0.9-4.9,1.7-7.5,2.2C279.4,218.8,278.7,214.1,278.7,214.1L278.7,214.1z"/>
		</g>
		<g>
			<path class="st1" d="M288.6,212.9c4-5,7.7-10.2,11.1-15.6c3.3-5.4,6.7-11.1,7.7-17.4c-0.2,3.2-1.3,6.3-2.4,9.3
				c-3.7,9-8.8,17.3-14.2,25.4C290.8,214.6,288.6,212.9,288.6,212.9L288.6,212.9z"/>
		</g>
		<g>
			<path class="st1" d="M302.1,206.1c10,2.8,26.7,6.7,35.9,0.7c-2.4,2-5.5,3-8.6,3.6c-9.3,1.6-18.8,0.3-28.1-1.6
				C301.4,208.8,302.1,206.1,302.1,206.1L302.1,206.1z"/>
		</g>
		<g>
			<path class="st1" d="M248.6,214.4c-10.6,2.8-28.3,6.6-38,0.3c2.8,1.7,6,2.2,9.2,2.4c6.4,0.3,12.7-0.9,18.9-2.5
				c3.1-0.8,6.1-1.7,9.1-2.8L248.6,214.4L248.6,214.4z"/>
		</g>
	</g>
</g>
</svg>
