<?xml version="1.0" encoding="utf-8"?>
<!-- Generator: Adobe Illustrator 26.3.1, SVG Export Plug-In . SVG Version: 6.00 Build 0)  -->
<svg version="1.1" id="Layer_1" xmlns="http://www.w3.org/2000/svg" xmlns:xlink="http://www.w3.org/1999/xlink" x="0px" y="0px"
	 viewBox="0 0 409.6 508.1" style="enable-background:new 0 0 409.6 508.1;" xml:space="preserve">
<style type="text/css">
	.st0{fill:#52A785;}
	.st1{fill:#887562;}
</style>
<g>
	<g>
		<path class="st0" d="M242,37.1c0,0,11.3,19.6,7.2,33.2c-4.1,13.6-19.8,19.3-19.8,19.3s-7-18.8-4.1-29.6
			C228.4,49.2,242,37.1,242,37.1"/>
		<path class="st0" d="M282.1,82.6c0,0-10.6,18.4-23.6,21.5c-13,3.1-25-7-25-7s12-14.5,22.2-17.2C265.8,77.1,282.1,82.6,282.1,82.6"
			/>
		<path class="st0" d="M243,128.6c0,0,14.4,7.4,17.2,17.2c2.8,9.8-4.4,19.3-4.4,19.3s-11.5-8.6-13.9-16.3
			C239.5,141.1,243,128.6,243,128.6"/>
		<path class="st0" d="M282.3,146.4c0,0,9.7,12.9,8,23c-1.7,10-12.4,15.4-12.4,15.4s-6.6-12.7-5.4-20.7
			C273.6,156.2,282.3,146.4,282.3,146.4"/>
		<path class="st0" d="M334,174.5c0,0-12.7,15.4-25.2,16.2c-12.5,0.8-22-10.5-22-10.5s13.4-11.6,23.2-12.4
			C319.8,166.9,334,174.5,334,174.5"/>
		<path class="st0" d="M333.7,226.8c0,0,3.7,21.4-4.5,32.3C321,270.1,305,270,305,270s-0.1-19.2,6.2-28
			C317.4,233.2,333.7,226.8,333.7,226.8"/>
		<path class="st0" d="M145.1,56.6c0,0,21-7.6,33.5-1.2c12.5,6.4,15.3,22.6,15.3,22.6s-19.5,3.5-29.4-1.3
			C154.5,72,145.1,56.6,145.1,56.6"/>
		<path class="st0" d="M198.8,21.3c0,0,16,15.5,15.8,29.6c-0.2,14-13.6,23.7-13.6,23.7s-11.7-15.9-11.8-27
			C189.1,36.4,198.8,21.3,198.8,21.3"/>
		<path class="st0" d="M213.9,161.5c0,0,15.5-4.5,24.3,0.7c8.8,5.2,10,17.1,10,17.1S234,180.9,227,177
			C220,173,213.9,161.5,213.9,161.5"/>
		<path class="st0" d="M77,263.2c0,0-9.3-13.2-7.3-23.2c2.1-10,12.9-15,12.9-15s6.2,12.9,4.7,20.8C86,253.8,77,263.2,77,263.2"/>
		<path class="st0" d="M46.4,160.6c0,0,22.9-8,36.4-1c13.5,7,16.4,24.7,16.4,24.7s-21.2,3.6-32-1.6
			C56.4,177.3,46.4,160.6,46.4,160.6"/>
		<path class="st0" d="M97.2,140.9c0,0,19.5,4.2,25.9,15c6.5,10.7,0.9,24.4,0.9,24.4s-16.4-6.6-21.7-14.9
			C97,156.9,97.2,140.9,97.2,140.9"/>
		<path class="st0" d="M139.3,130.8c0,0,12.4,17.8,9.6,31.2c-2.8,13.4-17.4,20.1-17.4,20.1s-8.2-17.4-6.2-28
			C127.2,143.4,139.3,130.8,139.3,130.8"/>
		<path class="st0" d="M389.1,305.1c0,0-19.5,3.9-29.8-3.3c-10.2-7.3-10.5-22-10.5-22s17.7-0.6,25.9,5
			C382.9,290.3,389.1,305.1,389.1,305.1"/>
		<path class="st0" d="M344.9,340.4c0,0-20.3,7.8-32.6,1.8c-12.3-5.9-15.3-21.7-15.3-21.7s18.9-3.8,28.7,0.6
			C335.5,325.7,344.9,340.4,344.9,340.4"/>
		<path class="st0" d="M275,252.7c0,0-14.3,5.5-22.9,1.3c-8.6-4.2-10.8-15.3-10.8-15.3s13.3-2.7,20.2,0.5
			C268.4,242.3,275,252.7,275,252.7"/>
		<path class="st0" d="M398.4,247.3c0,0-5.6,21-17.6,27.5c-12,6.5-26.6-0.3-26.6-0.3s7.9-17.5,17.3-22.9
			C380.9,246.3,398.4,247.3,398.4,247.3"/>
		<path class="st0" d="M45.2,201.2c0,0,16.1-2,23.9,4.5c7.8,6.5,7.2,18.4,7.2,18.4s-14.3-0.6-20.6-5.6
			C49.4,213.6,45.2,201.2,45.2,201.2"/>
		<path class="st0" d="M120.6,246.5c0,0,15.4,10.6,17.2,22.2c1.8,11.6-8,21.5-8,21.5s-11.9-11.5-13.5-20.7
			C114.7,260.4,120.6,246.5,120.6,246.5"/>
		<path class="st0" d="M157,200.2c0,0,15.4,10.6,17.2,22.2c1.8,11.6-8,21.5-8,21.5s-11.9-11.5-13.5-20.7
			C151.1,214.1,157,200.2,157,200.2"/>
		<path class="st0" d="M283.9,223.5c0,0,17.6,9.6,20.8,21.9c3.2,12.2-6.1,23.7-6.1,23.7s-13.9-11-16.7-20.6
			C279.1,238.9,283.9,223.5,283.9,223.5"/>
		<path class="st0" d="M254.6,279.7c0,0,17.6,9.6,20.8,21.9c3.2,12.2-6.1,23.7-6.1,23.7s-13.9-11-16.7-20.6
			C249.8,295.1,254.6,279.7,254.6,279.7"/>
		<path class="st0" d="M280.1,373.2c0,0-10.8-16.9-7.7-29.1c3.1-12.2,16.8-17.9,16.8-17.9s7,16.3,4.7,26.1
			C291.7,362,280.1,373.2,280.1,373.2"/>
		<path class="st0" d="M78.6,365.5c0,0-5.1-19.4,1.5-30.1c6.7-10.7,21.4-11.9,21.4-11.9s1.6,17.7-3.4,26.3
			C93.1,358.3,78.6,365.5,78.6,365.5"/>
	</g>
	<path class="st0" d="M41.3,253.2c0,0,19.5,8,24.2,20.4c4.7,12.4-3.6,25.6-3.6,25.6s-15.9-9.9-19.9-19.6
		C38.1,269.9,41.3,253.2,41.3,253.2"/>
	<path class="st0" d="M7.1,303.9c0,0,12.7-15.5,25.3-16.4c12.6-0.9,22.2,10.4,22.2,10.4s-13.4,11.7-23.3,12.6
		C21.4,311.4,7.1,303.9,7.1,303.9"/>
	<path class="st0" d="M28.3,336.3c0,0,1.6-20,11.4-27.9c9.8-7.9,24.2-4.2,24.2-4.2s-4.3,17.2-11.9,23.6
		C44.3,334.3,28.3,336.3,28.3,336.3"/>
</g>
<g>
	<polygon class="st1" points="184.4,510.8 196.4,47.5 208.4,510.8 184.4,510.8 	"/>
</g>
<g>
	<path class="st1" d="M238.8,80.5c-6.2,17.8-16.4,36.8-33.5,46.5c-2.7,1.4-5.6,2.6-8.6,3.5c0,0-2.2-11.8-2.2-11.8
		c9.7-0.8,18.1-6.4,25.2-13.1C227.2,98.3,233.6,89.7,238.8,80.5L238.8,80.5z"/>
</g>
<g>
	<path class="st1" d="M195.4,268.4c-35.7-14.4-73.4-39.2-91.8-73.9c-2.6-5-4.7-10.3-6.4-15.6c6.3,15.6,16.9,28.9,29.5,39.8
		c12.5,10.8,26.8,19.5,41.7,26.6c8.7,4.1,17.6,7.7,26.7,10.6c1.3,0.4,2.6,0.8,3.8,1.1C199.1,256.9,195.4,268.4,195.4,268.4
		L195.4,268.4z"/>
</g>
<g>
	<path class="st1" d="M141.5,238c-9.3-26.6-18.5-60-15-88.1c-0.5,9.3,0.6,18.6,2.3,27.7c2.6,12.7,6.3,25.1,10.8,37.3
		c2.6,6.9,5.3,13.8,8.4,20.5L141.5,238L141.5,238z"/>
</g>
<g>
	<path class="st1" d="M190,349.6c-1-0.2-3-0.6-4-0.7c-10.6-1.8-21.2-3.9-31.5-6.6c-32.5-8.4-63.9-21.5-92.2-39.5
		c0,0-7.7-4.9-7.7-4.9c10.3,5.6,21.8,11.4,32.7,15.8c22.1,9.2,45.6,15.8,69.1,19.9c10.3,1.8,20.7,3,31.2,3.9c1.4,0.1,3.6,0.3,5,0.5
		C192.5,337.9,190,349.6,190,349.6L190,349.6z"/>
</g>
<g>
	<path class="st1" d="M149.3,338c-6.6-10.7-13.7-25.6-17.5-38.9c-1.4-4.6-2.5-9.3-3.4-14c1.5,4.6,3.1,9.1,5.1,13.4
		c5.5,12.5,12.7,24.2,21.1,35c0.5,0.7,1.1,1.5,1.5,2.3C156,335.8,149.3,338,149.3,338L149.3,338z"/>
</g>
<g>
	<path class="st1" d="M203.9,331.8c54.9,1.3,113.8-16.9,149.9-60.1c10.3-12.1,18.2-25.9,24.5-40.4c-6.9,19.3-17.4,37.5-31.2,52.7
		c-1.8,1.8-5.4,5.8-7.2,7.4c-2.4,2.2-5.2,4.9-7.7,6.9c-28.3,24-64.4,37.4-100.8,43.1c-9.3,1.4-18.6,2.4-28,2.4
		C203.4,343.7,203.9,331.8,203.9,331.8L203.9,331.8z"/>
</g>
<g>
	<path class="st1" d="M268.6,324.7c10.6-11.9,19.1-26,25.8-40.4c7.7-16.8,12.5-34.7,14.3-53.1c-0.4,13.1-2.3,26.2-5.7,38.9
		c-4.1,14.8-10.2,29.3-17.9,42.5c-3.4,5.8-7,11.4-11.2,16.7C273.9,329.3,268.6,324.7,268.6,324.7L268.6,324.7z"/>
</g>
<g>
	<path class="st1" d="M286,301.3c2.3-10.9,0.2-22.3-3.4-32.8c-0.3-0.7-1.7-4.3-2-5c-0.7-1.4-1.7-3.4-2.3-4.8
		c-0.6-1.4-2.4-4.3-3.2-5.6c-2.9-4.9-6.5-9.6-10.1-14c3.9,4.2,7.9,8.6,11.1,13.3c0.5,0.7,2.6,3.9,3.1,4.5c1,1.7,2.3,3.9,3.3,5.7
		c3.9,7.5,6.8,15.6,8.2,23.9c0.8,5.3,1.1,10.6,0.2,15.9C290.9,302.5,286,301.3,286,301.3L286,301.3z"/>
</g>
<g>
	<path class="st1" d="M196.4,218.5c35.5-5.2,69.8-23.8,95.9-48.1c9-8.4,17.2-17.7,24.6-27.6c-23.2,37.3-58.7,67.1-100.1,82.2
		c-5.9,2.1-11.9,4-18.1,5.3c0,0-0.7,0.1-0.7,0.1S196.4,218.5,196.4,218.5L196.4,218.5z"/>
</g>
<g>
	<path class="st1" d="M221.3,215.4c10-12.5,19.5-25.7,28-39.3c6.4-10.3,12.3-20.8,16.5-32.2c1.4-3.8,2.5-7.7,3-11.7
		c-0.5,8.1-3.2,16-6.1,23.5c-9.3,22.7-22.1,43.6-35.8,63.9C226.9,219.6,221.3,215.4,221.3,215.4L221.3,215.4z"/>
</g>
<g>
	<path class="st1" d="M255.4,198.3c23.6,6.8,55.9,13.6,79.9,6.7c3.7-1.1,7.3-2.7,10.5-5c-6.1,5-13.9,7.5-21.6,9
		c-23.5,3.9-47.5,0.8-70.6-4C253.6,205,255.4,198.3,255.4,198.3L255.4,198.3z"/>
</g>
<g>
	<path class="st1" d="M120.5,219.1c-25.7,7-72.6,16.6-95.6,0.6c3.4,2.1,7.3,3.5,11.2,4.5c19.7,4.3,40.1,0.1,59.4-4.6
		c7.7-2,15.5-4.4,22.9-7.1C118.2,212.5,120.5,219.1,120.5,219.1L120.5,219.1z"/>
</g>
</svg>
