<?xml version="1.0" encoding="utf-8"?>
<!-- Generator: Adobe Illustrator 26.3.1, SVG Export Plug-In . SVG Version: 6.00 Build 0)  -->
<svg version="1.1" id="Layer_1" xmlns="http://www.w3.org/2000/svg" xmlns:xlink="http://www.w3.org/1999/xlink" x="0px" y="0px"
	 viewBox="0 0 706.3 323.5" style="enable-background:new 0 0 706.3 323.5;" xml:space="preserve">
<style type="text/css">
	.st0{fill:#52A785;}
	.st1{fill:#887562;}
</style>
<g id="treeanimate1">
	<g>
		<g>
			<path class="st0" d="M655.7,31.3c0,0,3.6,6.2,2.3,10.5s-6.3,6.1-6.3,6.1s-2.2-5.9-1.3-9.4C651.4,35.1,655.7,31.3,655.7,31.3"/>
			<path class="st0" d="M668.4,45.7c0,0-3.4,5.8-7.5,6.8s-7.9-2.2-7.9-2.2s3.8-4.6,7-5.5C663.3,43.9,668.4,45.7,668.4,45.7"/>
			<path class="st0" d="M656,60.2c0,0,4.6,2.3,5.4,5.4c0.9,3.1-1.4,6.1-1.4,6.1s-3.6-2.7-4.4-5.1C654.9,64.2,656,60.2,656,60.2"/>
			<path class="st0" d="M668.5,65.9c0,0,3.1,4.1,2.5,7.3c-0.5,3.2-3.9,4.9-3.9,4.9s-2.1-4-1.7-6.5C665.7,69,668.5,65.9,668.5,65.9"
				/>
			<path class="st0" d="M684.9,74.8c0,0-4,4.9-8,5.1c-4,0.3-7-3.3-7-3.3s4.2-3.7,7.4-3.9C680.4,72.4,684.9,74.8,684.9,74.8"/>
			<path class="st0" d="M684.8,91.4c0,0,1.2,6.8-1.4,10.2c-2.6,3.5-7.7,3.4-7.7,3.4s0-6.1,1.9-8.9C679.6,93.4,684.8,91.4,684.8,91.4
				"/>
			<path class="st0" d="M625,37.4c0,0,6.7-2.4,10.6-0.4c4,2,4.8,7.2,4.8,7.2s-6.2,1.1-9.3-0.4S625,37.4,625,37.4"/>
			<path class="st0" d="M642,26.2c0,0,5.1,4.9,5,9.4c-0.1,4.4-4.3,7.5-4.3,7.5s-3.7-5-3.7-8.6C639,31,642,26.2,642,26.2"/>
			<path class="st0" d="M646.8,70.7c0,0,4.9-1.4,7.7,0.2s3.2,5.4,3.2,5.4s-4.5,0.5-6.7-0.7C648.7,74.3,646.8,70.7,646.8,70.7"/>
			<path class="st0" d="M603.4,102.9c0,0-3-4.2-2.3-7.4c0.7-3.2,4.1-4.8,4.1-4.8s2,4.1,1.5,6.6C606.3,99.9,603.4,102.9,603.4,102.9"
				/>
			<path class="st0" d="M593.7,70.4c0,0,7.2-2.5,11.5-0.3s5.2,7.8,5.2,7.8s-6.7,1.2-10.1-0.5C596.9,75.7,593.7,70.4,593.7,70.4"/>
			<path class="st0" d="M609.8,64.1c0,0,6.2,1.3,8.2,4.7c2,3.4,0.3,7.7,0.3,7.7s-5.2-2.1-6.9-4.7C609.8,69.2,609.8,64.1,609.8,64.1"
				/>
			<path class="st0" d="M623.2,60.9c0,0,3.9,5.6,3,9.9c-0.9,4.2-5.5,6.4-5.5,6.4s-2.6-5.5-2-8.9C619.4,64.9,623.2,60.9,623.2,60.9"
				/>
			<path class="st0" d="M702.3,116.2c0,0-6.2,1.2-9.4-1.1c-3.2-2.3-3.3-7-3.3-7s5.6-0.2,8.2,1.6
				C700.3,111.5,702.3,116.2,702.3,116.2"/>
			<path class="st0" d="M688.3,127.4c0,0-6.4,2.5-10.3,0.6c-3.9-1.9-4.9-6.9-4.9-6.9s6-1.2,9.1,0.2
				C685.3,122.7,688.3,127.4,688.3,127.4"/>
			<path class="st0" d="M666.2,99.5c0,0-4.5,1.7-7.3,0.4c-2.7-1.3-3.4-4.8-3.4-4.8s4.2-0.9,6.4,0.1
				C664.1,96.3,666.2,99.5,666.2,99.5"/>
			<path class="st0" d="M705.3,97.9c0,0-1.8,6.7-5.6,8.7c-3.8,2.1-8.4-0.1-8.4-0.1s2.5-5.6,5.5-7.2
				C699.7,97.5,705.3,97.9,705.3,97.9"/>
			<path class="st0" d="M593.4,83.3c0,0,5.1-0.6,7.6,1.4c2.5,2.1,2.3,5.8,2.3,5.8s-4.5-0.2-6.5-1.8
				C594.7,87.2,593.4,83.3,593.4,83.3"/>
			<path class="st0" d="M617.3,97.6c0,0,4.9,3.4,5.4,7c0.6,3.7-2.5,6.8-2.5,6.8s-3.8-3.7-4.3-6.5C615.4,102,617.3,97.6,617.3,97.6"
				/>
			<path class="st0" d="M628.8,82.9c0,0,4.9,3.4,5.4,7c0.6,3.7-2.5,6.8-2.5,6.8s-3.8-3.7-4.3-6.5C626.9,87.3,628.8,82.9,628.8,82.9"
				/>
			<path class="st0" d="M669,90.3c0,0,5.6,3.1,6.6,6.9c1,3.9-1.9,7.5-1.9,7.5s-4.4-3.5-5.3-6.5C667.5,95.2,669,90.3,669,90.3"/>
			<path class="st0" d="M659.7,108.1c0,0,5.6,3.1,6.6,6.9c1,3.9-1.9,7.5-1.9,7.5s-4.4-3.5-5.3-6.5S659.7,108.1,659.7,108.1"/>
			<path class="st0" d="M667.8,137.7c0,0-3.4-5.4-2.4-9.2c1-3.9,5.3-5.7,5.3-5.7s2.2,5.2,1.5,8.3
				C671.5,134.2,667.8,137.7,667.8,137.7"/>
			<path class="st0" d="M604,135.3c0,0-1.6-6.1,0.5-9.5c2.1-3.4,6.8-3.8,6.8-3.8s0.5,5.6-1.1,8.3C608.5,133,604,135.3,604,135.3"/>
		</g>
		<path class="st0" d="M592.1,99.7c0,0,6.2,2.5,7.7,6.5c1.5,3.9-1.1,8.1-1.1,8.1s-5-3.1-6.3-6.2C591.1,105,592.1,99.7,592.1,99.7"/>
		<path class="st0" d="M581.3,115.8c0,0,4-4.9,8-5.2c4-0.3,7,3.3,7,3.3s-4.2,3.7-7.4,4C585.8,118.2,581.3,115.8,581.3,115.8"/>
		<path class="st0" d="M588,126c0,0,0.5-6.3,3.6-8.8s7.7-1.3,7.7-1.3s-1.4,5.5-3.8,7.5C593.1,125.4,588,126,588,126"/>
	</g>
	<g>
		<polygon class="st1" points="637.5,181.3 641.3,34.5 645.1,181.3 		"/>
	</g>
	<g>
		<path class="st1" d="M654.7,45c-2.3,6.6-6.2,13.6-13.3,15.8l-0.7-3.7c1.4-0.1,2.8-0.6,4.2-1.3C649.1,53.4,652.3,49.2,654.7,45
			L654.7,45z"/>
	</g>
	<g>
		<path class="st1" d="M641,104.5c-13.1-5.5-26.5-14.3-31.1-28.4c1.3,3.3,3.3,6.3,5.6,8.9c4.7,5.2,10.7,9.1,17,12.1
			c3.1,1.5,6.5,2.8,9.7,3.7L641,104.5L641,104.5z"/>
	</g>
	<g>
		<path class="st1" d="M623.9,94.9c-3-8.9-5.8-18.4-4.8-27.9c-0.2,4.7,0.7,9.4,2,13.9s2.9,8.9,4.8,13.2
			C625.9,94,623.9,94.9,623.9,94.9L623.9,94.9z"/>
	</g>
	<g>
		<path class="st1" d="M639.2,130.3c-15.3-2.4-30.1-7.8-42.9-16.4c12.5,7,26.5,11.1,40.7,12.4c0.9,0.1,2.2,0.2,3,0.3
			C640,126.6,639.2,130.3,639.2,130.3L639.2,130.3z"/>
	</g>
	<g>
		<path class="st1" d="M626.4,126.6c-2.1-3.4-4.3-8.1-5.6-12.3c-0.5-1.5-0.8-3-1.1-4.4c0.5,1.4,1,2.9,1.6,4.3c1.7,4,4,7.7,6.7,11.1
			c0.2,0.2,0.4,0.5,0.5,0.7C628.5,125.9,626.4,126.6,626.4,126.6L626.4,126.6z"/>
	</g>
	<g>
		<path class="st1" d="M643.6,124.6c16.7,0.4,34.5-4.9,46.1-17.4c3.9-4.2,6.9-9.1,9.2-14.4c-2,5.4-4.7,10.6-8.5,15
			c-7.4,9.1-18.2,15-29.5,18c-5.8,1.5-11.5,2.5-17.5,2.6C643.5,128.4,643.6,124.6,643.6,124.6L643.6,124.6z"/>
	</g>
	<g>
		<path class="st1" d="M664.1,122.4c7.1-8.2,11.7-18.8,12.7-29.6c-0.1,2.8-0.3,5.5-0.9,8.2c-1.6,8.3-5,16.1-10.1,22.8L664.1,122.4
			L664.1,122.4z"/>
	</g>
	<g>
		<path class="st1" d="M669.7,115c1.2-6.1-1.4-12.6-5-17.5c-0.5-0.7-1.1-1.4-1.7-2.2c1.2,1.3,2.5,2.7,3.5,4.2
			c3.2,4.6,5.4,10.1,4.7,15.9C671.2,115.3,669.7,115,669.7,115L669.7,115z"/>
	</g>
	<g>
		<path class="st1" d="M641.3,88.7c14.2-2.2,27.4-10.5,36.3-21.7l1.8-2.3c-1,1.4-2.3,3.5-3.4,4.8c-7.2,9.6-17.1,17.1-28.4,21.2
			c-1.9,0.7-3.8,1.3-6,1.7C641.8,92.5,641.3,88.7,641.3,88.7L641.3,88.7z"/>
	</g>
	<g>
		<path class="st1" d="M649.2,87.7c3.2-4,6.2-8.1,8.9-12.4c2.6-4.3,5.3-8.8,6.2-13.9c-0.2,2.6-1,5.1-1.9,7.4
			c-2.9,7.2-7,13.8-11.3,20.2C650.9,89.1,649.2,87.7,649.2,87.7L649.2,87.7z"/>
	</g>
	<g>
		<path class="st1" d="M660,82.3c8.1,2.2,21.1,5.3,28.6,0.5c-1.9,1.6-4.4,2.4-6.8,2.9c-7.4,1.2-15,0.3-22.4-1.3
			C659.4,84.5,660,82.3,660,82.3L660,82.3z"/>
	</g>
	<g>
		<path class="st1" d="M617.2,88.9c-8.7,2.2-22.4,5.3-30.3,0.2c2.2,1.3,4.8,1.8,7.3,1.9c7.6,0.2,15.2-1.8,22.3-4.2L617.2,88.9
			L617.2,88.9z"/>
	</g>
</g>
<g id="treeanimate2_00000164488912553005950530000015291577279585637253_">
	<g>
		<g>
			<path class="st0" d="M59.3,89.4c0,0-4.2,7.9-2.7,13.4s7.3,7.8,7.3,7.8s2.6-7.6,1.5-12C64.3,94.3,59.3,89.4,59.3,89.4"/>
			<path class="st0" d="M44.5,107.8c0,0,3.9,7.5,8.7,8.7s9.2-2.8,9.2-2.8s-4.4-5.9-8.2-7C50.5,105.6,44.5,107.8,44.5,107.8"/>
			<path class="st0" d="M58.9,126.5c0,0-5.3,3-6.3,7s1.6,7.8,1.6,7.8s4.2-3.5,5.1-6.6C60.2,131.5,58.9,126.5,58.9,126.5"/>
			<path class="st0" d="M44.5,133.7c0,0-3.6,5.2-3,9.3s4.6,6.2,4.6,6.2s2.4-5.2,2-8.4C47.6,137.6,44.5,133.7,44.5,133.7"/>
			<path class="st0" d="M25.4,145c0,0,4.7,6.2,9.3,6.5s8.1-4.2,8.1-4.2s-4.9-4.7-8.6-5C30.6,142,25.4,145,25.4,145"/>
			<path class="st0" d="M25.5,166.2c0,0-1.4,8.7,1.6,13.1c3,4.4,8.9,4.4,8.9,4.4s0-7.8-2.3-11.3C31.5,168.8,25.5,166.2,25.5,166.2"
				/>
			<path class="st0" d="M95,97.3c0,0-7.7-3.1-12.3-0.5C78.1,99.4,77,106,77,106s7.2,1.4,10.9-0.5C91.6,103.5,95,97.3,95,97.3"/>
			<path class="st0" d="M75.2,83c0,0-5.9,6.3-5.8,12s5,9.6,5,9.6s4.3-6.5,4.3-10.9C78.8,89.1,75.2,83,75.2,83"/>
			<path class="st0" d="M69.7,139.8c0,0-5.7-1.8-9,0.3c-3.2,2.1-3.7,6.9-3.7,6.9s5.3,0.7,7.8-0.9C67.4,144.5,69.7,139.8,69.7,139.8"
				/>
			<path class="st0" d="M120.1,181c0,0,3.4-5.4,2.7-9.4c-0.8-4-4.8-6.1-4.8-6.1s-2.3,5.2-1.8,8.4C116.8,177.1,120.1,181,120.1,181"
				/>
			<path class="st0" d="M131.4,139.4c0,0-8.4-3.2-13.4-0.4s-6,10-6,10s7.8,1.5,11.8-0.7C127.7,146.2,131.4,139.4,131.4,139.4"/>
			<path class="st0" d="M112.7,131.4c0,0-7.2,1.7-9.6,6.1c-2.4,4.3-0.3,9.9-0.3,9.9s6-2.7,8-6C112.8,137.9,112.7,131.4,112.7,131.4"
				/>
			<path class="st0" d="M97.2,127.3c0,0-4.6,7.2-3.5,12.6c1,5.4,6.4,8.1,6.4,8.1s3-7,2.3-11.3C101.6,132.5,97.2,127.3,97.2,127.3"/>
			<path class="st0" d="M5.1,197.9c0,0,7.2,1.6,11-1.3c3.8-2.9,3.9-8.9,3.9-8.9s-6.5-0.2-9.5,2C7.4,191.9,5.1,197.9,5.1,197.9"/>
			<path class="st0" d="M21.4,212.2c0,0,7.5,3.2,12,0.7c4.5-2.4,5.6-8.8,5.6-8.8s-7-1.5-10.6,0.3C24.9,206.3,21.4,212.2,21.4,212.2"
				/>
			<path class="st0" d="M47.1,176.7c0,0,5.3,2.2,8.4,0.5c3.2-1.7,4-6.2,4-6.2s-4.9-1.1-7.4,0.2S47.1,176.7,47.1,176.7"/>
			<path class="st0" d="M1.7,174.5c0,0,2.1,8.5,6.5,11.1s9.8-0.1,9.8-0.1s-2.9-7.1-6.4-9.3C8.1,174.1,1.7,174.5,1.7,174.5"/>
			<path class="st0" d="M131.8,155.9c0,0-5.9-0.8-8.8,1.8s-2.6,7.5-2.6,7.5s5.3-0.3,7.6-2.3C130.3,160.9,131.8,155.9,131.8,155.9"/>
			<path class="st0" d="M104.1,174.2c0,0-5.7,4.3-6.3,9c-0.7,4.7,2.9,8.7,2.9,8.7s4.4-4.7,5-8.4
				C106.2,179.8,104.1,174.2,104.1,174.2"/>
			<path class="st0" d="M90.6,155.5c0,0-5.7,4.3-6.3,9c-0.7,4.7,2.9,8.7,2.9,8.7s4.4-4.7,5-8.4C92.8,161.1,90.6,155.5,90.6,155.5"/>
			<path class="st0" d="M43.8,164.9c0,0-6.5,3.9-7.6,8.8c-1.2,4.9,2.3,9.6,2.3,9.6s5.1-4.5,6.1-8.3
				C45.6,171.1,43.8,164.9,43.8,164.9"/>
			<path class="st0" d="M54.7,187.6c0,0-6.5,3.9-7.6,8.8c-1.2,4.9,2.3,9.6,2.3,9.6s5.1-4.5,6.1-8.3
				C56.4,193.9,54.7,187.6,54.7,187.6"/>
			<path class="st0" d="M45.3,225.5c0,0,4-6.8,2.8-11.8c-1.1-4.9-6.2-7.2-6.2-7.2s-2.6,6.6-1.7,10.5C41,220.9,45.3,225.5,45.3,225.5
				"/>
			<path class="st0" d="M119.5,222.4c0,0,1.9-7.8-0.6-12.2c-2.5-4.3-7.9-4.8-7.9-4.8s-0.6,7.2,1.3,10.6
				C114.2,219.5,119.5,222.4,119.5,222.4"/>
		</g>
		<path class="st0" d="M133.3,176.9c0,0-7.2,3.2-8.9,8.3c-1.7,5,1.3,10.3,1.3,10.3s5.9-4,7.3-7.9
			C134.5,183.7,133.3,176.9,133.3,176.9"/>
		<path class="st0" d="M145.9,197.4c0,0-4.7-6.3-9.3-6.6c-4.6-0.4-8.2,4.2-8.2,4.2s4.9,4.7,8.6,5.1
			C140.6,200.5,145.9,197.4,145.9,197.4"/>
		<path class="st0" d="M138.1,210.5c0,0-0.6-8.1-4.2-11.3c-3.6-3.2-8.9-1.7-8.9-1.7s1.6,7,4.4,9.6
			C132.2,209.7,138.1,210.5,138.1,210.5"/>
	</g>
	<g>
		<polygon class="st1" points="71.5,281.2 76.1,93.6 80.7,281.2 		"/>
	</g>
	<g>
		<path class="st1" d="M60.5,107c2.8,5.3,6.4,10.5,11.5,13.8c1.6,1,3.3,1.6,4.9,1.8l-0.9,4.5C67.2,124.1,63.1,115.1,60.5,107
			L60.5,107z"/>
	</g>
	<g>
		<path class="st1" d="M75,178.5c15.7-5.4,31.5-15.6,37.6-31.8c-1.1,4.2-3,8.2-5.4,11.8c-7.4,11-18.6,19-30.7,24.3
			C76.6,182.9,75,178.5,75,178.5L75,178.5z"/>
	</g>
	<g>
		<path class="st1" d="M93.9,169.7c4.3-11,8.3-22.7,8-34.6c0.4,3,0.4,6,0.2,9c-0.7,9.1-2.8,17.9-5.6,26.6
			C96.4,170.7,93.9,169.7,93.9,169.7L93.9,169.7z"/>
	</g>
	<g>
		<path class="st1" d="M77.5,211.3c1-0.2,2.5-0.3,3.6-0.4c16.7-1.7,33-7.1,47.4-15.9c-7.3,5.4-15.3,9.9-23.7,13.4
			c-8.2,3.4-16.8,5.8-25.5,7.3l-0.7,0.1L77.5,211.3L77.5,211.3z"/>
	</g>
	<g>
		<path class="st1" d="M90.9,210.4c0.2-0.5,0.6-1,0.9-1.5c4-5.8,7.3-12.3,9.3-19.1c-1.2,7.1-3.7,14-7.1,20.4
			c-0.1,0.2-0.5,0.8-0.6,1.1v-0.1L90.9,210.4L90.9,210.4z"/>
	</g>
	<g>
		<path class="st1" d="M73.5,213.5c-21-0.6-42.6-9.6-55.2-26.9c-4.1-5.7-7.2-12-9.3-18.5c2.5,6.4,5.9,12.5,10.2,17.8
			c11.9,14.6,30.7,22.2,49.2,23c1.7,0.1,3.4,0.1,4.9,0L73.5,213.5L73.5,213.5z"/>
	</g>
	<g>
		<path class="st1" d="M47.5,207.6C39.5,196,35.1,182,34.7,168c0.4,3.5,0.8,6.9,1.7,10.3c1.6,6.7,4.2,13.2,7.5,19.2
			c1.7,3,3.6,5.9,5.7,8.5L47.5,207.6L47.5,207.6z"/>
	</g>
	<g>
		<path class="st1" d="M41.2,196.8c-1.1-9.5,3.5-18.6,9.6-25.6c-0.7,0.9-1.4,1.9-2,2.8c-4.2,6.5-7.1,14.7-5.7,22.4
			C43.1,196.4,41.2,196.8,41.2,196.8L41.2,196.8z"/>
	</g>
	<g>
		<path class="st1" d="M75.4,167.6c-17.6-4.4-32.5-17.1-41.9-32.3l-1.9-3c0.7,1,2.4,3.3,3.1,4.3c9.5,12.3,22.9,22.1,38.1,25.9
			c1,0.3,2.2,0.5,3.2,0.6C76.1,163,75.4,167.6,75.4,167.6L75.4,167.6z"/>
	</g>
	<g>
		<path class="st1" d="M64.8,163.2c-3.4-5.5-6.6-11.1-9.4-17c-2.7-5.8-5.5-11.9-6-18.3c0.4,3.2,1.6,6.2,2.8,9.1
			c2.6,5.9,5.9,11.4,9.3,16.7c1.7,2.7,3.6,5.3,5.4,7.9L64.8,163.2L64.8,163.2z"/>
	</g>
	<g>
		<path class="st1" d="M55.1,157.3c-9.8,2.2-25.8,4.9-34-2c2.3,1.8,5.2,2.6,8,3c8.5,0.9,17.2-1,25.3-3.6
			C54.3,154.7,55.1,157.3,55.1,157.3L55.1,157.3z"/>
	</g>
	<g>
		<path class="st1" d="M105,160.5c9.4,3.5,25.2,8.6,34.4,2.9c-2.4,1.9-5.4,2.7-8.4,3.2c-9.1,1-18.2-0.9-26.9-3.5
			C104,163,105,160.5,105,160.5L105,160.5z"/>
	</g>
</g>
<g id="treeanimate3">
	<g>
		<g>
			<path class="st0" d="M340.6,163.8c0,0,4.5,7.8,2.9,13.2s-7.9,7.7-7.9,7.7s-2.8-7.5-1.6-11.7C335.1,168.6,340.6,163.8,340.6,163.8
				"/>
			<path class="st0" d="M356.5,181.9c0,0-4.2,7.3-9.4,8.5c-5.2,1.2-9.9-2.8-9.9-2.8s4.8-5.8,8.8-6.8
				C350,179.7,356.5,181.9,356.5,181.9"/>
			<path class="st0" d="M341,200.1c0,0,5.7,2.9,6.8,6.8c1.1,3.9-1.8,7.7-1.8,7.7s-4.6-3.4-5.5-6.5C339.6,205.1,341,200.1,341,200.1"
				/>
			<path class="st0" d="M356.5,207.2c0,0,3.9,5.1,3.2,9.1c-0.7,4-4.9,6.1-4.9,6.1s-2.6-5.1-2.2-8.2
				C353.1,211.1,356.5,207.2,356.5,207.2"/>
			<path class="st0" d="M377.1,218.4c0,0-5,6.1-10,6.4c-5,0.3-8.8-4.2-8.8-4.2s5.3-4.6,9.2-4.9C371.5,215.4,377.1,218.4,377.1,218.4
				"/>
			<path class="st0" d="M377,239.2c0,0,1.5,8.5-1.8,12.8c-3.3,4.3-9.6,4.3-9.6,4.3s0-7.6,2.4-11.1C370.5,241.7,377,239.2,377,239.2"
				/>
			<path class="st0" d="M302.1,171.6c0,0,8.3-3,13.3-0.5s6.1,9,6.1,9s-7.7,1.4-11.7-0.5C305.8,177.7,302.1,171.6,302.1,171.6"/>
			<path class="st0" d="M323.4,157.5c0,0,6.4,6.2,6.3,11.7c-0.1,5.6-5.4,9.4-5.4,9.4s-4.7-6.3-4.7-10.7
				C319.5,163.5,323.4,157.5,323.4,157.5"/>
			<path class="st0" d="M329.4,213.2c0,0,6.2-1.8,9.7,0.3s4,6.8,4,6.8s-5.7,0.7-8.4-0.9C331.8,217.8,329.4,213.2,329.4,213.2"/>
			<path class="st0" d="M275,253.6c0,0-3.7-5.3-2.9-9.2c0.8-4,5.1-6,5.1-6s2.5,5.1,1.9,8.3C278.6,249.9,275,253.6,275,253.6"/>
			<path class="st0" d="M262.9,212.8c0,0,9.1-3.2,14.5-0.4s6.5,9.8,6.5,9.8s-8.4,1.4-12.7-0.7C266.9,219.5,262.9,212.8,262.9,212.8"
				/>
			<path class="st0" d="M283,205c0,0,7.7,1.7,10.3,5.9c2.6,4.3,0.3,9.7,0.3,9.7s-6.5-2.6-8.6-5.9C283,211.4,283,205,283,205"/>
			<path class="st0" d="M299.8,201c0,0,4.9,7.1,3.8,12.4c-1.1,5.3-6.9,8-6.9,8s-3.3-6.9-2.5-11.1C295,206,299.8,201,299.8,201"/>
			<path class="st0" d="M399,270.3c0,0-7.8,1.6-11.8-1.3c-4.1-2.9-4.2-8.7-4.2-8.7s7-0.2,10.3,2C396.5,264.4,399,270.3,399,270.3"/>
			<path class="st0" d="M381.4,284.3c0,0-8.1,3.1-12.9,0.7c-4.9-2.4-6.1-8.6-6.1-8.6s7.5-1.5,11.4,0.3
				C377.7,278.4,381.4,284.3,381.4,284.3"/>
			<path class="st0" d="M353.7,249.4c0,0-5.7,2.2-9.1,0.5s-4.3-6.1-4.3-6.1s5.3-1.1,8,0.2C351,245.3,353.7,249.4,353.7,249.4"/>
			<path class="st0" d="M402.7,247.3c0,0-2.2,8.3-7,10.9s-10.6-0.1-10.6-0.1s3.2-7,6.9-9.1C395.7,246.9,402.7,247.3,402.7,247.3"/>
			<path class="st0" d="M262.4,229c0,0,6.4-0.8,9.5,1.8s2.9,7.3,2.9,7.3s-5.7-0.2-8.2-2.2C264.1,233.9,262.4,229,262.4,229"/>
			<path class="st0" d="M292.3,247c0,0,6.1,4.2,6.8,8.8c0.7,4.6-3.2,8.5-3.2,8.5s-4.7-4.6-5.4-8.2C290,252.5,292.3,247,292.3,247"/>
			<path class="st0" d="M306.8,228.6c0,0,6.1,4.2,6.8,8.8c0.7,4.6-3.2,8.5-3.2,8.5s-4.7-4.6-5.4-8.2
				C304.5,234.1,306.8,228.6,306.8,228.6"/>
			<path class="st0" d="M357.2,237.8c0,0,7,3.8,8.2,8.7c1.3,4.8-2.4,9.4-2.4,9.4s-5.5-4.4-6.6-8.2
				C355.3,244,357.2,237.8,357.2,237.8"/>
			<path class="st0" d="M345.5,260.1c0,0,7,3.8,8.2,8.7c1.3,4.8-2.4,9.4-2.4,9.4s-5.5-4.4-6.6-8.2
				C343.6,266.3,345.5,260.1,345.5,260.1"/>
			<path class="st0" d="M355.7,297.3c0,0-4.3-6.7-3.1-11.6c1.2-4.9,6.7-7.1,6.7-7.1s2.8,6.5,1.9,10.3
				C360.3,292.8,355.7,297.3,355.7,297.3"/>
			<path class="st0" d="M275.7,294.2c0,0-2-7.7,0.6-12s8.5-4.7,8.5-4.7s0.7,7-1.4,10.4C281.4,291.4,275.7,294.2,275.7,294.2"/>
		</g>
		<path class="st0" d="M260.8,249.6c0,0,7.8,3.2,9.6,8.1c1.9,4.9-1.4,10.1-1.4,10.1s-6.3-3.9-7.9-7.8
			C259.6,256.2,260.8,249.6,260.8,249.6"/>
		<path class="st0" d="M247.3,269.8c0,0,5-6.2,10-6.5c5-0.3,8.8,4.1,8.8,4.1s-5.3,4.6-9.2,5C252.9,272.7,247.3,269.8,247.3,269.8"/>
		<path class="st0" d="M255.7,282.6c0,0,0.6-7.9,4.5-11.1c3.9-3.1,9.6-1.6,9.6-1.6s-1.7,6.8-4.7,9.4
			C262,281.8,255.7,282.6,255.7,282.6"/>
	</g>
	<g>
		<polygon class="st1" points="317.7,351.9 322.5,167.9 327.2,351.9 		"/>
	</g>
	<g>
		<path class="st1" d="M339.3,181.1c-2.9,8.2-7.8,17.1-16.7,19.8l-0.9-4.7c1.7-0.2,3.5-0.7,5.2-1.6
			C332.2,191.5,336.2,186.4,339.3,181.1L339.3,181.1z"/>
	</g>
	<g>
		<path class="st1" d="M322.1,255.6c-16.3-6.7-33.4-18.1-39-35.6c1.7,4.1,4.1,7.9,7,11.2c5.9,6.6,13.4,11.4,21.3,15.2
			c3.9,1.8,8.1,3.5,12.1,4.7L322.1,255.6L322.1,255.6z"/>
	</g>
	<g>
		<path class="st1" d="M300.7,243.6c-3.8-11.2-7.2-23.1-6-35c-0.3,5.9,0.9,11.8,2.5,17.4c1.6,5.6,3.7,11.2,6.1,16.5
			C303.2,242.5,300.7,243.6,300.7,243.6L300.7,243.6z"/>
	</g>
	<g>
		<path class="st1" d="M319.9,287.9c-19.1-3-37.7-9.7-53.8-20.6c12.5,7,26.3,11.8,40.4,14.2c4.7,0.9,9.6,1.3,14.4,1.7
			C320.9,283.3,319.9,287.9,319.9,287.9L319.9,287.9z"/>
	</g>
	<g>
		<path class="st1" d="M303.8,283.3c-3.6-5.9-7-13.7-8.3-21c2.2,7,5.9,13.5,10.4,19.2c0.2,0.3,0.4,0.6,0.6,0.9
			C306.4,282.4,303.8,283.3,303.8,283.3L303.8,283.3z"/>
	</g>
	<g>
		<path class="st1" d="M325.4,280.8c21,0.5,43.2-6.1,57.8-21.9c4.9-5.3,8.7-11.5,11.5-18.1c-2.2,5.9-5.1,11.7-8.9,16.7
			c-9.3,12.6-23.6,20.7-38.6,24.7c-7.2,1.9-14.5,3.1-21.9,3.2C325.2,285.6,325.4,280.8,325.4,280.8L325.4,280.8z"/>
	</g>
	<g>
		<path class="st1" d="M351.1,278c8.9-10.3,14.6-23.5,15.9-37.1c-0.2,3.5-0.4,6.9-1.1,10.3c-2,10.4-6.3,20.2-12.7,28.6
			C353.2,279.9,351.1,278,351.1,278L351.1,278z"/>
	</g>
	<g>
		<path class="st1" d="M358,268.7c1.5-7.8-1.7-15.7-6.2-22c-0.7-0.9-1.4-1.8-2.1-2.7c0.8,0.8,1.6,1.7,2.3,2.6
			c3.7,4.5,6.6,9.7,7.7,15.4c0.4,2.3,0.6,4.7,0.2,7.2L358,268.7L358,268.7z"/>
	</g>
	<g>
		<path class="st1" d="M322.5,235.8c17.9-2.8,34.3-13.2,45.6-27.2l2.3-2.9c-1.3,1.8-2.8,4.4-4.2,6.1c-9,12-21.4,21.4-35.5,26.6
			c-2.5,0.9-4.9,1.7-7.5,2.2C323.1,240.6,322.5,235.8,322.5,235.8L322.5,235.8z"/>
	</g>
	<g>
		<path class="st1" d="M332.3,234.6c4-5,7.7-10.2,11.1-15.6c3.3-5.4,6.7-11.1,7.7-17.4c-0.2,3.2-1.3,6.3-2.4,9.3
			c-3.7,9-8.8,17.3-14.2,25.4C334.6,236.3,332.3,234.6,332.3,234.6L332.3,234.6z"/>
	</g>
	<g>
		<path class="st1" d="M345.9,227.8c10,2.8,26.7,6.7,35.9,0.7c-2.4,2-5.5,3-8.6,3.6c-9.3,1.6-18.8,0.3-28.1-1.6
			C345.1,230.5,345.9,227.8,345.9,227.8L345.9,227.8z"/>
	</g>
	<g>
		<path class="st1" d="M292.3,236.1c-10.6,2.8-28.3,6.6-38,0.3c2.8,1.7,6,2.2,9.2,2.4c6.4,0.3,12.7-0.9,18.9-2.5
			c3.1-0.8,6.1-1.7,9.1-2.8L292.3,236.1L292.3,236.1z"/>
	</g>
</g>
</svg>
