<?xml version="1.0" encoding="utf-8"?>
<!-- Generator: Adobe Illustrator 26.3.1, SVG Export Plug-In . SVG Version: 6.00 Build 0)  -->
<svg version="1.1" id="Layer_1" xmlns="http://www.w3.org/2000/svg" xmlns:xlink="http://www.w3.org/1999/xlink" x="0px" y="0px"
	 viewBox="0 0 568.1 341.1" style="enable-background:new 0 0 568.1 341.1;" xml:space="preserve">
<style type="text/css">
	.st0{fill:#52A785;}
	.st1{fill:#887562;}
</style>
<g>
	<g>
		<g>
			<g>
				<path class="st0" d="M203.3,73.9c0,0,4,7,2.6,11.8c-1.5,4.8-7,6.9-7,6.9s-2.5-6.7-1.4-10.5C198.4,78.2,203.3,73.9,203.3,73.9"/>
				<path class="st0" d="M217.5,90c0,0-3.8,6.5-8.4,7.6c-4.6,1.1-8.9-2.5-8.9-2.5s4.3-5.2,7.9-6.1C211.7,88.1,217.5,90,217.5,90"/>
				<path class="st0" d="M203.7,106.4c0,0,5.1,2.6,6.1,6.1c1,3.5-1.6,6.9-1.6,6.9s-4.1-3.1-4.9-5.8
					C202.4,110.8,203.7,106.4,203.7,106.4"/>
				<path class="st0" d="M217.6,112.7c0,0,3.5,4.6,2.9,8.2c-0.6,3.6-4.4,5.5-4.4,5.5s-2.4-4.5-1.9-7.3
					C214.5,116.2,217.6,112.7,217.6,112.7"/>
				<path class="st0" d="M236,122.7c0,0-4.5,5.5-9,5.7c-4.4,0.3-7.8-3.7-7.8-3.7s4.7-4.1,8.3-4.4C230.9,120,236,122.7,236,122.7"/>
				<path class="st0" d="M235.9,141.3c0,0,1.3,7.6-1.6,11.5c-2.9,3.9-8.6,3.9-8.6,3.9s0-6.8,2.2-10
					C230.1,143.6,235.9,141.3,235.9,141.3"/>
				<path class="st0" d="M168.8,80.8c0,0,7.5-2.7,11.9-0.4c4.4,2.3,5.4,8,5.4,8s-6.9,1.3-10.5-0.4C172.2,86.3,168.8,80.8,168.8,80.8
					"/>
				<path class="st0" d="M187.9,68.2c0,0,5.7,5.5,5.6,10.5c-0.1,5-4.8,8.4-4.8,8.4s-4.2-5.7-4.2-9.6
					C184.5,73.6,187.9,68.2,187.9,68.2"/>
				<path class="st0" d="M193.3,118.1c0,0,5.5-1.6,8.6,0.2c3.1,1.8,3.6,6.1,3.6,6.1s-5.1,0.6-7.6-0.8
					C195.5,122.2,193.3,118.1,193.3,118.1"/>
				<path class="st0" d="M144.6,154.3c0,0-3.3-4.7-2.6-8.3c0.7-3.5,4.6-5.3,4.6-5.3s2.2,4.6,1.7,7.4
					C147.8,150.9,144.6,154.3,144.6,154.3"/>
				<path class="st0" d="M133.8,117.8c0,0,8.1-2.8,12.9-0.3c4.8,2.5,5.8,8.8,5.8,8.8s-7.5,1.3-11.4-0.6
					C137.3,123.7,133.8,117.8,133.8,117.8"/>
				<path class="st0" d="M151.8,110.8c0,0,6.9,1.5,9.2,5.3c2.3,3.8,0.3,8.7,0.3,8.7s-5.8-2.3-7.7-5.3
					C151.7,116.5,151.8,110.8,151.8,110.8"/>
				<path class="st0" d="M166.8,107.2c0,0,4.4,6.3,3.4,11.1c-1,4.8-6.2,7.1-6.2,7.1s-2.9-6.2-2.2-10
					C162.5,111.7,166.8,107.2,166.8,107.2"/>
				<path class="st0" d="M255.6,169.1c0,0-6.9,1.4-10.6-1.2c-3.6-2.6-3.7-7.8-3.7-7.8s6.3-0.2,9.2,1.8
					C253.4,163.9,255.6,169.1,255.6,169.1"/>
				<path class="st0" d="M239.9,181.7c0,0-7.2,2.8-11.6,0.7c-4.4-2.1-5.4-7.7-5.4-7.7s6.7-1.4,10.2,0.2
					C236.5,176.4,239.9,181.7,239.9,181.7"/>
				<path class="st0" d="M215,150.5c0,0-5.1,1.9-8.1,0.5c-3.1-1.5-3.8-5.4-3.8-5.4s4.7-1,7.2,0.2C212.7,146.8,215,150.5,215,150.5"
					/>
				<path class="st0" d="M258.9,148.6c0,0-2,7.5-6.3,9.8c-4.3,2.3-9.4-0.1-9.4-0.1s2.8-6.2,6.2-8.1
					C252.7,148.2,258.9,148.6,258.9,148.6"/>
				<path class="st0" d="M133.3,132.2c0,0,5.7-0.7,8.5,1.6c2.8,2.3,2.6,6.6,2.6,6.6s-5.1-0.2-7.3-2
					C134.8,136.6,133.3,132.2,133.3,132.2"/>
				<path class="st0" d="M160.1,148.3c0,0,5.5,3.8,6.1,7.9c0.6,4.1-2.8,7.6-2.8,7.6s-4.2-4.1-4.8-7.3
					C158,153.2,160.1,148.3,160.1,148.3"/>
				<path class="st0" d="M173.1,131.8c0,0,5.5,3.8,6.1,7.9c0.6,4.1-2.8,7.6-2.8,7.6s-4.2-4.1-4.8-7.3
					C171,136.8,173.1,131.8,173.1,131.8"/>
				<path class="st0" d="M218.2,140.1c0,0,6.3,3.4,7.4,7.8c1.1,4.3-2.2,8.4-2.2,8.4s-5-3.9-5.9-7.3
					C216.5,145.6,218.2,140.1,218.2,140.1"/>
				<path class="st0" d="M207.8,160.1c0,0,6.3,3.4,7.4,7.8c1.1,4.3-2.2,8.4-2.2,8.4s-5-3.9-5.9-7.3
					C206.1,165.6,207.8,160.1,207.8,160.1"/>
				<path class="st0" d="M216.8,193.3c0,0-3.8-6-2.7-10.4c1.1-4.3,6-6.4,6-6.4s2.5,5.8,1.7,9.3C221,189.3,216.8,193.3,216.8,193.3"
					/>
				<path class="st0" d="M145.2,190.6c0,0-1.8-6.9,0.5-10.7c2.4-3.8,7.6-4.2,7.6-4.2s0.6,6.3-1.2,9.3
					C150.4,188.1,145.2,190.6,145.2,190.6"/>
			</g>
			<path class="st0" d="M131.9,150.7c0,0,6.9,2.8,8.6,7.3c1.7,4.4-1.3,9.1-1.3,9.1s-5.7-3.5-7.1-7
				C130.8,156.6,131.9,150.7,131.9,150.7"/>
			<path class="st0" d="M119.8,168.7c0,0,4.5-5.5,9-5.8c4.5-0.3,7.9,3.7,7.9,3.7s-4.8,4.2-8.3,4.5
				C124.9,171.4,119.8,168.7,119.8,168.7"/>
			<path class="st0" d="M127.3,180.2c0,0,0.6-7.1,4.1-9.9c3.5-2.8,8.6-1.5,8.6-1.5s-1.5,6.1-4.2,8.4
				C133,179.5,127.3,180.2,127.3,180.2"/>
		</g>
		<g>
			<polygon class="st1" points="182.8,242.3 187.1,77.6 191.4,242.3 182.8,242.3 			"/>
		</g>
		<g>
			<path class="st1" d="M202.1,89.3c-2.6,7.4-6.9,15.3-15,17.8c0,0-0.8-4.2-0.8-4.2c1.5-0.2,3.1-0.7,4.7-1.5
				C195.8,98.7,199.4,94,202.1,89.3L202.1,89.3z"/>
		</g>
		<g>
			<path class="st1" d="M186.7,156.1c-14.6-6.1-29.8-16.1-34.9-31.8c1.5,3.7,3.7,7.1,6.3,10c5.2,5.9,12,10.2,19,13.6
				c3.5,1.7,7.2,3.1,10.9,4.2L186.7,156.1L186.7,156.1z"/>
		</g>
		<g>
			<path class="st1" d="M167.6,145.3c-3.4-10-6.5-20.7-5.3-31.3c-0.3,5.3,0.8,10.5,2.2,15.6c1.4,5,3.3,10,5.4,14.8
				C169.9,144.3,167.6,145.3,167.6,145.3L167.6,145.3z"/>
		</g>
		<g>
			<path class="st1" d="M184.8,185c-17.1-2.7-33.8-8.7-48.1-18.4c14,7.8,29.7,12.5,45.7,13.9c1,0.1,2.4,0.2,3.4,0.3
				C185.7,180.8,184.8,185,184.8,185L184.8,185z"/>
		</g>
		<g>
			<path class="st1" d="M170.3,180.8c-2.4-3.8-4.9-9.1-6.2-13.8c-0.5-1.6-0.9-3.3-1.2-5c0.5,1.6,1.1,3.2,1.8,4.8
				c1.9,4.5,4.5,8.6,7.5,12.4c0.2,0.2,0.4,0.5,0.5,0.8C172.7,180,170.3,180.8,170.3,180.8L170.3,180.8z"/>
		</g>
		<g>
			<path class="st1" d="M189.7,178.6c12.5,0.3,25.4-2.3,36.6-8.1c11.4-5.8,20.6-15.8,25.4-27.7c-1.7,4.6-3.8,9-6.6,13
				c-8.3,12.3-21.8,20.3-36,24.1c-6.5,1.7-12.9,2.8-19.6,2.9C189.6,182.9,189.7,178.6,189.7,178.6L189.7,178.6z"/>
		</g>
		<g>
			<path class="st1" d="M212.8,176.1c6-6.8,10.3-15.3,12.6-24.1c0.8-3,1.3-6,1.6-9.1c-0.1,3.1-0.4,6.2-1,9.3
				c-1.8,9.3-5.6,18.1-11.4,25.6C214.6,177.7,212.8,176.1,212.8,176.1L212.8,176.1z"/>
		</g>
		<g>
			<path class="st1" d="M218.9,167.8c1.3-6.9-1.6-14.1-5.6-19.7c-0.6-0.8-1.3-1.6-1.9-2.4c0.7,0.8,1.4,1.5,2.1,2.3
				c3.3,4,5.9,8.7,6.9,13.8c0.4,2.1,0.6,4.2,0.2,6.4L218.9,167.8L218.9,167.8z"/>
		</g>
		<g>
			<path class="st1" d="M187.1,138.3c16-2.5,30.7-11.8,40.8-24.3c0,0,2.1-2.6,2.1-2.6c-1.2,1.6-2.5,3.9-3.8,5.4
				c-8.1,10.7-19.2,19.1-31.8,23.8c-2.2,0.8-4.3,1.4-6.7,1.9L187.1,138.3L187.1,138.3z"/>
		</g>
		<g>
			<path class="st1" d="M195.9,137.2c3.6-4.4,6.9-9.1,10-14c2.9-4.9,6-9.9,6.9-15.6c-0.2,2.9-1.1,5.7-2.2,8.4
				c-3.3,8.1-7.8,15.5-12.7,22.7C197.9,138.7,195.9,137.2,195.9,137.2L195.9,137.2z"/>
		</g>
		<g>
			<path class="st1" d="M208.1,131.2c9,2.5,23.8,6,32.1,0.6c-2.2,1.8-4.9,2.7-7.7,3.2c-8.4,1.4-16.9,0.3-25.1-1.4
				C207.4,133.6,208.1,131.2,208.1,131.2L208.1,131.2z"/>
		</g>
		<g>
			<path class="st1" d="M160.1,138.6c-9.6,2.5-25.2,5.9-34,0.2c2.5,1.5,5.4,2,8.2,2.2c8.5,0.3,17-2,25-4.8
				C159.3,136.2,160.1,138.6,160.1,138.6L160.1,138.6z"/>
		</g>
	</g>
	<g>
		<g>
			<g>
				<path class="st0" d="M376.9,29.2c0,0,5.2,8.9,3.3,15.2c-1.9,6.2-9,8.8-9,8.8s-3.2-8.6-1.9-13.5
					C370.6,34.7,376.9,29.2,376.9,29.2"/>
				<path class="st0" d="M395.1,49.9c0,0-4.8,8.4-10.8,9.8c-5.9,1.4-11.4-3.2-11.4-3.2s5.5-6.6,10.1-7.9
					C387.7,47.5,395.1,49.9,395.1,49.9"/>
				<path class="st0" d="M377.3,71c0,0,6.6,3.4,7.9,7.9c1.3,4.5-2,8.8-2,8.8s-5.2-3.9-6.3-7.4C375.7,76.7,377.3,71,377.3,71"/>
				<path class="st0" d="M395.2,79.1c0,0,4.5,5.9,3.7,10.5c-0.8,4.6-5.7,7-5.7,7s-3-5.8-2.5-9.4C391.3,83.6,395.2,79.1,395.2,79.1"
					/>
				<path class="st0" d="M418.9,91.9c0,0-5.8,7-11.5,7.4c-5.7,0.4-10.1-4.8-10.1-4.8s6.1-5.3,10.6-5.7
					C412.4,88.5,418.9,91.9,418.9,91.9"/>
				<path class="st0" d="M418.7,115.8c0,0,1.7,9.8-2,14.8c-3.7,5-11.1,5-11.1,5s-0.1-8.8,2.8-12.8
					C411.3,118.7,418.7,115.8,418.7,115.8"/>
				<path class="st0" d="M332.6,38.1c0,0,9.6-3.4,15.3-0.5c5.7,2.9,7,10.3,7,10.3s-8.9,1.6-13.4-0.6
					C336.9,45.1,332.6,38.1,332.6,38.1"/>
				<path class="st0" d="M357.1,21.9c0,0,7.3,7.1,7.2,13.5c-0.1,6.4-6.2,10.8-6.2,10.8s-5.3-7.3-5.4-12.3
					C352.7,28.9,357.1,21.9,357.1,21.9"/>
				<path class="st0" d="M364,86c0,0,7.1-2.1,11.1,0.3c4,2.4,4.6,7.8,4.6,7.8s-6.5,0.8-9.7-1C366.8,91.3,364,86,364,86"/>
				<path class="st0" d="M301.5,132.4c0,0-4.3-6-3.3-10.6c0.9-4.6,5.9-6.9,5.9-6.9s2.8,5.9,2.2,9.5
					C305.6,128.1,301.5,132.4,301.5,132.4"/>
				<path class="st0" d="M287.5,85.6c0,0,10.4-3.7,16.6-0.4c6.2,3.2,7.5,11.3,7.5,11.3S302,98,297,95.6
					C292.1,93.2,287.5,85.6,287.5,85.6"/>
				<path class="st0" d="M310.7,76.6c0,0,8.9,1.9,11.8,6.8c2.9,4.9,0.4,11.1,0.4,11.1s-7.5-3-9.9-6.8
					C310.6,83.9,310.7,76.6,310.7,76.6"/>
				<path class="st0" d="M330,72c0,0,5.7,8.1,4.4,14.2c-1.3,6.1-8,9.2-8,9.2s-3.8-7.9-2.8-12.8C324.4,77.7,330,72,330,72"/>
				<path class="st0" d="M444,151.6c0,0-8.9,1.8-13.6-1.5c-4.7-3.3-4.8-10-4.8-10s8.1-0.3,11.8,2.3C441.2,144.8,444,151.6,444,151.6
					"/>
				<path class="st0" d="M423.8,167.7c0,0-9.3,3.6-14.9,0.8c-5.6-2.7-7-9.9-7-9.9s8.6-1.7,13.1,0.3
					C419.5,161,423.8,167.7,423.8,167.7"/>
				<path class="st0" d="M391.9,127.6c0,0-6.5,2.5-10.5,0.6c-3.9-1.9-4.9-7-4.9-7s6.1-1.2,9.2,0.2
					C388.9,122.9,391.9,127.6,391.9,127.6"/>
				<path class="st0" d="M448.3,125.2c0,0-2.5,9.6-8,12.6c-5.5,3-12.1-0.1-12.1-0.1s3.6-8,7.9-10.4
					C440.3,124.7,448.3,125.2,448.3,125.2"/>
				<path class="st0" d="M287,104.1c0,0,7.3-0.9,10.9,2.1c3.6,3,3.3,8.4,3.3,8.4s-6.5-0.3-9.4-2.6C288.9,109.8,287,104.1,287,104.1"
					/>
				<path class="st0" d="M321.4,124.8c0,0,7,4.8,7.8,10.2c0.8,5.3-3.6,9.8-3.6,9.8s-5.4-5.3-6.2-9.4
					C318.7,131.1,321.4,124.8,321.4,124.8"/>
				<path class="st0" d="M338.1,103.7c0,0,7,4.8,7.8,10.2c0.8,5.3-3.6,9.8-3.6,9.8s-5.4-5.3-6.2-9.4
					C335.4,110,338.1,103.7,338.1,103.7"/>
				<path class="st0" d="M396,114.3c0,0,8,4.4,9.5,10c1.4,5.6-2.8,10.8-2.8,10.8s-6.4-5-7.6-9.4C393.8,121.3,396,114.3,396,114.3"/>
				<path class="st0" d="M382.6,139.9c0,0,8,4.4,9.5,10c1.4,5.6-2.8,10.8-2.8,10.8s-6.4-5-7.6-9.4
					C380.4,147,382.6,139.9,382.6,139.9"/>
				<path class="st0" d="M394.2,182.7c0,0-4.9-7.7-3.5-13.3c1.4-5.6,7.7-8.2,7.7-8.2s3.2,7.5,2.2,11.9
					C399.6,177.5,394.2,182.7,394.2,182.7"/>
				<path class="st0" d="M302.3,179.1c0,0-2.3-8.9,0.7-13.7c3-4.9,9.8-5.4,9.8-5.4s0.8,8.1-1.6,12
					C308.9,175.9,302.3,179.1,302.3,179.1"/>
			</g>
			<path class="st0" d="M285.2,127.8c0,0,8.9,3.7,11.1,9.3c2.2,5.7-1.6,11.7-1.6,11.7s-7.3-4.5-9.1-8.9
				C283.7,135.5,285.2,127.8,285.2,127.8"/>
			<path class="st0" d="M269.6,151c0,0,5.8-7.1,11.5-7.5c5.7-0.4,10.1,4.7,10.1,4.7s-6.1,5.3-10.6,5.8
				C276.1,154.4,269.6,151,269.6,151"/>
			<path class="st0" d="M279.3,165.8c0,0,0.7-9.1,5.2-12.7c4.5-3.6,11-1.9,11-1.9s-2,7.9-5.4,10.8
				C286.6,164.9,279.3,165.8,279.3,165.8"/>
		</g>
		<g>
			<polygon class="st1" points="350.6,245.5 356,33.9 361.5,245.5 350.6,245.5 			"/>
		</g>
		<g>
			<path class="st1" d="M375.4,49c-3.4,9.4-8.9,19.6-19.2,22.8c0,0-1-5.4-1-5.4c2-0.2,4-0.9,6-1.9C367.3,61.1,371.9,55.1,375.4,49
				L375.4,49z"/>
		</g>
		<g>
			<path class="st1" d="M355.6,134.8c-18.6-7.7-38.5-20.9-44.8-40.9c1,2.4,2.1,4.7,3.5,6.8c8.3,12.8,22,21,36,26.5
				c2.3,0.9,4.7,1.7,7,2.4L355.6,134.8L355.6,134.8z"/>
		</g>
		<g>
			<path class="st1" d="M331,120.9c-4.4-12.9-8.3-26.5-6.9-40.2c-0.4,6.8,1,13.5,2.8,20c1.8,6.5,4.2,12.9,7,19
				C333.9,119.7,331,120.9,331,120.9L331,120.9z"/>
		</g>
		<g>
			<path class="st1" d="M353.1,171.9c-22-3.4-43.4-11.2-61.9-23.6c18,10,38.1,16,58.6,17.9c1.2,0.1,3.1,0.3,4.3,0.4
				C354.2,166.5,353.1,171.9,353.1,171.9L353.1,171.9z"/>
		</g>
		<g>
			<path class="st1" d="M334.5,166.6c-4.2-6.8-8.1-15.8-9.6-24.2c2.6,8,6.8,15.5,11.9,22.1c0.2,0.3,0.5,0.7,0.7,1
				C337.6,165.6,334.5,166.6,334.5,166.6L334.5,166.6z"/>
		</g>
		<g>
			<path class="st1" d="M359.5,163.7c24.1,0.5,49.7-7,66.4-25.1c5.7-6,10-13.2,13.2-20.8c-2.5,6.8-5.8,13.4-10.3,19.2
				c-13.3,18-35.1,27.8-56.8,31.1c-4.3,0.6-8.4,1.1-12.8,1.1C359.3,169.2,359.5,163.7,359.5,163.7L359.5,163.7z"/>
		</g>
		<g>
			<path class="st1" d="M389,160.5c10.3-11.8,16.8-27.1,18.3-42.7c-0.2,4-0.5,8-1.3,11.9c-2.3,11.9-7.2,23.2-14.6,32.9
				C391.4,162.6,389,160.5,389,160.5L389,160.5z"/>
		</g>
		<g>
			<path class="st1" d="M397,149.8c1.7-8.9-2-18.1-7.2-25.3c-0.8-1.1-1.6-2.1-2.4-3.1c0.9,1,1.8,1.9,2.7,2.9
				c4.7,5.6,8.3,12.4,9.2,19.7c0.2,2.1,0.3,4.1,0,6.3C399.2,150.4,397,149.8,397,149.8L397,149.8z"/>
		</g>
		<g>
			<path class="st1" d="M356.1,112c20.6-3.2,39.4-15.2,52.4-31.3c0,0,2.7-3.3,2.7-3.3c-1.5,2.1-3.3,5-4.8,7
				c-10.4,13.8-24.6,24.6-40.9,30.5c-2.8,1-5.6,1.9-8.6,2.5C356.8,117.4,356.1,112,356.1,112L356.1,112z"/>
		</g>
		<g>
			<path class="st1" d="M367.4,110.6c6.8-8.6,13.3-17.7,18.2-27.6c1.6-3.3,3-6.7,3.5-10.4c-0.7,7.4-4.2,14.3-7.5,20.8
				c-3.5,6.6-7.4,12.9-11.6,19.1C370,112.5,367.4,110.6,367.4,110.6L367.4,110.6z"/>
		</g>
		<g>
			<path class="st1" d="M383,102.8c11.4,3.2,30.8,7.7,41.3,0.8c-2.8,2.3-6.3,3.4-9.9,4.1c-10.7,1.8-21.7,0.4-32.3-1.8
				C382.1,105.9,383,102.8,383,102.8L383,102.8z"/>
		</g>
		<g>
			<path class="st1" d="M321.4,112.3c-12.1,3.2-32.7,7.6-43.7,0.3c3.2,1.9,6.9,2.6,10.5,2.8c7.3,0.3,14.6-1.1,21.7-2.9
				c3.5-0.9,7.1-2,10.4-3.2L321.4,112.3L321.4,112.3z"/>
		</g>
	</g>
	<g>
		<g>
			<g>
				<path class="st0" d="M450.6,140.6c0,0,4.1,7.1,2.6,12c-1.5,4.9-7.2,7-7.2,7s-2.5-6.8-1.5-10.7
					C445.7,145,450.6,140.6,450.6,140.6"/>
				<path class="st0" d="M465.1,157.1c0,0-3.8,6.7-8.6,7.8c-4.7,1.1-9.1-2.5-9.1-2.5s4.3-5.3,8-6.2
					C459.2,155.1,465.1,157.1,465.1,157.1"/>
				<path class="st0" d="M451,173.8c0,0,5.2,2.7,6.2,6.2c1,3.5-1.6,7-1.6,7s-4.2-3.1-5-5.9C449.7,178.3,451,173.8,451,173.8"/>
				<path class="st0" d="M465.2,180.2c0,0,3.5,4.7,2.9,8.3c-0.6,3.6-4.5,5.6-4.5,5.6s-2.4-4.6-2-7.5
					C462,183.8,465.2,180.2,465.2,180.2"/>
				<path class="st0" d="M483.9,190.4c0,0-4.6,5.6-9.1,5.9c-4.5,0.3-8-3.8-8-3.8s4.8-4.2,8.4-4.5
					C478.8,187.6,483.9,190.4,483.9,190.4"/>
				<path class="st0" d="M483.8,209.3c0,0,1.4,7.7-1.6,11.7c-3,4-8.8,3.9-8.8,3.9s0-7,2.2-10.1C477.9,211.6,483.8,209.3,483.8,209.3
					"/>
				<path class="st0" d="M415.5,147.7c0,0,7.6-2.7,12.1-0.4c4.5,2.3,5.5,8.2,5.5,8.2s-7,1.3-10.7-0.5
					C418.9,153.3,415.5,147.7,415.5,147.7"/>
				<path class="st0" d="M435,134.9c0,0,5.8,5.6,5.7,10.7c-0.1,5.1-4.9,8.6-4.9,8.6s-4.2-5.8-4.3-9.8
					C431.4,140.4,435,134.9,435,134.9"/>
				<path class="st0" d="M440.4,185.7c0,0,5.6-1.6,8.8,0.2c3.2,1.9,3.6,6.2,3.6,6.2s-5.2,0.6-7.7-0.8
					C442.6,189.9,440.4,185.7,440.4,185.7"/>
				<path class="st0" d="M390.9,222.5c0,0-3.4-4.8-2.6-8.4c0.7-3.6,4.7-5.4,4.7-5.4s2.2,4.7,1.7,7.5
					C394.1,219.1,390.9,222.5,390.9,222.5"/>
				<path class="st0" d="M379.8,185.3c0,0,8.3-2.9,13.2-0.4c4.9,2.5,5.9,8.9,5.9,8.9s-7.7,1.3-11.6-0.6
					C383.4,191.4,379.8,185.3,379.8,185.3"/>
				<path class="st0" d="M398.2,178.2c0,0,7.1,1.5,9.4,5.4c2.3,3.9,0.3,8.8,0.3,8.8s-5.9-2.4-7.9-5.4
					C398.1,184,398.2,178.2,398.2,178.2"/>
				<path class="st0" d="M413.4,174.6c0,0,4.5,6.5,3.5,11.3c-1,4.8-6.3,7.3-6.3,7.3s-3-6.3-2.3-10.1
					C409,179.1,413.4,174.6,413.4,174.6"/>
				<path class="st0" d="M503.8,237.7c0,0-7.1,1.4-10.8-1.2c-3.7-2.6-3.8-8-3.8-8s6.4-0.2,9.4,1.8
					C501.6,232.3,503.8,237.7,503.8,237.7"/>
				<path class="st0" d="M487.8,250.5c0,0-7.3,2.8-11.8,0.7c-4.5-2.2-5.5-7.9-5.5-7.9s6.8-1.4,10.4,0.2
					C484.4,245.1,487.8,250.5,487.8,250.5"/>
				<path class="st0" d="M462.5,218.7c0,0-5.2,2-8.3,0.5c-3.1-1.5-3.9-5.5-3.9-5.5s4.8-1,7.3,0.2
					C460.1,214.9,462.5,218.7,462.5,218.7"/>
				<path class="st0" d="M507.2,216.7c0,0-2,7.6-6.4,10c-4.4,2.4-9.6-0.1-9.6-0.1s2.9-6.3,6.3-8.3
					C500.9,216.4,507.2,216.7,507.2,216.7"/>
				<path class="st0" d="M379.4,200.1c0,0,5.8-0.7,8.6,1.6c2.8,2.4,2.6,6.7,2.6,6.7s-5.2-0.2-7.5-2
					C380.9,204.5,379.4,200.1,379.4,200.1"/>
				<path class="st0" d="M406.6,216.5c0,0,5.6,3.8,6.2,8.1c0.6,4.2-2.9,7.8-2.9,7.8s-4.3-4.2-4.9-7.5
					C404.5,221.5,406.6,216.5,406.6,216.5"/>
				<path class="st0" d="M419.8,199.7c0,0,5.6,3.8,6.2,8.1c0.6,4.2-2.9,7.8-2.9,7.8s-4.3-4.2-4.9-7.5
					C417.7,204.7,419.8,199.7,419.8,199.7"/>
				<path class="st0" d="M465.8,208.1c0,0,6.4,3.5,7.5,7.9c1.1,4.4-2.2,8.6-2.2,8.6s-5-4-6-7.4C464,213.7,465.8,208.1,465.8,208.1"
					/>
				<path class="st0" d="M455.1,228.4c0,0,6.4,3.5,7.5,7.9c1.1,4.4-2.2,8.6-2.2,8.6s-5-4-6-7.4C453.4,234,455.1,228.4,455.1,228.4"
					/>
				<path class="st0" d="M464.4,262.3c0,0-3.9-6.1-2.8-10.5c1.1-4.4,6.1-6.5,6.1-6.5s2.5,5.9,1.7,9.4
					C468.6,258.2,464.4,262.3,464.4,262.3"/>
				<path class="st0" d="M391.5,259.5c0,0-1.9-7,0.6-10.9c2.4-3.9,7.8-4.3,7.8-4.3s0.6,6.4-1.2,9.5
					C396.7,256.9,391.5,259.5,391.5,259.5"/>
			</g>
			<path class="st0" d="M377.9,218.9c0,0,7.1,2.9,8.8,7.4c1.7,4.5-1.3,9.2-1.3,9.2s-5.8-3.6-7.2-7.1
				C376.8,224.9,377.9,218.9,377.9,218.9"/>
			<path class="st0" d="M365.5,237.2c0,0,4.6-5.6,9.2-5.9c4.6-0.3,8,3.8,8,3.8s-4.8,4.2-8.4,4.6
				C370.7,239.9,365.5,237.2,365.5,237.2"/>
			<path class="st0" d="M373.2,248.9c0,0,0.6-7.2,4.1-10.1c3.6-2.9,8.8-1.5,8.8-1.5s-1.6,6.2-4.3,8.6
				C379,248.2,373.2,248.9,373.2,248.9"/>
		</g>
		<g>
			<polygon class="st1" points="429.7,312.1 434.1,144.4 438.4,312.1 429.7,312.1 			"/>
		</g>
		<g>
			<path class="st1" d="M449.4,156.4c-2.7,7.5-7.1,15.6-15.2,18.1c0,0-0.8-4.3-0.8-4.3c1.6-0.2,3.2-0.7,4.7-1.5
				C443,165.9,446.7,161.2,449.4,156.4L449.4,156.4z"/>
		</g>
		<g>
			<path class="st1" d="M433.7,224.4c-14.9-6.2-30.4-16.4-35.5-32.4c1.5,3.8,3.7,7.2,6.4,10.2c5.3,6,12.2,10.4,19.4,13.8
				c3.6,1.7,7.4,3.2,11.1,4.2C435.1,220.2,433.7,224.4,433.7,224.4L433.7,224.4z"/>
		</g>
		<g>
			<path class="st1" d="M414.2,213.4c-3.5-10.2-6.6-21-5.4-31.9c-0.3,5.4,0.8,10.7,2.3,15.9c1.5,5.1,3.3,10.2,5.5,15
				C416.6,212.4,414.2,213.4,414.2,213.4L414.2,213.4z"/>
		</g>
		<g>
			<path class="st1" d="M431.8,253.8c-17.4-2.7-34.4-8.9-49-18.7c14.3,8,30.2,12.7,46.5,14.2c1,0.1,2.5,0.2,3.4,0.3
				C432.7,249.5,431.8,253.8,431.8,253.8L431.8,253.8z"/>
		</g>
		<g>
			<path class="st1" d="M417,249.6c-2.4-3.9-4.9-9.3-6.3-14.1c-0.5-1.7-0.9-3.4-1.2-5.1c0.5,1.7,1.1,3.3,1.8,4.9
				c2,4.5,4.6,8.8,7.6,12.7c0.2,0.2,0.4,0.5,0.5,0.8C419.5,248.8,417,249.6,417,249.6L417,249.6z"/>
		</g>
		<g>
			<path class="st1" d="M436.8,247.3c12.7,0.3,25.9-2.3,37.3-8.2c11.6-5.9,20.9-16.1,25.9-28.2c-1.7,4.6-3.9,9.1-6.7,13.2
				c-8.5,12.5-22.2,20.7-36.7,24.6c-6.6,1.8-13.1,2.8-20,3C436.6,251.6,436.8,247.3,436.8,247.3L436.8,247.3z"/>
		</g>
		<g>
			<path class="st1" d="M460.2,244.8c6.1-7,10.5-15.6,12.9-24.6c0.8-3,1.3-6.1,1.6-9.3c-0.2,9.5-2.9,19-7.4,27.4
				c-1.5,2.8-3.2,5.5-5.2,8.2L460.2,244.8L460.2,244.8z"/>
		</g>
		<g>
			<path class="st1" d="M466.5,236.3c1.4-7-1.6-14.4-5.7-20c-0.6-0.8-1.3-1.6-1.9-2.5c1.4,1.5,2.8,3.1,4,4.8
				c3.7,5.2,6.2,11.6,5.3,18.1C468.3,236.7,466.5,236.3,466.5,236.3L466.5,236.3z"/>
		</g>
		<g>
			<path class="st1" d="M434.1,206.3c16.3-2.5,31.2-12,41.5-24.8c0,0,2.1-2.6,2.1-2.6c-1.2,1.7-2.6,4-3.8,5.5
				c-8.2,10.9-19.5,19.5-32.4,24.2c-2.2,0.8-4.3,1.5-6.8,2L434.1,206.3L434.1,206.3z"/>
		</g>
		<g>
			<path class="st1" d="M443.1,205.2c3.6-4.5,7-9.3,10.1-14.2c3-5,6.1-10.1,7.1-15.9c-0.2,2.9-1.2,5.8-2.2,8.5
				c-3.3,8.2-8,15.8-13,23.1C445.1,206.7,443.1,205.2,443.1,205.2L443.1,205.2z"/>
		</g>
		<g>
			<path class="st1" d="M455.4,199c9.2,2.5,24.2,6.1,32.7,0.6c-2.2,1.8-5,2.7-7.8,3.3c-8.5,1.4-17.2,0.3-25.6-1.4
				C454.8,201.4,455.4,199,455.4,199L455.4,199z"/>
		</g>
		<g>
			<path class="st1" d="M406.6,206.5c-9.8,2.5-25.7,6.1-34.6,0.2c2.5,1.5,5.5,2,8.3,2.2c5.8,0.2,11.6-0.8,17.2-2.3
				c2.8-0.7,5.6-1.6,8.3-2.6C405.8,204.1,406.6,206.5,406.6,206.5L406.6,206.5z"/>
		</g>
	</g>
</g>
</svg>
