<?xml version="1.0" encoding="utf-8"?>
<!-- Generator: Adobe Illustrator 26.3.1, SVG Export Plug-In . SVG Version: 6.00 Build 0)  -->
<svg version="1.1" id="Layer_1" xmlns="http://www.w3.org/2000/svg" xmlns:xlink="http://www.w3.org/1999/xlink" x="0px" y="0px"
	 viewBox="0 0 496.6 323.5" style="enable-background:new 0 0 496.6 323.5;" xml:space="preserve">
<style type="text/css">
	.st0{fill:#52A785;}
	.st1{fill:#887562;}
</style>
<g>
	<g>
		<g>
			<path class="st0" d="M212.9,51.1c0,0,4,7,2.6,11.8c-1.5,4.8-7,6.9-7,6.9s-2.5-6.7-1.4-10.5C208.1,55.4,212.9,51.1,212.9,51.1"/>
			<path class="st0" d="M227.2,67.3c0,0-3.8,6.5-8.4,7.6c-4.6,1.1-8.9-2.5-8.9-2.5s4.3-5.2,7.9-6.1
				C221.4,65.4,227.2,67.3,227.2,67.3"/>
			<path class="st0" d="M213.3,83.6c0,0,5.1,2.6,6.1,6.1c1,3.5-1.6,6.9-1.6,6.9s-4.1-3.1-4.9-5.8C212,88.1,213.3,83.6,213.3,83.6"/>
			<path class="st0" d="M227.2,90c0,0,3.5,4.6,2.9,8.2c-0.6,3.6-4.4,5.5-4.4,5.5s-2.4-4.5-1.9-7.3C224.2,93.5,227.2,90,227.2,90"/>
			<path class="st0" d="M245.6,100c0,0-4.5,5.5-9,5.7c-4.4,0.3-7.8-3.7-7.8-3.7s4.7-4.1,8.3-4.4C240.6,97.3,245.6,100,245.6,100"/>
			<path class="st0" d="M245.5,118.6c0,0,1.3,7.6-1.6,11.5c-2.9,3.9-8.6,3.9-8.6,3.9s0-6.8,2.2-10
				C239.7,120.8,245.5,118.6,245.5,118.6"/>
			<path class="st0" d="M178.5,58.1c0,0,7.5-2.7,11.9-0.4c4.4,2.3,5.4,8,5.4,8s-6.9,1.3-10.5-0.4C181.8,63.5,178.5,58.1,178.5,58.1"
				/>
			<path class="st0" d="M197.6,45.5c0,0,5.7,5.5,5.6,10.5c-0.1,5-4.8,8.4-4.8,8.4s-4.2-5.7-4.2-9.6
				C194.1,50.9,197.6,45.5,197.6,45.5"/>
			<path class="st0" d="M202.9,95.3c0,0,5.5-1.6,8.6,0.2c3.1,1.8,3.6,6.1,3.6,6.1s-5.1,0.6-7.6-0.8
				C205.1,99.5,202.9,95.3,202.9,95.3"/>
			<path class="st0" d="M154.3,131.5c0,0-3.3-4.7-2.6-8.3c0.7-3.5,4.6-5.3,4.6-5.3s2.2,4.6,1.7,7.4
				C157.5,128.1,154.3,131.5,154.3,131.5"/>
			<path class="st0" d="M143.4,95c0,0,8.1-2.8,12.9-0.3c4.8,2.5,5.8,8.8,5.8,8.8s-7.5,1.3-11.4-0.6C147,101,143.4,95,143.4,95"/>
			<path class="st0" d="M161.4,88c0,0,6.9,1.5,9.2,5.3c2.3,3.8,0.3,8.7,0.3,8.7s-5.8-2.3-7.7-5.3C161.4,93.7,161.4,88,161.4,88"/>
			<path class="st0" d="M176.4,84.4c0,0,4.4,6.3,3.4,11.1c-1,4.8-6.2,7.1-6.2,7.1s-2.9-6.2-2.2-10C172.1,88.9,176.4,84.4,176.4,84.4
				"/>
			<path class="st0" d="M265.2,146.4c0,0-6.9,1.4-10.6-1.2c-3.6-2.6-3.7-7.8-3.7-7.8s6.3-0.2,9.2,1.8
				C263,141.1,265.2,146.4,265.2,146.4"/>
			<path class="st0" d="M249.5,159c0,0-7.2,2.8-11.6,0.7c-4.4-2.1-5.4-7.7-5.4-7.7s6.7-1.4,10.2,0.2
				C246.1,153.7,249.5,159,249.5,159"/>
			<path class="st0" d="M224.7,127.7c0,0-5.1,1.9-8.1,0.5c-3.1-1.5-3.8-5.4-3.8-5.4s4.7-1,7.2,0.2
				C222.3,124.1,224.7,127.7,224.7,127.7"/>
			<path class="st0" d="M268.5,125.8c0,0-2,7.5-6.3,9.8c-4.3,2.3-9.4-0.1-9.4-0.1s2.8-6.2,6.2-8.1
				C262.3,125.5,268.5,125.8,268.5,125.8"/>
			<path class="st0" d="M143,109.5c0,0,5.7-0.7,8.5,1.6c2.8,2.3,2.6,6.6,2.6,6.6s-5.1-0.2-7.3-2C144.5,113.9,143,109.5,143,109.5"/>
			<path class="st0" d="M169.8,125.6c0,0,5.5,3.8,6.1,7.9c0.6,4.1-2.8,7.6-2.8,7.6s-4.2-4.1-4.8-7.3
				C167.7,130.5,169.8,125.6,169.8,125.6"/>
			<path class="st0" d="M182.7,109.1c0,0,5.5,3.8,6.1,7.9c0.6,4.1-2.8,7.6-2.8,7.6s-4.2-4.1-4.8-7.3
				C180.6,114,182.7,109.1,182.7,109.1"/>
			<path class="st0" d="M227.8,117.4c0,0,6.3,3.4,7.4,7.8c1.1,4.3-2.2,8.4-2.2,8.4s-5-3.9-5.9-7.3
				C226.1,122.9,227.8,117.4,227.8,117.4"/>
			<path class="st0" d="M217.4,137.3c0,0,6.3,3.4,7.4,7.8c1.1,4.3-2.2,8.4-2.2,8.4s-5-3.9-5.9-7.3
				C215.7,142.8,217.4,137.3,217.4,137.3"/>
			<path class="st0" d="M226.5,170.6c0,0-3.8-6-2.7-10.4c1.1-4.3,6-6.4,6-6.4s2.5,5.8,1.7,9.3C230.6,166.6,226.5,170.6,226.5,170.6"
				/>
			<path class="st0" d="M154.9,167.9c0,0-1.8-6.9,0.5-10.7c2.4-3.8,7.6-4.2,7.6-4.2s0.6,6.3-1.2,9.3
				C160,165.3,154.9,167.9,154.9,167.9"/>
		</g>
		<path class="st0" d="M141.6,127.9c0,0,6.9,2.8,8.6,7.3c1.7,4.4-1.3,9.1-1.3,9.1s-5.7-3.5-7.1-7
			C140.4,133.9,141.6,127.9,141.6,127.9"/>
		<path class="st0" d="M129.4,146c0,0,4.5-5.5,9-5.8c4.5-0.3,7.9,3.7,7.9,3.7s-4.8,4.2-8.3,4.5C134.5,148.6,129.4,146,129.4,146"/>
		<path class="st0" d="M136.9,157.5c0,0,0.6-7.1,4.1-9.9c3.5-2.8,8.6-1.5,8.6-1.5s-1.5,6.1-4.2,8.4
			C142.6,156.8,136.9,157.5,136.9,157.5"/>
	</g>
	<g>
		<polygon class="st1" points="192.5,219.5 196.7,54.8 201,219.5 192.5,219.5 		"/>
	</g>
	<g>
		<path class="st1" d="M211.8,66.6c-2.6,7.4-6.9,15.3-15,17.8c0,0-0.8-4.2-0.8-4.2c1.5-0.2,3.1-0.7,4.7-1.5
			C205.5,75.9,209.1,71.3,211.8,66.6L211.8,66.6z"/>
	</g>
	<g>
		<path class="st1" d="M196.4,133.3c-14.6-6.1-29.8-16.1-34.9-31.8c1.5,3.7,3.7,7.1,6.3,10c5.2,5.9,12,10.2,19,13.6
			c3.5,1.7,7.2,3.1,10.9,4.2L196.4,133.3L196.4,133.3z"/>
	</g>
	<g>
		<path class="st1" d="M177.2,122.5c-3.4-10-6.5-20.7-5.3-31.3c-0.3,5.3,0.8,10.5,2.2,15.6c1.4,5,3.3,10,5.4,14.8
			C179.5,121.6,177.2,122.5,177.2,122.5L177.2,122.5z"/>
	</g>
	<g>
		<path class="st1" d="M194.4,162.2c-17.1-2.7-33.8-8.7-48.1-18.4c14,7.8,29.7,12.5,45.7,13.9c1,0.1,2.4,0.2,3.4,0.3
			C195.3,158,194.4,162.2,194.4,162.2L194.4,162.2z"/>
	</g>
	<g>
		<path class="st1" d="M180,158.1c-2.4-3.8-4.9-9.1-6.2-13.8c-0.5-1.6-0.9-3.3-1.2-5c0.5,1.6,1.1,3.2,1.8,4.8
			c1.9,4.5,4.5,8.6,7.5,12.4c0.2,0.2,0.4,0.5,0.5,0.8C182.3,157.3,180,158.1,180,158.1L180,158.1z"/>
	</g>
	<g>
		<path class="st1" d="M199.4,155.9c12.5,0.3,25.4-2.3,36.6-8.1c11.4-5.8,20.6-15.8,25.4-27.7c-1.7,4.6-3.8,9-6.6,13
			c-8.3,12.3-21.8,20.3-36,24.1c-6.5,1.7-12.9,2.8-19.6,2.9C199.2,160.1,199.4,155.9,199.4,155.9L199.4,155.9z"/>
	</g>
	<g>
		<path class="st1" d="M222.4,153.4c6-6.8,10.3-15.3,12.6-24.1c0.8-3,1.3-6,1.6-9.1c-0.1,3.1-0.4,6.2-1,9.3
			c-1.8,9.3-5.6,18.1-11.4,25.6C224.3,155,222.4,153.4,222.4,153.4L222.4,153.4z"/>
	</g>
	<g>
		<path class="st1" d="M228.6,145c1.3-6.9-1.6-14.1-5.6-19.7c-0.6-0.8-1.3-1.6-1.9-2.4c0.7,0.8,1.4,1.5,2.1,2.3
			c3.3,4,5.9,8.7,6.9,13.8c0.4,2.1,0.6,4.2,0.2,6.4L228.6,145L228.6,145z"/>
	</g>
	<g>
		<path class="st1" d="M196.7,115.6c16-2.5,30.7-11.8,40.8-24.3c0,0,2.1-2.6,2.1-2.6c-1.2,1.6-2.5,3.9-3.8,5.4
			c-8.1,10.7-19.2,19.1-31.8,23.8c-2.2,0.8-4.3,1.4-6.7,1.9L196.7,115.6L196.7,115.6z"/>
	</g>
	<g>
		<path class="st1" d="M205.6,114.5c3.6-4.4,6.9-9.1,10-14c2.9-4.9,6-9.9,6.9-15.6c-0.2,2.9-1.1,5.7-2.2,8.4
			c-3.3,8.1-7.8,15.5-12.7,22.7C207.6,116,205.6,114.5,205.6,114.5L205.6,114.5z"/>
	</g>
	<g>
		<path class="st1" d="M217.7,108.4c9,2.5,23.8,6,32.1,0.6c-2.2,1.8-4.9,2.7-7.7,3.2c-8.4,1.4-16.9,0.3-25.1-1.4
			C217,110.8,217.7,108.4,217.7,108.4L217.7,108.4z"/>
	</g>
	<g>
		<path class="st1" d="M169.7,115.8c-9.6,2.5-25.2,5.9-34,0.2c2.5,1.5,5.4,2,8.2,2.2c8.5,0.3,17-2,25-4.8
			C168.9,113.5,169.7,115.8,169.7,115.8L169.7,115.8z"/>
	</g>
</g>
<g>
	<g>
		<g>
			<path class="st0" d="M340.5,7.2c0,0-5.2,8.9-3.3,15.2c1.9,6.2,9,8.8,9,8.8s3.2-8.6,1.9-13.5C346.8,12.7,340.5,7.2,340.5,7.2"/>
			<path class="st0" d="M322.3,28c0,0,4.8,8.4,10.8,9.8c5.9,1.4,11.4-3.2,11.4-3.2s-5.5-6.6-10.1-7.9C329.7,25.5,322.3,28,322.3,28"
				/>
			<path class="st0" d="M340.1,49c0,0-6.6,3.4-7.9,7.9c-1.3,4.5,2,8.8,2,8.8s5.2-3.9,6.3-7.4C341.7,54.7,340.1,49,340.1,49"/>
			<path class="st0" d="M322.2,57.2c0,0-4.5,5.9-3.7,10.5c0.8,4.6,5.7,7,5.7,7s3-5.8,2.5-9.4C326.1,61.6,322.2,57.2,322.2,57.2"/>
			<path class="st0" d="M298.5,70c0,0,5.8,7,11.5,7.4c5.7,0.4,10.1-4.8,10.1-4.8s-6.1-5.3-10.6-5.7C305,66.5,298.5,70,298.5,70"/>
			<path class="st0" d="M298.7,93.9c0,0-1.7,9.8,2,14.8c3.7,5,11.1,5,11.1,5s0.1-8.8-2.8-12.8C306.1,96.8,298.7,93.9,298.7,93.9"/>
			<path class="st0" d="M384.8,16.1c0,0-9.6-3.4-15.3-0.5c-5.7,2.9-7,10.3-7,10.3s8.9,1.6,13.4-0.6
				C380.5,23.2,384.8,16.1,384.8,16.1"/>
			<path class="st0" d="M360.3,0c0,0-7.3,7.1-7.2,13.5c0.1,6.4,6.2,10.8,6.2,10.8s5.3-7.3,5.4-12.3C364.7,6.9,360.3,0,360.3,0"/>
			<path class="st0" d="M353.4,64c0,0-7.1-2.1-11.1,0.3c-4,2.4-4.6,7.8-4.6,7.8s6.5,0.8,9.7-1C350.6,69.3,353.4,64,353.4,64"/>
			<path class="st0" d="M415.9,110.5c0,0,4.3-6,3.3-10.6c-0.9-4.6-5.9-6.9-5.9-6.9s-2.8,5.9-2.2,9.5
				C411.8,106.2,415.9,110.5,415.9,110.5"/>
			<path class="st0" d="M429.9,63.6c0,0-10.4-3.7-16.6-0.4c-6.2,3.2-7.5,11.3-7.5,11.3s9.7,1.7,14.6-0.8
				C425.3,71.3,429.9,63.6,429.9,63.6"/>
			<path class="st0" d="M406.7,54.6c0,0-8.9,1.9-11.8,6.8c-2.9,4.9-0.4,11.1-0.4,11.1s7.5-3,9.9-6.8C406.8,62,406.7,54.6,406.7,54.6
				"/>
			<path class="st0" d="M387.4,50c0,0-5.7,8.1-4.4,14.2c1.3,6.1,8,9.2,8,9.2s3.8-7.9,2.8-12.8C393,55.8,387.4,50,387.4,50"/>
			<path class="st0" d="M273.4,129.6c0,0,8.9,1.8,13.6-1.5c4.7-3.3,4.8-10,4.8-10s-8.1-0.3-11.8,2.3
				C276.2,122.9,273.4,129.6,273.4,129.6"/>
			<path class="st0" d="M293.6,145.7c0,0,9.3,3.6,14.9,0.8c5.6-2.7,7-9.9,7-9.9s-8.6-1.7-13.1,0.3
				C297.9,139,293.6,145.7,293.6,145.7"/>
			<path class="st0" d="M325.5,105.7c0,0,6.5,2.5,10.5,0.6c3.9-1.9,4.9-7,4.9-7s-6.1-1.2-9.2,0.2
				C328.5,100.9,325.5,105.7,325.5,105.7"/>
			<path class="st0" d="M269.1,103.2c0,0,2.5,9.6,8,12.6c5.5,3,12.1-0.1,12.1-0.1s-3.6-8-7.9-10.4
				C277.1,102.8,269.1,103.2,269.1,103.2"/>
			<path class="st0" d="M430.4,82.2c0,0-7.3-0.9-10.9,2.1c-3.6,3-3.3,8.4-3.3,8.4s6.5-0.3,9.4-2.6C428.5,87.8,430.4,82.2,430.4,82.2
				"/>
			<path class="st0" d="M396,102.9c0,0-7,4.8-7.8,10.2c-0.8,5.3,3.6,9.8,3.6,9.8s5.4-5.3,6.2-9.4C398.7,109.2,396,102.9,396,102.9"
				/>
			<path class="st0" d="M379.3,81.7c0,0-7,4.8-7.8,10.2c-0.8,5.3,3.6,9.8,3.6,9.8s5.4-5.3,6.2-9.4C382,88,379.3,81.7,379.3,81.7"/>
			<path class="st0" d="M321.4,92.3c0,0-8,4.4-9.5,10c-1.4,5.6,2.8,10.8,2.8,10.8s6.4-5,7.6-9.4C323.6,99.4,321.4,92.3,321.4,92.3"
				/>
			<path class="st0" d="M334.8,118c0,0-8,4.4-9.5,10c-1.4,5.6,2.8,10.8,2.8,10.8s6.4-5,7.6-9.4C337,125,334.8,118,334.8,118"/>
			<path class="st0" d="M323.2,160.7c0,0,4.9-7.7,3.5-13.3c-1.4-5.6-7.7-8.2-7.7-8.2s-3.2,7.5-2.2,11.9
				C317.8,155.6,323.2,160.7,323.2,160.7"/>
			<path class="st0" d="M415.1,157.2c0,0,2.3-8.9-0.7-13.7c-3-4.9-9.8-5.4-9.8-5.4s-0.8,8.1,1.6,12
				C408.5,153.9,415.1,157.2,415.1,157.2"/>
		</g>
		<path class="st0" d="M432.2,105.9c0,0-8.9,3.7-11.1,9.3c-2.2,5.7,1.6,11.7,1.6,11.7s7.3-4.5,9.1-8.9
			C433.7,113.5,432.2,105.9,432.2,105.9"/>
		<path class="st0" d="M447.8,129c0,0-5.8-7.1-11.5-7.5c-5.7-0.4-10.1,4.7-10.1,4.7s6.1,5.3,10.6,5.8
			C441.3,132.5,447.8,129,447.8,129"/>
		<path class="st0" d="M438.1,143.9c0,0-0.7-9.1-5.2-12.7c-4.5-3.6-11-1.9-11-1.9s2,7.9,5.4,10.8C430.8,143,438.1,143.9,438.1,143.9
			"/>
	</g>
	<g>
		<polygon class="st1" points="355.9,223.6 361.4,12 366.8,223.6 355.9,223.6 		"/>
	</g>
	<g>
		<path class="st1" d="M342,27.1c3.5,6.1,8.1,12,14.2,15.5c2,1,4,1.7,6,1.9l-1,5.4C350.9,46.7,345.4,36.5,342,27.1L342,27.1z"/>
	</g>
	<g>
		<path class="st1" d="M360.1,107.6c14.3-4.4,28.3-11.6,38.4-22.8c3.4-3.8,6.2-8.1,8.1-12.9c-2.3,7.4-6.7,14.1-12.1,19.7
			c-9.2,9.4-20.6,16.3-32.8,21.2C361.8,112.8,360.1,107.6,360.1,107.6L360.1,107.6z"/>
	</g>
	<g>
		<path class="st1" d="M383.5,97.7c5.3-12.3,10.2-25.4,9.8-39c0.5,3.4,0.4,6.8,0.2,10.2c-0.9,10.3-3.6,20.3-7,30
			C386.4,99,383.5,97.7,383.5,97.7L383.5,97.7z"/>
	</g>
	<g>
		<path class="st1" d="M363.2,144.6c1.2-0.2,3.1-0.3,4.3-0.4c20.5-1.8,40.6-7.8,58.6-17.9c-4.6,3-9.4,6-14.3,8.4
			c-13.7,7-28.5,11.9-43.6,14.5c-1,0.2-2.9,0.5-3.9,0.7C364.3,149.9,363.2,144.6,363.2,144.6L363.2,144.6z"/>
	</g>
	<g>
		<path class="st1" d="M379.8,143.6c0.3-0.6,0.8-1.2,1.2-1.7c4.9-6.5,9-13.7,11.4-21.5c-1.5,8.2-4.8,16-8.9,23.1
			c-0.2,0.3-0.6,0.9-0.7,1.2c0,0,0-0.1,0-0.1L379.8,143.6L379.8,143.6z"/>
	</g>
	<g>
		<path class="st1" d="M358.1,147.3c-29.1-0.8-60.3-13.6-74.7-40c-2.1-3.6-3.7-7.5-5.1-11.3c2.5,5.7,5.5,11.1,9.2,16.1
			c15,19.8,40.3,28.9,64.5,29.8c2,0.1,4.1,0.1,5.9,0C357.9,141.8,358.1,147.3,358.1,147.3L358.1,147.3z"/>
	</g>
	<g>
		<path class="st1" d="M326,140.7c-9.8-12.9-15.4-28.7-15.9-44.8c0.4,4,1,7.9,2.1,11.7c2,7.6,5.2,14.9,9.3,21.6
			c2.1,3.3,4.4,6.6,6.9,9.4C328.4,138.6,326,140.7,326,140.7L326,140.7z"/>
	</g>
	<g>
		<path class="st1" d="M318.2,128.4c-1.2-9.5,3.2-18.8,9.2-26c0.9-1,1.8-2,2.7-2.9c-0.8,1-1.6,2.1-2.4,3.1
			c-5.1,7.2-8.9,16.4-7.2,25.3C320.4,127.9,318.2,128.4,318.2,128.4L318.2,128.4z"/>
	</g>
	<g>
		<path class="st1" d="M360.6,95.5c-21.1-4.9-39.8-18.7-51.9-36.5c0,0-2.4-3.5-2.4-3.5c1.6,2,3.7,4.7,5.4,6.6
			c12,13.5,28.1,23.5,45.8,27.4c1.3,0.3,2.7,0.5,3.9,0.7C361.3,90.1,360.6,95.5,360.6,95.5L360.6,95.5z"/>
	</g>
	<g>
		<path class="st1" d="M347.4,90.6c-4.2-6.2-8.1-12.5-11.6-19.1c-3.3-6.6-6.8-13.4-7.5-20.8c1.2,7.3,5.1,13.8,8.9,20
			c3.9,6.2,8.2,12.2,12.8,17.9C350,88.6,347.4,90.6,347.4,90.6L347.4,90.6z"/>
	</g>
	<g>
		<path class="st1" d="M335.3,83.9c-11.8,2.4-32,5.5-42.1-2.3c2.9,2.1,6.5,2.9,10,3.3c7,0.7,14.1-0.2,21.1-1.6
			c3.5-0.7,6.9-1.5,10.2-2.5L335.3,83.9L335.3,83.9z"/>
	</g>
	<g>
		<path class="st1" d="M397.1,87.3c11.6,4,31.4,9.7,42.6,3.3c-3,2.2-6.8,3.1-10.5,3.6c-11.2,1.2-22.4-1-33.2-3.9
			C396,90.3,397.1,87.3,397.1,87.3L397.1,87.3z"/>
	</g>
</g>
<g>
	<g>
		<g>
			<path class="st0" d="M450.9,126.6c0,0,4.1,7.1,2.6,12c-1.5,4.9-7.1,7-7.1,7s-2.5-6.8-1.5-10.7C446,130.9,450.9,126.6,450.9,126.6
				"/>
			<path class="st0" d="M465.3,143c0,0-3.8,6.6-8.5,7.8c-4.7,1.1-9-2.5-9-2.5s4.3-5.2,8-6.2C459.5,141,465.3,143,465.3,143"/>
			<path class="st0" d="M451.3,159.6c0,0,5.2,2.7,6.2,6.2c1,3.5-1.6,7-1.6,7s-4.1-3.1-5-5.9C450,164.1,451.3,159.6,451.3,159.6"/>
			<path class="st0" d="M465.4,166c0,0,3.5,4.7,2.9,8.3c-0.6,3.6-4.5,5.6-4.5,5.6s-2.4-4.6-2-7.5C462.3,169.5,465.4,166,465.4,166"
				/>
			<path class="st0" d="M484.1,176.1c0,0-4.6,5.5-9.1,5.8c-4.5,0.3-7.9-3.8-7.9-3.8s4.8-4.2,8.4-4.5
				C479,173.4,484.1,176.1,484.1,176.1"/>
			<path class="st0" d="M484,195c0,0,1.3,7.7-1.6,11.7c-3,3.9-8.7,3.9-8.7,3.9s0-6.9,2.2-10.1C478.1,197.3,484,195,484,195"/>
			<path class="st0" d="M415.9,133.6c0,0,7.6-2.7,12.1-0.4c4.5,2.3,5.5,8.2,5.5,8.2s-7,1.3-10.6-0.5
				C419.3,139.2,415.9,133.6,415.9,133.6"/>
			<path class="st0" d="M435.3,120.9c0,0,5.8,5.6,5.7,10.7c-0.1,5.1-4.9,8.5-4.9,8.5s-4.2-5.7-4.3-9.7
				C431.8,126.3,435.3,120.9,435.3,120.9"/>
			<path class="st0" d="M440.8,171.5c0,0,5.6-1.6,8.8,0.2c3.2,1.9,3.6,6.2,3.6,6.2s-5.1,0.6-7.7-0.8
				C442.9,175.6,440.8,171.5,440.8,171.5"/>
			<path class="st0" d="M391.4,208.1c0,0-3.4-4.8-2.6-8.4c0.7-3.6,4.7-5.4,4.7-5.4s2.2,4.7,1.7,7.5
				C394.6,204.7,391.4,208.1,391.4,208.1"/>
			<path class="st0" d="M380.3,171.1c0,0,8.2-2.9,13.1-0.4c4.9,2.5,5.9,8.9,5.9,8.9s-7.6,1.3-11.5-0.6
				C383.9,177.2,380.3,171.1,380.3,171.1"/>
			<path class="st0" d="M398.7,164c0,0,7,1.5,9.4,5.4c2.3,3.9,0.3,8.8,0.3,8.8s-5.9-2.4-7.8-5.4C398.6,169.8,398.7,164,398.7,164"/>
			<path class="st0" d="M413.9,160.4c0,0,4.5,6.4,3.5,11.3c-1,4.8-6.3,7.2-6.3,7.2s-3-6.3-2.2-10.1
				C409.5,164.9,413.9,160.4,413.9,160.4"/>
			<path class="st0" d="M503.9,223.3c0,0-7.1,1.4-10.7-1.2c-3.7-2.6-3.8-7.9-3.8-7.9s6.4-0.2,9.3,1.8
				C501.7,217.9,503.9,223.3,503.9,223.3"/>
			<path class="st0" d="M488,236c0,0-7.3,2.8-11.8,0.7c-4.4-2.1-5.5-7.8-5.5-7.8s6.8-1.4,10.3,0.2C484.6,230.7,488,236,488,236"/>
			<path class="st0" d="M462.8,204.3c0,0-5.1,2-8.3,0.5c-3.1-1.5-3.9-5.5-3.9-5.5s4.8-1,7.3,0.2
				C460.4,200.6,462.8,204.3,462.8,204.3"/>
			<path class="st0" d="M507.3,202.4c0,0-2,7.6-6.3,9.9c-4.3,2.3-9.6-0.1-9.6-0.1s2.9-6.3,6.2-8.3C501,202,507.3,202.4,507.3,202.4"
				/>
			<path class="st0" d="M379.9,185.8c0,0,5.8-0.7,8.6,1.6c2.8,2.3,2.6,6.7,2.6,6.7s-5.2-0.2-7.4-2
				C381.4,190.2,379.9,185.8,379.9,185.8"/>
			<path class="st0" d="M407.1,202.1c0,0,5.6,3.8,6.2,8c0.6,4.2-2.9,7.7-2.9,7.7s-4.3-4.2-4.9-7.5
				C405,207.1,407.1,202.1,407.1,202.1"/>
			<path class="st0" d="M420.2,185.4c0,0,5.6,3.8,6.2,8c0.6,4.2-2.9,7.7-2.9,7.7s-4.3-4.2-4.9-7.5
				C418.1,190.4,420.2,185.4,420.2,185.4"/>
			<path class="st0" d="M466,193.8c0,0,6.3,3.5,7.5,7.9c1.1,4.4-2.2,8.6-2.2,8.6s-5-4-6-7.4C464.3,199.4,466,193.8,466,193.8"/>
			<path class="st0" d="M455.4,214.1c0,0,6.3,3.5,7.5,7.9c1.1,4.4-2.2,8.6-2.2,8.6s-5-4-6-7.4C453.7,219.6,455.4,214.1,455.4,214.1"
				/>
			<path class="st0" d="M464.6,247.8c0,0-3.9-6.1-2.8-10.5c1.1-4.4,6.1-6.4,6.1-6.4s2.5,5.9,1.7,9.4
				C468.8,243.8,464.6,247.8,464.6,247.8"/>
			<path class="st0" d="M392,245c0,0-1.9-7,0.6-10.9c2.4-3.9,7.7-4.3,7.7-4.3s0.6,6.4-1.2,9.5C397.2,242.4,392,245,392,245"/>
		</g>
		<path class="st0" d="M378.5,204.5c0,0,7,2.9,8.7,7.4c1.7,4.5-1.3,9.2-1.3,9.2s-5.7-3.6-7.2-7.1
			C377.3,210.5,378.5,204.5,378.5,204.5"/>
		<path class="st0" d="M366.2,222.8c0,0,4.6-5.6,9.1-5.9c4.5-0.3,8,3.7,8,3.7s-4.8,4.2-8.4,4.5C371.3,225.5,366.2,222.8,366.2,222.8
			"/>
		<path class="st0" d="M373.8,234.5c0,0,0.6-7.2,4.1-10.1c3.5-2.8,8.7-1.5,8.7-1.5s-1.6,6.2-4.3,8.5
			C379.6,233.8,373.8,234.5,373.8,234.5"/>
	</g>
	<g>
		<polygon class="st1" points="430.1,297.4 434.4,130.3 438.8,297.4 430.1,297.4 		"/>
	</g>
	<g>
		<path class="st1" d="M449.7,142.2c-2.7,7.5-7,15.5-15.2,18c0,0-0.8-4.3-0.8-4.3c1.6-0.2,3.2-0.7,4.7-1.5
			C443.3,151.8,447,147.1,449.7,142.2L449.7,142.2z"/>
	</g>
	<g>
		<path class="st1" d="M434.1,210c-14.8-6.2-30.3-16.4-35.4-32.3c1.5,3.7,3.7,7.2,6.4,10.2c5.3,6,12.1,10.4,19.3,13.8
			c3.6,1.7,7.3,3.2,11,4.2L434.1,210L434.1,210z"/>
	</g>
	<g>
		<path class="st1" d="M414.6,199.1c-3.5-10.2-6.6-21-5.4-31.8c-0.3,5.4,0.8,10.7,2.2,15.8c1.4,5.1,3.3,10.2,5.5,15
			C417,198.1,414.6,199.1,414.6,199.1L414.6,199.1z"/>
	</g>
	<g>
		<path class="st1" d="M432.1,239.3c-17.4-2.7-34.3-8.8-48.9-18.7c14.2,7.9,30.1,12.7,46.3,14.1c1,0.1,2.5,0.2,3.4,0.3
			C433,235.1,432.1,239.3,432.1,239.3L432.1,239.3z"/>
	</g>
	<g>
		<path class="st1" d="M417.5,235.1c-2.4-3.9-4.9-9.2-6.3-14c-0.5-1.7-0.9-3.4-1.2-5.1c0.5,1.6,1.1,3.3,1.8,4.8
			c2,4.5,4.6,8.7,7.6,12.6c0.2,0.2,0.4,0.5,0.5,0.8C419.9,234.3,417.5,235.1,417.5,235.1L417.5,235.1z"/>
	</g>
	<g>
		<path class="st1" d="M437.1,232.9c12.7,0.3,25.8-2.3,37.1-8.2c11.6-5.9,20.9-16,25.8-28.1c-1.7,4.6-3.9,9.1-6.6,13.2
			c-8.4,12.5-22.1,20.6-36.5,24.5c-6.6,1.7-13.1,2.8-19.9,2.9C437,237.2,437.1,232.9,437.1,232.9L437.1,232.9z"/>
	</g>
	<g>
		<path class="st1" d="M460.5,230.3c6-6.9,10.5-15.5,12.8-24.5c0.8-3,1.3-6.1,1.6-9.2c-0.1,3.1-0.4,6.3-1,9.4
			c-1.8,9.4-5.7,18.3-11.5,26C462.4,232,460.5,230.3,460.5,230.3L460.5,230.3z"/>
	</g>
	<g>
		<path class="st1" d="M466.8,221.9c1.4-7-1.6-14.3-5.7-20c-0.6-0.8-1.3-1.6-1.9-2.5c1.4,1.5,2.8,3.1,4,4.8c3.7,5.2,6.2,11.5,5.3,18
			C468.5,222.3,466.8,221.9,466.8,221.9L466.8,221.9z"/>
	</g>
	<g>
		<path class="st1" d="M434.5,192c16.2-2.5,31.1-12,41.4-24.7c0,0,2.1-2.6,2.1-2.6c-1.2,1.6-2.6,4-3.8,5.5
			c-8.2,10.9-19.5,19.4-32.3,24.1c-2.2,0.8-4.3,1.5-6.8,2C435,196.3,434.5,192,434.5,192L434.5,192z"/>
	</g>
	<g>
		<path class="st1" d="M443.4,190.9c3.6-4.5,7-9.3,10.1-14.2c3-4.9,6.1-10.1,7-15.8c-0.2,2.9-1.2,5.8-2.2,8.5
			c-3.3,8.2-8,15.7-12.9,23C445.4,192.4,443.4,190.9,443.4,190.9L443.4,190.9z"/>
	</g>
	<g>
		<path class="st1" d="M455.7,184.7c9.2,2.5,24.1,6.1,32.6,0.6c-2.2,1.8-5,2.7-7.8,3.3c-8.5,1.4-17.1,0.3-25.5-1.4
			C455.1,187.1,455.7,184.7,455.7,184.7L455.7,184.7z"/>
	</g>
	<g>
		<path class="st1" d="M407.1,192.2c-9.7,2.5-25.6,6-34.5,0.2c2.5,1.5,5.4,2,8.3,2.2c5.8,0.2,11.5-0.8,17.1-2.3
			c2.8-0.7,5.6-1.6,8.2-2.6L407.1,192.2L407.1,192.2z"/>
	</g>
</g>
<g>
	<g>
		<g>
			<path class="st0" d="M-45.6,126.6c0,0,4.1,7.1,2.6,12c-1.5,4.9-7.1,7-7.1,7s-2.5-6.8-1.5-10.7C-50.5,130.9-45.6,126.6-45.6,126.6
				"/>
			<path class="st0" d="M-31.2,143c0,0-3.8,6.6-8.5,7.8c-4.7,1.1-9-2.5-9-2.5s4.3-5.2,8-6.2C-37.1,141-31.2,143-31.2,143"/>
			<path class="st0" d="M-45.3,159.6c0,0,5.2,2.7,6.2,6.2c1,3.5-1.6,7-1.6,7s-4.1-3.1-5-5.9C-46.5,164.1-45.3,159.6-45.3,159.6"/>
			<path class="st0" d="M-31.1,166c0,0,3.5,4.7,2.9,8.3c-0.6,3.6-4.5,5.6-4.5,5.6s-2.4-4.6-2-7.5C-34.2,169.5-31.1,166-31.1,166"/>
			<path class="st0" d="M-12.5,176.1c0,0-4.6,5.5-9.1,5.8c-4.5,0.3-7.9-3.8-7.9-3.8s4.8-4.2,8.4-4.5
				C-17.6,173.4-12.5,176.1-12.5,176.1"/>
			<path class="st0" d="M-12.6,195c0,0,1.3,7.7-1.6,11.7c-3,3.9-8.7,3.9-8.7,3.9s0-6.9,2.2-10.1C-18.4,197.3-12.6,195-12.6,195"/>
			<path class="st0" d="M-80.6,133.6c0,0,7.6-2.7,12.1-0.4c4.5,2.3,5.5,8.2,5.5,8.2s-7,1.3-10.6-0.5
				C-77.2,139.2-80.6,133.6-80.6,133.6"/>
			<path class="st0" d="M-61.2,120.9c0,0,5.8,5.6,5.7,10.7c-0.1,5.1-4.9,8.5-4.9,8.5s-4.2-5.7-4.3-9.7
				C-64.7,126.3-61.2,120.9-61.2,120.9"/>
			<path class="st0" d="M-55.8,171.5c0,0,5.6-1.6,8.8,0.2c3.2,1.9,3.6,6.2,3.6,6.2s-5.1,0.6-7.7-0.8
				C-53.6,175.6-55.8,171.5-55.8,171.5"/>
			<path class="st0" d="M-105.1,208.1c0,0-3.4-4.8-2.6-8.4c0.7-3.6,4.7-5.4,4.7-5.4s2.2,4.7,1.7,7.5
				C-101.9,204.7-105.1,208.1-105.1,208.1"/>
			<path class="st0" d="M-116.2,171.1c0,0,8.2-2.9,13.1-0.4c4.9,2.5,5.9,8.9,5.9,8.9s-7.6,1.3-11.5-0.6
				C-112.6,177.2-116.2,171.1-116.2,171.1"/>
			<path class="st0" d="M-97.9,164c0,0,7,1.5,9.4,5.4c2.3,3.9,0.3,8.8,0.3,8.8s-5.9-2.4-7.8-5.4C-97.9,169.8-97.9,164-97.9,164"/>
			<path class="st0" d="M-82.7,160.4c0,0,4.5,6.4,3.5,11.3c-1,4.8-6.3,7.2-6.3,7.2s-3-6.3-2.2-10.1C-87,164.9-82.7,160.4-82.7,160.4
				"/>
			<path class="st0" d="M7.4,223.3c0,0-7.1,1.4-10.7-1.2c-3.7-2.6-3.8-7.9-3.8-7.9s6.4-0.2,9.3,1.8C5.2,217.9,7.4,223.3,7.4,223.3"
				/>
			<path class="st0" d="M-8.5,236c0,0-7.3,2.8-11.8,0.7c-4.4-2.1-5.5-7.8-5.5-7.8s6.8-1.4,10.3,0.2C-11.9,230.7-8.5,236-8.5,236"/>
			<path class="st0" d="M-33.7,204.3c0,0-5.1,2-8.3,0.5c-3.1-1.5-3.9-5.5-3.9-5.5s4.8-1,7.3,0.2C-36.1,200.6-33.7,204.3-33.7,204.3"
				/>
			<path class="st0" d="M10.8,202.4c0,0-2,7.6-6.3,9.9c-4.3,2.3-9.6-0.1-9.6-0.1s2.9-6.3,6.2-8.3C4.5,202,10.8,202.4,10.8,202.4"/>
			<path class="st0" d="M-116.6,185.8c0,0,5.8-0.7,8.6,1.6c2.8,2.3,2.6,6.7,2.6,6.7s-5.2-0.2-7.4-2
				C-115.1,190.2-116.6,185.8-116.6,185.8"/>
			<path class="st0" d="M-89.4,202.1c0,0,5.6,3.8,6.2,8c0.6,4.2-2.9,7.7-2.9,7.7s-4.3-4.2-4.9-7.5
				C-91.6,207.1-89.4,202.1-89.4,202.1"/>
			<path class="st0" d="M-76.3,185.4c0,0,5.6,3.8,6.2,8c0.6,4.2-2.9,7.7-2.9,7.7s-4.3-4.2-4.9-7.5
				C-78.4,190.4-76.3,185.4-76.3,185.4"/>
			<path class="st0" d="M-30.5,193.8c0,0,6.3,3.5,7.5,7.9c1.1,4.4-2.2,8.6-2.2,8.6s-5-4-6-7.4C-32.2,199.4-30.5,193.8-30.5,193.8"/>
			<path class="st0" d="M-41.1,214.1c0,0,6.3,3.5,7.5,7.9c1.1,4.4-2.2,8.6-2.2,8.6s-5-4-6-7.4C-42.8,219.6-41.1,214.1-41.1,214.1"/>
			<path class="st0" d="M-31.9,247.8c0,0-3.9-6.1-2.8-10.5c1.1-4.4,6.1-6.4,6.1-6.4s2.5,5.9,1.7,9.4
				C-27.7,243.8-31.9,247.8-31.9,247.8"/>
			<path class="st0" d="M-104.6,245c0,0-1.9-7,0.6-10.9c2.4-3.9,7.7-4.3,7.7-4.3s0.6,6.4-1.2,9.5C-99.3,242.4-104.6,245-104.6,245"
				/>
		</g>
		<path class="st0" d="M-118,204.5c0,0,7,2.9,8.7,7.4c1.7,4.5-1.3,9.2-1.3,9.2s-5.7-3.6-7.2-7.1C-119.2,210.5-118,204.5-118,204.5"
			/>
		<path class="st0" d="M-130.4,222.8c0,0,4.6-5.6,9.1-5.9c4.5-0.3,8,3.7,8,3.7s-4.8,4.2-8.4,4.5
			C-125.2,225.5-130.4,222.8-130.4,222.8"/>
		<path class="st0" d="M-122.7,234.5c0,0,0.6-7.2,4.1-10.1c3.5-2.8,8.7-1.5,8.7-1.5s-1.6,6.2-4.3,8.5
			C-116.9,233.8-122.7,234.5-122.7,234.5"/>
	</g>
	<g>
		<polygon class="st1" points="-66.4,297.4 -62.1,130.3 -57.7,297.4 -66.4,297.4 		"/>
	</g>
	<g>
		<path class="st1" d="M-46.8,142.2c-2.7,7.5-7,15.5-15.2,18c0,0-0.8-4.3-0.8-4.3c1.6-0.2,3.2-0.7,4.7-1.5
			C-53.2,151.8-49.6,147.1-46.8,142.2L-46.8,142.2z"/>
	</g>
	<g>
		<path class="st1" d="M-62.4,210c-14.8-6.2-30.3-16.4-35.4-32.3c1.5,3.7,3.7,7.2,6.4,10.2c5.3,6,12.1,10.4,19.3,13.8
			c3.6,1.7,7.3,3.2,11,4.2L-62.4,210L-62.4,210z"/>
	</g>
	<g>
		<path class="st1" d="M-81.9,199.1c-3.5-10.2-6.6-21-5.4-31.8c-0.3,5.4,0.8,10.7,2.2,15.8c1.4,5.1,3.3,10.2,5.5,15
			C-79.5,198.1-81.9,199.1-81.9,199.1L-81.9,199.1z"/>
	</g>
	<g>
		<path class="st1" d="M-64.4,239.3c-17.4-2.7-34.3-8.8-48.9-18.7c14.2,7.9,30.1,12.7,46.3,14.1c1,0.1,2.5,0.2,3.4,0.3
			C-63.5,235.1-64.4,239.3-64.4,239.3L-64.4,239.3z"/>
	</g>
	<g>
		<path class="st1" d="M-79.1,235.1c-2.4-3.9-4.9-9.2-6.3-14c-0.5-1.7-0.9-3.4-1.2-5.1c0.5,1.6,1.1,3.3,1.8,4.8
			c2,4.5,4.6,8.7,7.6,12.6c0.2,0.2,0.4,0.5,0.5,0.8C-76.7,234.3-79.1,235.1-79.1,235.1L-79.1,235.1z"/>
	</g>
	<g>
		<path class="st1" d="M-59.4,232.9c12.7,0.3,25.8-2.3,37.1-8.2c11.6-5.9,20.9-16,25.8-28.1c-1.7,4.6-3.9,9.1-6.6,13.2
			c-8.4,12.5-22.1,20.6-36.5,24.5c-6.6,1.7-13.1,2.8-19.9,2.9C-59.5,237.2-59.4,232.9-59.4,232.9L-59.4,232.9z"/>
	</g>
	<g>
		<path class="st1" d="M-36,230.3c6-6.9,10.5-15.5,12.8-24.5c0.8-3,1.3-6.1,1.6-9.2c-0.1,3.1-0.4,6.3-1,9.4
			c-1.8,9.4-5.7,18.3-11.5,26C-34.1,232-36,230.3-36,230.3L-36,230.3z"/>
	</g>
	<g>
		<path class="st1" d="M-29.8,221.9c1.4-7-1.6-14.3-5.7-20c-0.6-0.8-1.3-1.6-1.9-2.5c1.4,1.5,2.8,3.1,4,4.8c3.7,5.2,6.2,11.5,5.3,18
			C-28,222.3-29.8,221.9-29.8,221.9L-29.8,221.9z"/>
	</g>
	<g>
		<path class="st1" d="M-62.1,192c16.2-2.5,31.1-12,41.4-24.7c0,0,2.1-2.6,2.1-2.6c-1.2,1.6-2.6,4-3.8,5.5
			c-8.2,10.9-19.5,19.4-32.3,24.1c-2.2,0.8-4.3,1.5-6.8,2L-62.1,192L-62.1,192z"/>
	</g>
	<g>
		<path class="st1" d="M-53.1,190.9c3.6-4.5,7-9.3,10.1-14.2c3-4.9,6.1-10.1,7-15.8c-0.2,2.9-1.2,5.8-2.2,8.5
			c-3.3,8.2-8,15.7-12.9,23C-51.1,192.4-53.1,190.9-53.1,190.9L-53.1,190.9z"/>
	</g>
	<g>
		<path class="st1" d="M-40.8,184.7c9.2,2.5,24.1,6.1,32.6,0.6c-2.2,1.8-5,2.7-7.8,3.3c-8.5,1.4-17.1,0.3-25.5-1.4
			C-41.5,187.1-40.8,184.7-40.8,184.7L-40.8,184.7z"/>
	</g>
	<g>
		<path class="st1" d="M-89.5,192.2c-9.7,2.5-25.6,6-34.5,0.2c2.5,1.5,5.4,2,8.3,2.2c5.8,0.2,11.5-0.8,17.1-2.3
			c2.8-0.7,5.6-1.6,8.2-2.6C-90.3,189.8-89.5,192.2-89.5,192.2L-89.5,192.2z"/>
	</g>
</g>
</svg>
