<?xml version="1.0" encoding="utf-8"?>
<!-- Generator: Adobe Illustrator 26.3.1, SVG Export Plug-In . SVG Version: 6.00 Build 0)  -->
<svg version="1.1" id="Layer_1" xmlns="http://www.w3.org/2000/svg" xmlns:xlink="http://www.w3.org/1999/xlink" x="0px" y="0px"
	 viewBox="0 0 868.5 407.7" style="enable-background:new 0 0 868.5 407.7;" xml:space="preserve">
<style type="text/css">
	.st0{fill-rule:evenodd;clip-rule:evenodd;fill:#180E07;}
	
		.st1{fill-rule:evenodd;clip-rule:evenodd;fill:none;stroke:#000000;stroke-width:4.0308;stroke-linecap:round;stroke-miterlimit:10;}
	.st2{fill:#555354;}
</style>
<g id="geruest">
	<path class="st0" d="M849.7,52.2H18.5c-2.7,0-4.9-2.2-4.9-4.9v0c0-2.7,2.2-4.9,4.9-4.9h831.2c2.7,0,4.9,2.2,4.9,4.9v0
		C854.6,50,852.4,52.2,849.7,52.2z"/>
	<path class="st0" d="M849.7,145.7H18.5c-2.7,0-4.9-2.2-4.9-4.9v0c0-2.7,2.2-4.9,4.9-4.9h831.2c2.7,0,4.9,2.2,4.9,4.9v0
		C854.6,143.5,852.4,145.7,849.7,145.7z"/>
</g>
<path id="kabel" class="st1" d="M802.1,367.8c-1.9-44.9,40.8-157.4,27.6-203.9c-6.9-24.3-24.5-23.1-24.5-23.1s10.3,180.6,21.1,209.9
	c3,8,6,25.9,8.7,48.8 M827.4,399.4c1-3.9,2-7.7,3-11.2c20.2-70.4-8.9-260.7-36.4-235.8c-141.4,128-139-17.4-142.7-9.4
	c-51.2,111.8-152,7.1-155.4,12.8c-26.2,42.8-76.9,0.5-79.9,2.7c-42,29.7-33.4-2.7-34.9-1.3C267.1,257.5,192.5,140,192.8,143.1
	c4.1,58.7,94.9-41.7,57.2,21.1c-31.2,52-136.1-12.4-137.2-18.4c-5.5-31.4-26-23.6-23.9-4.9c23.7,217.6,249.7,89.5,302.1,69.5
	c109.2-41.5,166.6-55.1,195.6-69.5c7.7-3.8-4.5,99.9,95.8,81.7c106-19.2,112-192.8,126.4,20.7c3.2,46.9,7.7,78.4,8.2,133.9"/>
<g id="neon-text">
	<path id="letter-n2" class="st2" d="M803.1,155.1c-0.4,1.7-1.4,3.2-2.8,4.1c-1.1,0.7-2.3,1-3.5,1c-0.5,0-0.9,0-1.4-0.1
		c-1.7-0.4-3.2-1.4-4.1-2.8l-79-116.8c-2-3.1-1.1-7.1,1.9-9.1c3-2,7.1-1.1,9,1.9l79,116.8C803.2,151.7,803.5,153.4,803.1,155.1z
		 M717.6,66.9c-3.6,0-6.5,2.8-6.5,6.5v80.3c0,3.6,2.8,6.5,6.5,6.5s6.5-2.8,6.5-6.5V73.4C724.1,69.8,721.2,66.9,717.6,66.9z
		 M796.6,123.7c3.6,0,6.5-2.8,6.5-6.5V36.9c0-3.6-2.8-6.5-6.5-6.5s-6.5,2.8-6.5,6.5v80.3C790.2,120.8,793,123.7,796.6,123.7z"/>
	<path id="letter-o" class="st2" d="M645,30.5 M607.9,42.1 M641.4,42.8 M645,30.5c-5.4-1.3-7.9,1.2-8.6,3.1c-0.8,1.9-0.7,7.2,5,9.2
		c21.4,7.5,35.5,24.3,35.5,47.2c0,29-23.1,52.3-52.1,52.3S572.7,119,572.7,90c0-23.2,13.2-40.8,35.2-47.9c5.8-1.9,5.7-7.4,5.2-8.7
		c-0.9-2.4-3.9-4.2-8.1-3.9c-28.2,7.2-45.7,31.3-45.7,60.4c0,35.9,29.4,65.1,65.5,65.1s65.5-29.2,65.5-65.1
		C690.3,61.5,672.3,38.3,645,30.5 M624.8,77c3.6,0,6.5-2.8,6.5-6.5v-50c0-3.6-2.8-6.5-6.5-6.5s-6.5,2.8-6.5,6.5v50
		C618.3,74.2,621.2,77,624.8,77z"/>
	<path id="letter-n" class="st2" d="M491.2,117.2V36.9c0-3.6,2.8-6.5,6.5-6.5s6.5,2.8,6.5,6.5v80.3c0,3.6-2.8,6.5-6.5,6.5
		S491.2,120.8,491.2,117.2z M424.3,33.4c-1.9-3-6-3.9-9-1.9h0c-3,1.9-3.9,6-1.9,9.1l79,116.8c0.9,1.5,2.4,2.5,4.1,2.8
		c0.5,0.1,0.9,0.1,1.4,0.1c1.2,0,2.5-0.4,3.5-1c1.5-0.9,2.5-2.4,2.8-4.1c0.4-1.7,0-3.5-0.9-4.9L424.3,33.4z M418.7,66.9
		c-3.6,0-6.5,2.8-6.5,6.5v80.3c0,3.6,2.8,6.5,6.5,6.5c3.6,0,6.5-2.8,6.5-6.5V73.4C425.2,69.8,422.3,66.9,418.7,66.9z"/>
	<path id="letter-r" class="st2" d="M347.5,98.3h-28.1c-3.6,0-6.5-2.8-6.5-6.5c0-3.6,2.8-6.5,6.5-6.5h28.1
		c14.7,0,21.8-6.8,21.8-20.7c0-14.3-7.3-21.3-22.2-21.3h-28.8c-3.6,0-6.5-2.8-6.5-6.5s2.8-6.5,6.5-6.5h29.8v0.2
		c21.4,0.4,34.1,13.1,34.1,34.2C382.3,85.8,369.3,98.3,347.5,98.3z M300.1,30.4c-3.6,0-6.5,2.8-6.5,6.5v116.8c0,3.6,2.8,6.5,6.5,6.5
		c3.6,0,6.5-2.8,6.5-6.5V36.9C306.5,33.3,303.7,30.4,300.1,30.4z M337.8,103.1c-2.7-2.4-6.7-2.3-9.1,0.2h0c-2.4,2.7-2.3,6.7,0.2,9.1
		l48.6,46c1.2,1.1,2.8,1.7,4.5,1.7c0,0,0.1,0,0.1,0c1.7,0,3.3-0.7,4.5-2c1.2-1.3,1.8-2.9,1.7-4.6c0-1.7-0.7-3.3-2-4.5L337.8,103.1z"
		/>
	<path id="letter-u" class="st2" d="M175.5,109.8V37.7c0-3.6,1.9-5.4,5.4-5.4h1.5c3.6,0,5.4,1.9,5.4,5.4v72.1
		c0,21.4,12.8,34.2,34.3,34.2c21.4,0,34-12.8,34-34.2V37.7c0-3.6,1.9-5.4,5.4-5.4h1.5c3.6,0,5.4,1.9,5.4,5.4v72.1
		c0,29.2-17.2,46.6-46.4,46.6C192.9,156.4,175.5,139.1,175.5,109.8z"/>
	<path id="letter-t" class="st2" d="M162.2,36.9c0,3.6-2.8,6.5-6.5,6.5H70.1c-3.6,0-6.5-2.8-6.5-6.5c0-3.6,2.8-6.5,6.5-6.5h85.6
		C159.3,30.4,162.2,33.3,162.2,36.9z M112.8,46.8c-3.6,0-6.5,2.8-6.5,6.5v100.4c0,3.6,2.8,6.5,6.5,6.5s6.5-2.8,6.5-6.5V53.3
		C119.3,49.7,116.4,46.8,112.8,46.8z"/>
</g>
</svg>
